<svg width="494" height="700" viewBox="0 0 494 700" fill="none" xmlns="http://www.w3.org/2000/svg">
<g clip-path="url(#clip0)">
<rect width="494" height="700" fill="white"/>
<rect width="494" height="700" fill="#F9F9F9"/>
<rect y="695" width="494" height="5" fill="#1E1E1E"/>
<rect width="494" height="5" fill="#1E1E1E"/>
<circle cx="28.5" cy="569.5" r="9.5" fill="#1C1D21"/>
<circle cx="63.5" cy="569.5" r="9.5" stroke="#1C1D21"/>
<path d="M22.2852 638.971V618.536H29.1846C31.9678 618.536 34.1699 618.956 35.791 619.796C37.4121 620.626 38.7012 621.852 39.6582 623.473C40.6152 625.094 41.0938 626.861 41.0938 628.775C41.0938 630.143 40.8301 631.451 40.3027 632.701C39.7754 633.951 39.0234 635.05 38.0469 635.997C37.0508 636.974 35.8936 637.711 34.5752 638.209C33.8037 638.512 33.0957 638.717 32.4512 638.824C31.8066 638.922 30.5762 638.971 28.7598 638.971H22.2852ZM28.877 621.144H25.2148V636.363H28.9648C30.4297 636.363 31.5674 636.266 32.3779 636.07C33.1885 635.865 33.8623 635.611 34.3994 635.309C34.9463 634.996 35.4443 634.615 35.8936 634.166C37.3389 632.701 38.0615 630.851 38.0615 628.614C38.0615 626.417 37.3193 624.625 35.835 623.238C35.2881 622.721 34.6582 622.296 33.9453 621.964C33.2422 621.632 32.5732 621.412 31.9385 621.305C31.3037 621.197 30.2832 621.144 28.877 621.144ZM52.8564 630.899V636.627C52.8564 637.086 53.0127 637.315 53.3252 637.315C53.6475 637.315 54.1504 637.076 54.834 636.598V638.224C54.2285 638.614 53.7402 638.878 53.3691 639.015C53.0078 639.161 52.627 639.234 52.2266 639.234C51.084 639.234 50.4102 638.785 50.2051 637.887C49.0723 638.766 47.8662 639.205 46.5869 639.205C45.6494 639.205 44.8682 638.897 44.2432 638.282C43.6182 637.657 43.3057 636.876 43.3057 635.938C43.3057 635.089 43.6084 634.332 44.2139 633.668C44.8291 632.994 45.6982 632.462 46.8213 632.071L50.2344 630.899V630.182C50.2344 628.561 49.4238 627.75 47.8027 627.75C46.3477 627.75 44.9316 628.502 43.5547 630.006V627.091C44.5898 625.87 46.0791 625.26 48.0225 625.26C49.4775 625.26 50.6445 625.641 51.5234 626.402C51.8164 626.646 52.0801 626.974 52.3145 627.384C52.5488 627.784 52.6953 628.189 52.7539 628.6C52.8223 629 52.8564 629.767 52.8564 630.899ZM50.2344 636.334V632.335L48.4473 633.023C47.5391 633.385 46.8945 633.751 46.5137 634.122C46.1426 634.483 45.957 634.938 45.957 635.484C45.957 636.041 46.1328 636.495 46.4844 636.847C46.8457 637.198 47.3096 637.374 47.876 637.374C48.7256 637.374 49.5117 637.027 50.2344 636.334ZM59.8584 625.523V627.237C61.0498 625.919 62.4023 625.26 63.916 625.26C64.7559 625.26 65.5371 625.479 66.2598 625.919C66.9824 626.349 67.5293 626.944 67.9004 627.706C68.2812 628.458 68.4717 629.654 68.4717 631.295V639H65.8057V631.324C65.8057 629.947 65.5957 628.966 65.1758 628.38C64.7559 627.784 64.0527 627.486 63.0664 627.486C61.8066 627.486 60.7373 628.116 59.8584 629.376V639H57.1338V625.523H59.8584ZM73.5693 619.854C74.0088 619.854 74.3848 620.006 74.6973 620.309C75.0098 620.611 75.166 620.982 75.166 621.422C75.166 621.852 75.0098 622.223 74.6973 622.535C74.3848 622.848 74.0088 623.004 73.5693 623.004C73.1592 623.004 72.7979 622.848 72.4854 622.535C72.1729 622.213 72.0166 621.842 72.0166 621.422C72.0166 621.012 72.1729 620.65 72.4854 620.338C72.7979 620.016 73.1592 619.854 73.5693 619.854ZM72.251 625.523H74.917V639H72.251V625.523ZM79.1797 638.971V618.536H86.0791C88.8623 618.536 91.0645 618.956 92.6855 619.796C94.3066 620.626 95.5957 621.852 96.5527 623.473C97.5098 625.094 97.9883 626.861 97.9883 628.775C97.9883 630.143 97.7246 631.451 97.1973 632.701C96.6699 633.951 95.918 635.05 94.9414 635.997C93.9453 636.974 92.7881 637.711 91.4697 638.209C90.6982 638.512 89.9902 638.717 89.3457 638.824C88.7012 638.922 87.4707 638.971 85.6543 638.971H79.1797ZM85.7715 621.144H82.1094V636.363H85.8594C87.3242 636.363 88.4619 636.266 89.2725 636.07C90.083 635.865 90.7568 635.611 91.2939 635.309C91.8408 634.996 92.3389 634.615 92.7881 634.166C94.2334 632.701 94.9561 630.851 94.9561 628.614C94.9561 626.417 94.2139 624.625 92.7295 623.238C92.1826 622.721 91.5527 622.296 90.8398 621.964C90.1367 621.632 89.4678 621.412 88.833 621.305C88.1982 621.197 87.1777 621.144 85.7715 621.144ZM112.769 632.496H103.291C103.359 633.785 103.789 634.811 104.58 635.572C105.381 636.334 106.411 636.715 107.671 636.715C109.429 636.715 111.05 636.168 112.534 635.074V637.682C111.714 638.229 110.898 638.619 110.088 638.854C109.287 639.088 108.345 639.205 107.261 639.205C105.776 639.205 104.575 638.897 103.657 638.282C102.739 637.667 102.002 636.842 101.445 635.807C100.898 634.762 100.625 633.556 100.625 632.188C100.625 630.138 101.206 628.473 102.368 627.193C103.53 625.904 105.039 625.26 106.895 625.26C108.682 625.26 110.107 625.885 111.172 627.135C112.236 628.385 112.769 630.06 112.769 632.159V632.496ZM103.35 630.899H110.132C110.063 629.835 109.746 629.015 109.18 628.438C108.613 627.862 107.852 627.574 106.895 627.574C105.938 627.574 105.151 627.862 104.536 628.438C103.931 629.015 103.535 629.835 103.35 630.899ZM123.447 625.523H126.333L120.386 639.234H119.492L113.398 625.523H116.313L119.946 633.814L123.447 625.523Z" fill="black"/>
<path d="M91.2559 558.536H100.279C103.766 558.536 106.52 559.493 108.541 561.407C110.572 563.312 111.588 565.777 111.588 568.805C111.588 571.979 110.558 574.474 108.497 576.29C106.446 578.097 103.517 579 99.708 579H91.2559V558.536ZM96.3535 562.286V575.25H99.6787C101.837 575.25 103.487 574.659 104.63 573.478C105.772 572.286 106.344 570.719 106.344 568.775C106.344 566.764 105.763 565.182 104.601 564.029C103.448 562.867 101.788 562.286 99.6201 562.286H96.3535ZM128.976 575.587V578.004C127.53 578.844 126.173 579.264 124.903 579.264C123.536 579.264 122.726 578.746 122.472 577.711C120.958 578.746 119.439 579.264 117.916 579.264C116.842 579.264 115.929 578.927 115.177 578.253C114.425 577.569 114.049 576.778 114.049 575.88C114.049 574.679 114.435 573.712 115.206 572.979C115.987 572.237 118.341 571.285 122.267 570.123C122.364 568.58 121.563 567.809 119.864 567.809C118.019 567.809 116.319 568.58 114.767 570.123V566.578C116.583 565.455 118.58 564.894 120.758 564.894C124.664 564.894 126.617 566.295 126.617 569.098V575.396C126.617 576.041 126.856 576.363 127.335 576.363C127.696 576.363 128.243 576.104 128.976 575.587ZM122.267 575.646V572.306C120.812 572.813 119.811 573.272 119.264 573.683C118.727 574.083 118.458 574.596 118.458 575.221C118.458 575.621 118.595 575.968 118.868 576.261C119.142 576.544 119.474 576.686 119.864 576.686C120.685 576.686 121.485 576.339 122.267 575.646ZM135.143 565.172V567.149C136.422 565.646 137.921 564.894 139.64 564.894C141.075 564.894 142.271 565.353 143.229 566.271C144.195 567.188 144.679 568.502 144.679 570.211V579H140.328V570.577C140.328 568.731 139.61 567.809 138.175 567.809C137.149 567.809 136.139 568.57 135.143 570.094V579H130.792V565.172H135.143ZM148.136 560.675C148.136 560.011 148.37 559.444 148.839 558.976C149.308 558.507 149.869 558.272 150.523 558.272C151.188 558.272 151.754 558.507 152.223 558.976C152.691 559.444 152.926 560.011 152.926 560.675C152.926 561.329 152.691 561.896 152.223 562.374C151.754 562.843 151.188 563.077 150.523 563.077C149.869 563.077 149.308 562.843 148.839 562.374C148.37 561.896 148.136 561.329 148.136 560.675ZM152.721 565.172V579H148.37V565.172H152.721ZM156.881 558.536H165.904C169.391 558.536 172.145 559.493 174.166 561.407C176.197 563.312 177.213 565.777 177.213 568.805C177.213 571.979 176.183 574.474 174.122 576.29C172.071 578.097 169.142 579 165.333 579H156.881V558.536ZM161.979 562.286V575.25H165.304C167.462 575.25 169.112 574.659 170.255 573.478C171.397 572.286 171.969 570.719 171.969 568.775C171.969 566.764 171.388 565.182 170.226 564.029C169.073 562.867 167.413 562.286 165.245 562.286H161.979ZM193.971 574.708V577.447C192.311 578.658 190.255 579.264 187.804 579.264C185.372 579.264 183.429 578.614 181.974 577.315C180.519 576.007 179.791 574.278 179.791 572.13C179.791 570.021 180.475 568.287 181.842 566.93C183.209 565.572 184.952 564.894 187.071 564.894C189.2 564.894 190.943 565.611 192.301 567.047C193.668 568.473 194.308 570.387 194.22 572.789H184.288C184.376 574.039 184.82 575.001 185.621 575.675C186.422 576.349 187.496 576.686 188.844 576.686C190.475 576.686 192.184 576.026 193.971 574.708ZM184.376 570.504H190.382C190.147 568.492 189.146 567.486 187.379 567.486C185.592 567.486 184.591 568.492 184.376 570.504ZM200.768 579.264L194.381 565.172H199.039L201.969 572.789L204.942 565.172H209.557L203.199 579.264H200.768Z" fill="black"/>
<path d="M31.9355 660.152V662.086C30.6465 662.789 29.1582 663.141 27.4707 663.141C26.0996 663.141 24.9365 662.865 23.9814 662.314C23.0264 661.764 22.2705 661.005 21.7139 660.038C21.1572 659.071 20.8789 658.025 20.8789 656.9C20.8789 655.113 21.5146 653.61 22.7861 652.392C24.0635 651.173 25.6367 650.563 27.5059 650.563C28.7949 650.563 30.2275 650.9 31.8037 651.574V653.464C30.3682 652.644 28.9648 652.233 27.5938 652.233C26.1875 652.233 25.0186 652.679 24.0869 653.569C23.1611 654.454 22.6982 655.564 22.6982 656.9C22.6982 658.248 23.1553 659.355 24.0693 660.223C24.9834 661.09 26.1523 661.523 27.5762 661.523C29.0645 661.523 30.5176 661.066 31.9355 660.152ZM34.0977 650.722H35.8555V661.4H41.3838V663H34.0977V650.722ZM42.9395 650.722H44.6973V663H42.9395V650.722ZM47.4219 650.722H54.3828V652.286H49.1797V656.03H54.207V657.604H49.1797V661.418H54.5498V662.982H47.4219V650.722ZM66.1777 650.722H67.8477V663H66.3359L58.127 653.552V663H56.4746V650.722H57.8984L66.1777 660.249V650.722ZM69.4385 650.704H79.6953V652.269H75.415V663H73.6484V652.269H69.4385V650.704Z" fill="black"/>
<path d="M482 588.497C481.999 597.23 478.951 605.689 473.381 612.416C467.811 619.142 460.069 623.715 451.489 625.344C451.421 625.357 451.352 625.369 451.283 625.382C450.204 625.58 449.108 625.73 447.996 625.833C447.927 625.84 447.859 625.846 447.79 625.851C446.708 625.946 445.612 625.993 444.503 625.994C444.434 625.994 444.366 625.994 444.298 625.993C443.19 625.988 442.094 625.934 441.01 625.833C440.941 625.828 440.874 625.82 440.805 625.813C439.694 625.705 438.598 625.549 437.517 625.344C437.448 625.331 437.38 625.318 437.312 625.305C430.335 623.942 423.889 620.624 418.725 615.738C413.562 610.852 409.893 604.599 408.148 597.707C406.402 590.816 406.652 583.57 408.867 576.815C411.082 570.06 415.172 564.074 420.659 559.554C426.146 555.035 432.805 552.168 439.859 551.288C446.914 550.409 454.073 551.552 460.502 554.586C466.931 557.619 472.366 562.418 476.172 568.422C479.978 574.426 481.999 581.388 482 588.497V588.497Z" stroke="black"/>
<path d="M444.819 576.64H444.503V623.516H444.819V576.64Z" fill="black"/>
<path d="M444.819 556.545H444.503V570.375H444.819V556.545Z" fill="black"/>
<path d="M428.535 571.818H428.219V618.716H428.535V571.818Z" fill="black"/>
<path d="M450.827 571.818H450.511V618.716H450.827V571.818Z" fill="black"/>
<path d="M433.91 566.6H433.594V610.132H433.91V566.6Z" fill="black"/>
<path d="M439.36 554.727H439.044V615.121H439.36V554.727Z" fill="black"/>
<path d="M455.412 556.956H455.096V566.354H455.412V556.956Z" fill="black"/>
<path d="M455.412 572.628H455.096V615.611H455.412V572.628Z" fill="black"/>
<path d="M460.787 565.968H460.471V571.501H460.787V565.968Z" fill="black"/>
<path d="M460.787 577.707H460.471V605.194H460.787V577.707Z" fill="black"/>
<path d="M460.787 610.811H460.471V615.611H460.787V610.811Z" fill="black"/>
<path d="M433.752 614.662C433.44 614.662 433.134 614.57 432.874 614.396C432.614 614.222 432.411 613.975 432.292 613.686C432.172 613.398 432.141 613.08 432.202 612.773C432.263 612.466 432.413 612.185 432.634 611.964C432.855 611.742 433.137 611.592 433.444 611.531C433.751 611.47 434.068 611.501 434.357 611.621C434.646 611.74 434.893 611.943 435.067 612.203C435.241 612.463 435.333 612.769 435.333 613.081C435.333 613.501 435.166 613.902 434.87 614.199C434.573 614.495 434.171 614.662 433.752 614.662Z" fill="black"/>
<path d="M444.503 574.821C444.19 574.821 443.885 574.729 443.625 574.555C443.365 574.381 443.162 574.134 443.042 573.845C442.923 573.557 442.891 573.239 442.952 572.932C443.013 572.625 443.164 572.344 443.385 572.122C443.606 571.901 443.888 571.751 444.195 571.69C444.501 571.629 444.819 571.66 445.108 571.78C445.397 571.899 445.644 572.102 445.818 572.362C445.991 572.622 446.084 572.928 446.084 573.24C446.084 573.66 445.917 574.061 445.62 574.358C445.324 574.654 444.922 574.821 444.503 574.821V574.821ZM444.503 571.976C444.253 571.976 444.008 572.05 443.8 572.189C443.592 572.328 443.43 572.525 443.335 572.756C443.239 572.987 443.214 573.242 443.263 573.487C443.311 573.732 443.432 573.958 443.609 574.135C443.786 574.312 444.011 574.432 444.256 574.481C444.502 574.53 444.756 574.505 444.987 574.409C445.218 574.313 445.416 574.151 445.555 573.943C445.694 573.735 445.768 573.491 445.768 573.24C445.767 572.905 445.634 572.584 445.397 572.346C445.16 572.109 444.838 571.976 444.503 571.976V571.976Z" fill="black"/>
<path d="M444.661 556.64C444.348 556.64 444.043 556.547 443.783 556.373C443.523 556.2 443.32 555.953 443.2 555.664C443.081 555.375 443.05 555.057 443.111 554.75C443.172 554.444 443.322 554.162 443.543 553.941C443.764 553.72 444.046 553.569 444.353 553.508C444.659 553.447 444.977 553.479 445.266 553.598C445.555 553.718 445.802 553.921 445.976 554.181C446.149 554.441 446.242 554.746 446.242 555.059C446.242 555.478 446.075 555.88 445.779 556.176C445.482 556.473 445.08 556.639 444.661 556.64ZM444.661 553.794C444.411 553.794 444.166 553.868 443.958 554.007C443.75 554.146 443.588 554.344 443.493 554.575C443.397 554.806 443.372 555.06 443.421 555.306C443.469 555.551 443.59 555.776 443.767 555.953C443.944 556.13 444.169 556.251 444.414 556.299C444.66 556.348 444.914 556.323 445.145 556.227C445.376 556.132 445.574 555.97 445.713 555.762C445.852 555.554 445.926 555.309 445.926 555.059C445.926 554.724 445.792 554.402 445.555 554.165C445.318 553.928 444.996 553.794 444.661 553.794V553.794Z" fill="black"/>
<path d="M460.629 609.603C460.317 609.603 460.011 609.511 459.751 609.337C459.491 609.163 459.288 608.916 459.169 608.627C459.049 608.338 459.018 608.021 459.079 607.714C459.14 607.407 459.29 607.125 459.511 606.904C459.732 606.683 460.014 606.533 460.321 606.472C460.627 606.411 460.945 606.442 461.234 606.562C461.523 606.681 461.77 606.884 461.944 607.144C462.117 607.404 462.21 607.71 462.21 608.022C462.21 608.441 462.043 608.843 461.747 609.14C461.45 609.436 461.048 609.603 460.629 609.603V609.603ZM460.629 606.757C460.379 606.757 460.135 606.832 459.927 606.971C459.719 607.11 459.556 607.307 459.461 607.538C459.365 607.769 459.34 608.024 459.389 608.269C459.438 608.514 459.558 608.74 459.735 608.917C459.912 609.093 460.137 609.214 460.382 609.263C460.628 609.312 460.882 609.286 461.113 609.191C461.344 609.095 461.542 608.933 461.681 608.725C461.82 608.517 461.894 608.272 461.894 608.022C461.894 607.687 461.76 607.365 461.523 607.128C461.286 606.891 460.965 606.758 460.629 606.757V606.757Z" fill="black"/>
<path d="M428.377 569.762C428.064 569.762 427.759 569.669 427.499 569.496C427.239 569.322 427.036 569.075 426.916 568.786C426.797 568.497 426.765 568.179 426.826 567.873C426.887 567.566 427.038 567.284 427.259 567.063C427.48 566.842 427.762 566.692 428.068 566.631C428.375 566.57 428.693 566.601 428.982 566.721C429.271 566.84 429.518 567.043 429.691 567.303C429.865 567.563 429.958 567.869 429.958 568.181C429.957 568.6 429.791 569.002 429.494 569.299C429.198 569.595 428.796 569.762 428.377 569.762V569.762Z" fill="black"/>
<path d="M460.629 576.244C460.317 576.244 460.011 576.152 459.751 575.978C459.491 575.804 459.288 575.557 459.169 575.268C459.049 574.979 459.018 574.662 459.079 574.355C459.14 574.048 459.29 573.766 459.511 573.545C459.732 573.324 460.014 573.174 460.321 573.113C460.627 573.052 460.945 573.083 461.234 573.203C461.523 573.322 461.77 573.525 461.944 573.785C462.117 574.045 462.21 574.351 462.21 574.663C462.21 575.082 462.043 575.484 461.747 575.781C461.45 576.077 461.048 576.244 460.629 576.244ZM460.629 573.398C460.379 573.398 460.135 573.473 459.927 573.612C459.719 573.751 459.556 573.948 459.461 574.179C459.365 574.41 459.34 574.665 459.389 574.91C459.438 575.155 459.558 575.381 459.735 575.558C459.912 575.734 460.137 575.855 460.382 575.904C460.628 575.953 460.882 575.927 461.113 575.832C461.344 575.736 461.542 575.574 461.681 575.366C461.82 575.158 461.894 574.913 461.894 574.663C461.894 574.328 461.76 574.006 461.523 573.769C461.286 573.532 460.965 573.399 460.629 573.398V573.398Z" fill="black"/>
<path d="M455.254 570.869C454.941 570.869 454.635 570.776 454.375 570.602C454.115 570.429 453.913 570.182 453.793 569.893C453.673 569.604 453.642 569.286 453.703 568.979C453.764 568.673 453.915 568.391 454.136 568.17C454.357 567.949 454.639 567.798 454.945 567.737C455.252 567.676 455.57 567.708 455.859 567.827C456.148 567.947 456.395 568.15 456.568 568.41C456.742 568.67 456.835 568.975 456.835 569.288C456.834 569.707 456.668 570.109 456.371 570.405C456.075 570.702 455.673 570.868 455.254 570.869V570.869Z" fill="black"/>
<path d="M347.852 651.629H350.195V668H347.852V651.629ZM359.324 658.473H359.465C360.488 658.473 361.266 658.262 361.797 657.84C362.336 657.418 362.605 656.805 362.605 656C362.605 655.273 362.344 654.684 361.82 654.23C361.305 653.777 360.625 653.551 359.781 653.551C358.93 653.551 357.984 653.816 356.945 654.348V652.109C357.898 651.633 358.938 651.395 360.062 651.395C361.57 651.395 362.758 651.789 363.625 652.578C364.5 653.367 364.938 654.445 364.938 655.812C364.938 656.641 364.77 657.34 364.434 657.91C364.098 658.473 363.562 658.957 362.828 659.363C363.469 659.613 363.938 659.922 364.234 660.289C364.531 660.648 364.762 661.086 364.926 661.602C365.09 662.117 365.172 662.664 365.172 663.242C365.172 664.672 364.695 665.855 363.742 666.793C362.789 667.723 361.586 668.188 360.133 668.188C358.891 668.188 357.691 667.887 356.535 667.285V664.73C357.77 665.504 358.969 665.891 360.133 665.891C360.922 665.891 361.555 665.656 362.031 665.188C362.516 664.719 362.758 664.098 362.758 663.324C362.758 662.676 362.559 662.109 362.16 661.625C361.926 661.352 361.664 661.152 361.375 661.027C361.094 660.895 360.48 660.77 359.535 660.652L359.324 660.629V658.473ZM375.508 651.629H384.238V653.715H377.852V658.285H384.238V660.371H377.852V668H375.508V651.629ZM395.277 662.797H387.695C387.75 663.828 388.094 664.648 388.727 665.258C389.367 665.867 390.191 666.172 391.199 666.172C392.605 666.172 393.902 665.734 395.09 664.859V666.945C394.434 667.383 393.781 667.695 393.133 667.883C392.492 668.07 391.738 668.164 390.871 668.164C389.684 668.164 388.723 667.918 387.988 667.426C387.254 666.934 386.664 666.273 386.219 665.445C385.781 664.609 385.562 663.645 385.562 662.551C385.562 660.91 386.027 659.578 386.957 658.555C387.887 657.523 389.094 657.008 390.578 657.008C392.008 657.008 393.148 657.508 394 658.508C394.852 659.508 395.277 660.848 395.277 662.527V662.797ZM387.742 661.52H393.168C393.113 660.668 392.859 660.012 392.406 659.551C391.953 659.09 391.344 658.859 390.578 658.859C389.812 658.859 389.184 659.09 388.691 659.551C388.207 660.012 387.891 660.668 387.742 661.52ZM397.504 651.629H399.637V657.992C400.559 657.32 401.543 656.984 402.59 656.984C403.957 656.984 405.074 657.5 405.941 658.531C406.809 659.562 407.242 660.887 407.242 662.504C407.242 664.238 406.723 665.621 405.684 666.652C404.652 667.676 403.27 668.188 401.535 668.188C400.84 668.188 400.105 668.113 399.332 667.965C398.566 667.816 397.957 667.629 397.504 667.402V651.629ZM399.637 660.031V665.867C400.363 666.086 401.109 666.195 401.875 666.195C402.82 666.195 403.59 665.859 404.184 665.188C404.785 664.516 405.086 663.652 405.086 662.598C405.086 661.527 404.805 660.656 404.242 659.984C403.688 659.312 402.961 658.977 402.062 658.977C401.266 658.977 400.457 659.328 399.637 660.031ZM409.023 670.836V670.402C409.375 670.066 409.621 669.727 409.762 669.383C409.902 669.047 409.984 668.586 410.008 668C409.18 667.758 408.766 667.246 408.766 666.465C408.766 666.043 408.906 665.68 409.188 665.375C409.477 665.062 409.816 664.906 410.207 664.906C410.684 664.906 411.074 665.117 411.379 665.539C411.684 665.961 411.836 666.5 411.836 667.156C411.836 668.023 411.586 668.785 411.086 669.441C410.586 670.098 409.898 670.562 409.023 670.836ZM422.336 665.738H428.57V668H418.211V667.836L419.195 666.676C420.734 664.77 421.957 663.152 422.863 661.824C423.777 660.496 424.371 659.492 424.645 658.812C424.926 658.133 425.066 657.461 425.066 656.797C425.066 655.875 424.805 655.137 424.281 654.582C423.758 654.02 423.062 653.738 422.195 653.738C421.539 653.738 420.891 653.934 420.25 654.324C419.617 654.707 419.047 655.25 418.539 655.953V652.977C419.812 651.938 421.125 651.418 422.477 651.418C423.906 651.418 425.082 651.895 426.004 652.848C426.934 653.801 427.398 655.012 427.398 656.48C427.398 657.137 427.281 657.84 427.047 658.59C426.82 659.332 426.414 660.191 425.828 661.168C425.242 662.137 424.246 663.461 422.84 665.141L422.336 665.738ZM435.484 651.418C436.984 651.418 438.223 652.207 439.199 653.785C440.184 655.355 440.676 657.352 440.676 659.773C440.676 662.258 440.184 664.277 439.199 665.832C438.223 667.387 436.953 668.164 435.391 668.164C433.805 668.164 432.531 667.402 431.57 665.879C430.609 664.355 430.129 662.336 430.129 659.82C430.129 657.336 430.625 655.316 431.617 653.762C432.609 652.199 433.898 651.418 435.484 651.418ZM435.508 653.645H435.391C434.492 653.645 433.777 654.199 433.246 655.309C432.723 656.41 432.461 657.906 432.461 659.797C432.461 661.734 432.719 663.254 433.234 664.355C433.75 665.457 434.461 666.008 435.367 666.008C436.273 666.008 436.988 665.457 437.512 664.355C438.035 663.254 438.297 661.758 438.297 659.867C438.297 657.969 438.043 656.457 437.535 655.332C437.035 654.207 436.359 653.645 435.508 653.645ZM446.336 665.738H452.57V668H442.211V667.836L443.195 666.676C444.734 664.77 445.957 663.152 446.863 661.824C447.777 660.496 448.371 659.492 448.645 658.812C448.926 658.133 449.066 657.461 449.066 656.797C449.066 655.875 448.805 655.137 448.281 654.582C447.758 654.02 447.062 653.738 446.195 653.738C445.539 653.738 444.891 653.934 444.25 654.324C443.617 654.707 443.047 655.25 442.539 655.953V652.977C443.812 651.938 445.125 651.418 446.477 651.418C447.906 651.418 449.082 651.895 450.004 652.848C450.934 653.801 451.398 655.012 451.398 656.48C451.398 657.137 451.281 657.84 451.047 658.59C450.82 659.332 450.414 660.191 449.828 661.168C449.242 662.137 448.246 663.461 446.84 665.141L446.336 665.738ZM458.242 651.629H460.586V668H458.242V651.629Z" fill="black"/>
<rect x="77" y="145" width="343" height="250" fill="#1E1E1E"/>
<path d="M131.371 267V195.906H154.271C160.554 195.906 166.202 197.339 171.215 200.203C176.228 203.035 180.134 207.055 182.934 212.264C185.766 217.439 187.198 223.25 187.23 229.695V232.967C187.23 239.477 185.847 245.32 183.08 250.496C180.346 255.639 176.472 259.676 171.459 262.605C166.479 265.503 160.912 266.967 154.76 267H131.371ZM148.51 209.139V253.816H154.467C159.382 253.816 163.158 252.075 165.795 248.592C168.432 245.076 169.75 239.868 169.75 232.967V229.891C169.75 223.022 168.432 217.846 165.795 214.363C163.158 210.88 159.317 209.139 154.271 209.139H148.51ZM240.326 253.719H216.84L212.738 267H194.428L220.502 195.906H236.615L262.885 267H244.477L240.326 253.719ZM220.941 240.486H236.225L228.559 215.828L220.941 240.486ZM332.484 267H315.443L290.248 222.762V267H273.109V195.906H290.248L315.395 240.145V195.906H332.484V267ZM366.586 267H349.496V195.906H366.586V267Z" fill="white"/>
<path d="M180.324 350V296.68H195.083C199.208 296.68 202.944 297.656 206.289 299.609C209.633 301.562 212.258 304.309 214.162 307.849C216.066 311.365 217.043 315.308 217.092 319.678V326.599C217.092 331.042 216.152 335.046 214.272 338.611C212.417 342.175 209.816 344.958 206.472 346.96C203.127 348.962 199.392 349.976 195.266 350H180.324ZM182.302 298.657V348.022H195.083C198.818 348.022 202.211 347.119 205.263 345.312C208.339 343.481 210.744 340.942 212.478 337.695C214.211 334.424 215.09 330.798 215.114 326.819V319.971C215.114 315.991 214.26 312.378 212.551 309.131C210.866 305.884 208.498 303.345 205.446 301.514C202.419 299.658 199.062 298.706 195.375 298.657H182.302ZM261.857 323.56H235.124V348.022H265.593V350H233.146V296.68H265.593V298.657H235.124V321.582H261.857V323.56ZM293.623 344.8L294.685 348.022L295.747 344.8L313.654 296.68H315.815L295.893 350H293.476L273.554 296.68H275.715L293.623 344.8Z" fill="white"/>
<rect x="589.266" y="547" width="177" height="361" transform="rotate(45 589.266 547)" fill="#FF7D7D"/>
<rect x="282" y="-59.842" width="177" height="361" transform="rotate(-45 282 -59.842)" fill="#FF7D7D"/>
</g>
<defs>
<clipPath id="clip0">
<rect width="494" height="700" fill="white"/>
</clipPath>
</defs>
</svg>
