<svg width="494" height="700" viewBox="0 0 494 700" fill="none" xmlns="http://www.w3.org/2000/svg">
<rect width="494" height="700" fill="black" fill-opacity="0.6"/>
<g style="mix-blend-mode:hard-light">
<path d="M197 350.597C197 341.15 199.129 332.675 203.386 325.173C207.644 317.579 213.428 311.651 220.74 307.391C228.144 303.13 236.335 301 245.313 301C255.864 301 265.074 303.547 272.941 308.641C280.808 313.735 286.546 320.959 290.156 330.314H275.023C272.339 324.479 268.452 319.987 263.361 316.838C258.363 313.689 252.347 312.114 245.313 312.114C238.557 312.114 232.494 313.689 227.126 316.838C221.758 319.987 217.547 324.479 214.493 330.314C211.438 336.056 209.911 342.817 209.911 350.597C209.911 358.284 211.438 365.046 214.493 370.881C217.547 376.623 221.758 381.069 227.126 384.218C232.494 387.367 238.557 388.941 245.313 388.941C252.347 388.941 258.363 387.413 263.361 384.356C268.452 381.207 272.339 376.715 275.023 370.881H290.156C286.546 380.142 280.808 387.32 272.941 392.414C265.074 397.416 255.864 399.916 245.313 399.916C236.335 399.916 228.144 397.832 220.74 393.665C213.428 389.404 207.644 383.523 203.386 376.021C199.129 368.519 197 360.044 197 350.597Z" fill="white" fill-opacity="0.9"/>
<path d="M290.773 349.878C291.916 350.059 292.954 350.525 293.887 351.278C294.849 352.03 295.601 352.964 296.143 354.077C296.714 355.191 297 356.38 297 357.644C297 359.24 296.594 360.684 295.782 361.979C294.97 363.243 293.781 364.251 292.217 365.004C290.683 365.726 288.863 366.088 286.758 366.088H275.027V334.617H286.307C288.442 334.617 290.262 334.978 291.766 335.701C293.27 336.393 294.398 337.341 295.15 338.545C295.902 339.749 296.278 341.104 296.278 342.609C296.278 344.475 295.767 346.025 294.744 347.259C293.751 348.463 292.428 349.336 290.773 349.878ZM279.132 348.208H286.036C287.961 348.208 289.45 347.756 290.503 346.853C291.556 345.95 292.082 344.701 292.082 343.105C292.082 341.51 291.556 340.261 290.503 339.358C289.45 338.455 287.931 338.003 285.946 338.003H279.132V348.208ZM286.397 362.701C288.442 362.701 290.036 362.22 291.18 361.256C292.323 360.293 292.894 358.954 292.894 357.238C292.894 355.492 292.292 354.122 291.089 353.129C289.886 352.106 288.277 351.594 286.261 351.594H279.132V362.701H286.397Z" fill="white" fill-opacity="0.9"/>
<path d="M252.81 350.806C252.81 354.642 249.702 357.752 245.868 357.752C242.035 357.752 238.927 354.642 238.927 350.806C238.927 346.969 242.035 343.859 245.868 343.859C249.702 343.859 252.81 346.969 252.81 350.806Z" fill="white" fill-opacity="0.9"/>
</g>
<path d="M133.357 479.76V484.228C130.799 485.585 128.118 486.264 125.315 486.264C121.683 486.264 118.787 485.263 116.629 483.261C114.48 481.249 113.406 478.773 113.406 475.834C113.406 472.895 114.539 470.399 116.805 468.349C119.08 466.298 122.049 465.272 125.711 465.272C128.631 465.272 131.102 465.873 133.123 467.074V471.63C130.643 470.233 128.294 469.535 126.077 469.535C123.899 469.535 122.117 470.121 120.73 471.293C119.354 472.455 118.665 473.939 118.665 475.746C118.665 477.562 119.344 479.062 120.701 480.243C122.068 481.425 123.816 482.016 125.945 482.016C127 482.016 128.016 481.879 128.992 481.605C129.969 481.322 131.424 480.707 133.357 479.76ZM141.385 465.536V486H137.034V465.536H141.385ZM144.944 467.675C144.944 467.011 145.179 466.444 145.647 465.976C146.116 465.507 146.678 465.272 147.332 465.272C147.996 465.272 148.562 465.507 149.031 465.976C149.5 466.444 149.734 467.011 149.734 467.675C149.734 468.329 149.5 468.896 149.031 469.374C148.562 469.843 147.996 470.077 147.332 470.077C146.678 470.077 146.116 469.843 145.647 469.374C145.179 468.896 144.944 468.329 144.944 467.675ZM149.529 472.172V486H145.179V472.172H149.529ZM165.32 482.221V485.341C163.621 485.956 162.063 486.264 160.647 486.264C158.216 486.264 156.272 485.614 154.817 484.315C153.362 483.007 152.635 481.278 152.635 479.13C152.635 477.03 153.367 475.302 154.832 473.944C156.307 472.577 158.182 471.894 160.457 471.894C161.922 471.894 163.475 472.196 165.115 472.802V476.039C163.914 475.424 162.732 475.116 161.57 475.116C160.271 475.116 159.231 475.478 158.45 476.2C157.669 476.923 157.278 477.89 157.278 479.101C157.278 480.321 157.659 481.308 158.421 482.06C159.183 482.802 160.184 483.173 161.424 483.173C162.342 483.173 163.641 482.855 165.32 482.221ZM172.674 465.536V479.013H172.732L178.108 472.172H183.206L177.801 479.013L183.44 486H178.108L172.732 479.188H172.674V486H168.323V465.536H172.674ZM203.069 472.172V475.146H198.03V480.844C198.03 481.527 198.216 482.069 198.587 482.47C198.968 482.86 199.49 483.056 200.154 483.056C201.053 483.056 202.024 482.787 203.069 482.25V485.399C201.683 485.976 200.34 486.264 199.041 486.264C197.342 486.264 196.023 485.824 195.086 484.945C194.148 484.066 193.68 482.777 193.68 481.078V475.146H191.702V474.296L197.488 467.821H198.03V472.172H203.069ZM212.459 471.894C214.627 471.894 216.463 472.528 217.967 473.798C219.48 475.067 220.237 476.835 220.237 479.101C220.237 481.376 219.471 483.139 217.938 484.389C216.404 485.639 214.578 486.264 212.459 486.264C210.164 486.264 208.284 485.6 206.819 484.271C205.364 482.934 204.637 481.2 204.637 479.071C204.637 476.903 205.379 475.165 206.863 473.856C208.357 472.548 210.223 471.894 212.459 471.894ZM212.459 483.686C214.539 483.686 215.579 482.118 215.579 478.983C215.579 475.985 214.539 474.486 212.459 474.486C211.463 474.486 210.682 474.882 210.115 475.673C209.559 476.464 209.28 477.597 209.28 479.071C209.28 482.147 210.34 483.686 212.459 483.686ZM246.78 465.536L237.317 486.264H235.105L225.203 465.536H230.755L236.16 477.211L241.287 465.536H246.78ZM248.45 467.675C248.45 467.011 248.685 466.444 249.153 465.976C249.622 465.507 250.184 465.272 250.838 465.272C251.502 465.272 252.068 465.507 252.537 465.976C253.006 466.444 253.24 467.011 253.24 467.675C253.24 468.329 253.006 468.896 252.537 469.374C252.068 469.843 251.502 470.077 250.838 470.077C250.184 470.077 249.622 469.843 249.153 469.374C248.685 468.896 248.45 468.329 248.45 467.675ZM253.035 472.172V486H248.685V472.172H253.035ZM270.232 481.708V484.447C268.572 485.658 266.517 486.264 264.065 486.264C261.634 486.264 259.69 485.614 258.235 484.315C256.78 483.007 256.053 481.278 256.053 479.13C256.053 477.021 256.736 475.287 258.104 473.93C259.471 472.572 261.214 471.894 263.333 471.894C265.462 471.894 267.205 472.611 268.562 474.047C269.93 475.473 270.569 477.387 270.481 479.789H260.55C260.638 481.039 261.082 482.001 261.883 482.675C262.684 483.349 263.758 483.686 265.105 483.686C266.736 483.686 268.445 483.026 270.232 481.708ZM260.638 477.504H266.644C266.409 475.492 265.408 474.486 263.641 474.486C261.854 474.486 260.853 475.492 260.638 477.504ZM282.757 478.734L279.271 486.264H277.234L270.994 472.172H275.433L278.348 479.789L281.438 472.172H284.075L287.137 479.789L290.037 472.172H294.49L288.279 486.264H286.199L282.757 478.734ZM305.301 465.536H314.427C316.497 465.536 318.143 466.137 319.363 467.338C320.584 468.539 321.194 469.96 321.194 471.601C321.194 473.3 320.589 474.755 319.378 475.966C318.177 477.177 316.536 477.782 314.456 477.782H310.398V486H305.301V465.536ZM310.398 469.286V474.032H312.771C314.891 474.032 315.95 473.241 315.95 471.659C315.95 470.771 315.667 470.155 315.101 469.813C314.534 469.462 313.567 469.286 312.2 469.286H310.398ZM328.768 472.172V476.127H328.826C330.086 473.305 331.556 471.894 333.235 471.894C334.036 471.894 334.998 472.313 336.121 473.153L334.92 477.006C333.846 476.322 332.986 475.98 332.342 475.98C331.336 475.98 330.486 476.605 329.793 477.855C329.109 479.096 328.768 479.818 328.768 480.023V486H324.417V472.172H328.768ZM344.119 471.894C346.287 471.894 348.123 472.528 349.627 473.798C351.141 475.067 351.897 476.835 351.897 479.101C351.897 481.376 351.131 483.139 349.598 484.389C348.064 485.639 346.238 486.264 344.119 486.264C341.824 486.264 339.944 485.6 338.479 484.271C337.024 482.934 336.297 481.2 336.297 479.071C336.297 476.903 337.039 475.165 338.523 473.856C340.018 472.548 341.883 471.894 344.119 471.894ZM344.119 483.686C346.199 483.686 347.239 482.118 347.239 478.983C347.239 475.985 346.199 474.486 344.119 474.486C343.123 474.486 342.342 474.882 341.775 475.673C341.219 476.464 340.94 477.597 340.94 479.071C340.94 482.147 342 483.686 344.119 483.686ZM354.769 467.675C354.769 467.011 355.003 466.444 355.472 465.976C355.94 465.507 356.507 465.272 357.171 465.272C357.825 465.272 358.387 465.507 358.855 465.976C359.324 466.444 359.559 467.011 359.559 467.675C359.559 468.329 359.324 468.896 358.855 469.374C358.387 469.843 357.825 470.077 357.171 470.077C356.507 470.077 355.94 469.843 355.472 469.374C355.003 468.896 354.769 468.329 354.769 467.675ZM359.354 472.172V486.396C359.354 488.29 358.88 489.804 357.933 490.937C356.995 492.069 355.73 492.724 354.139 492.899L352.762 488.974C354.256 488.749 355.003 487.538 355.003 485.341V472.172H359.354ZM376.463 481.708V484.447C374.803 485.658 372.747 486.264 370.296 486.264C367.864 486.264 365.921 485.614 364.466 484.315C363.011 483.007 362.283 481.278 362.283 479.13C362.283 477.021 362.967 475.287 364.334 473.93C365.701 472.572 367.444 471.894 369.563 471.894C371.692 471.894 373.436 472.611 374.793 474.047C376.16 475.473 376.8 477.387 376.712 479.789H366.78C366.868 481.039 367.312 482.001 368.113 482.675C368.914 483.349 369.988 483.686 371.336 483.686C372.967 483.686 374.676 483.026 376.463 481.708ZM366.868 477.504H372.874C372.64 475.492 371.639 474.486 369.871 474.486C368.084 474.486 367.083 475.492 366.868 477.504ZM391.609 482.221V485.341C389.91 485.956 388.353 486.264 386.937 486.264C384.505 486.264 382.562 485.614 381.106 484.315C379.651 483.007 378.924 481.278 378.924 479.13C378.924 477.03 379.656 475.302 381.121 473.944C382.596 472.577 384.471 471.894 386.746 471.894C388.211 471.894 389.764 472.196 391.404 472.802V476.039C390.203 475.424 389.021 475.116 387.859 475.116C386.561 475.116 385.521 475.478 384.739 476.2C383.958 476.923 383.567 477.89 383.567 479.101C383.567 480.321 383.948 481.308 384.71 482.06C385.472 482.802 386.473 483.173 387.713 483.173C388.631 483.173 389.93 482.855 391.609 482.221ZM404.456 472.172V475.146H399.417V480.844C399.417 481.527 399.603 482.069 399.974 482.47C400.354 482.86 400.877 483.056 401.541 483.056C402.439 483.056 403.411 482.787 404.456 482.25V485.399C403.069 485.976 401.727 486.264 400.428 486.264C398.729 486.264 397.41 485.824 396.473 484.945C395.535 484.066 395.066 482.777 395.066 481.078V475.146H393.089V474.296L398.875 467.821H399.417V472.172H404.456Z" fill="white" fill-opacity="0.9"/>
</svg>
