<svg width="1920" height="1080" viewBox="0 0 1920 1080" fill="none" xmlns="http://www.w3.org/2000/svg">
<path d="M372.24 388H191.3C185.799 388 181.34 392.459 181.34 397.96V399.73C181.34 405.231 185.799 409.69 191.3 409.69H372.24C377.741 409.69 382.2 405.231 382.2 399.73V397.96C382.2 392.459 377.741 388 372.24 388Z" fill="#F2F2F2"/>
<path d="M417.23 406.48H236.29C230.789 406.48 226.33 410.939 226.33 416.44V418.21C226.33 423.711 230.789 428.17 236.29 428.17H417.23C422.731 428.17 427.19 423.711 427.19 418.21V416.44C427.19 410.939 422.731 406.48 417.23 406.48Z" fill="#F2F2F2"/>
<path d="M340.9 422.54H159.96C154.459 422.54 150 426.999 150 432.5V434.27C150 439.771 154.459 444.23 159.96 444.23H340.9C346.401 444.23 350.86 439.771 350.86 434.27V432.5C350.86 426.999 346.401 422.54 340.9 422.54Z" fill="#F2F2F2"/>
<path d="M763.099 519H634.38C630.467 519 627.295 523.459 627.295 528.96V530.73C627.295 536.231 630.467 540.69 634.38 540.69H763.099C767.012 540.69 770.185 536.231 770.185 530.73V528.96C770.185 523.459 767.012 519 763.099 519Z" fill="#F2F2F2"/>
<path d="M795.105 537.48H666.386C662.473 537.48 659.3 541.939 659.3 547.44V549.21C659.3 554.71 662.473 559.17 666.386 559.17H795.105C799.018 559.17 802.19 554.71 802.19 549.21V547.44C802.19 541.939 799.018 537.48 795.105 537.48Z" fill="#F2F2F2"/>
<path d="M740.804 553.55H612.085C608.172 553.55 605 558.009 605 563.51V565.28C605 570.781 608.172 575.24 612.085 575.24H740.804C744.717 575.24 747.89 570.781 747.89 565.28V563.51C747.89 558.009 744.717 553.55 740.804 553.55Z" fill="#F2F2F2"/>
</svg>
