<svg width="1920" height="1080" viewBox="0 0 1920 1080" fill="none" xmlns="http://www.w3.org/2000/svg">
<path d="M476.24 394H295.3C289.799 394 285.34 398.459 285.34 403.96V405.73C285.34 411.231 289.799 415.69 295.3 415.69H476.24C481.741 415.69 486.2 411.231 486.2 405.73V403.96C486.2 398.459 481.741 394 476.24 394Z" fill="#6D6B6B"/>
<path d="M521.23 412.48H340.29C334.789 412.48 330.33 416.939 330.33 422.44V424.21C330.33 429.711 334.789 434.17 340.29 434.17H521.23C526.731 434.17 531.19 429.711 531.19 424.21V422.44C531.19 416.939 526.731 412.48 521.23 412.48Z" fill="#6D6B6B"/>
<path d="M444.9 428.54H263.96C258.459 428.54 254 432.999 254 438.5V440.27C254 445.771 258.459 450.23 263.96 450.23H444.9C450.401 450.23 454.86 445.771 454.86 440.27V438.5C454.86 432.999 450.401 428.54 444.9 428.54Z" fill="#6D6B6B"/>
<path d="M867.099 525H738.38C734.467 525 731.295 529.459 731.295 534.96V536.73C731.295 542.231 734.467 546.69 738.38 546.69H867.099C871.012 546.69 874.185 542.231 874.185 536.73V534.96C874.185 529.459 871.012 525 867.099 525Z" fill="#6D6B6B"/>
<path d="M899.105 543.48H770.386C766.473 543.48 763.3 547.939 763.3 553.44V555.21C763.3 560.71 766.473 565.17 770.386 565.17H899.105C903.018 565.17 906.19 560.71 906.19 555.21V553.44C906.19 547.939 903.018 543.48 899.105 543.48Z" fill="#6D6B6B"/>
<path d="M844.804 559.55H716.085C712.172 559.55 709 564.009 709 569.51V571.28C709 576.781 712.172 581.24 716.085 581.24H844.804C848.717 581.24 851.89 576.781 851.89 571.28V569.51C851.89 564.009 848.717 559.55 844.804 559.55Z" fill="#6D6B6B"/>
</svg>
