<svg width="1920" height="1080" viewBox="0 0 1920 1080" fill="none" xmlns="http://www.w3.org/2000/svg">
<path d="M247.23 872H66.29C60.7892 872 56.33 876.459 56.33 881.96V883.73C56.33 889.231 60.7892 893.69 66.29 893.69H247.23C252.731 893.69 257.19 889.231 257.19 883.73V881.96C257.19 876.459 252.731 872 247.23 872Z" fill="#5B5B5B"/>
<path d="M292.23 890.48H111.29C105.789 890.48 101.33 894.939 101.33 900.44V902.21C101.33 907.711 105.789 912.17 111.29 912.17H292.23C297.731 912.17 302.19 907.711 302.19 902.21V900.44C302.19 894.939 297.731 890.48 292.23 890.48Z" fill="#5B5B5B"/>
<path d="M215.9 906.55H34.96C29.4592 906.55 25 911.009 25 916.51V918.28C25 923.781 29.4592 928.24 34.96 928.24H215.9C221.401 928.24 225.86 923.781 225.86 918.28V916.51C225.86 911.009 221.401 906.55 215.9 906.55Z" fill="#5B5B5B"/>
<path d="M1069.3 745H945.06C936.743 745 930 751.743 930 760.06C930 768.377 936.743 775.12 945.06 775.12H1069.3C1077.62 775.12 1084.36 768.377 1084.36 760.06C1084.36 751.743 1077.62 745 1069.3 745Z" fill="#5B5B5B"/>
<path d="M1033.3 765.12H909.06C900.743 765.12 894 771.863 894 780.18C894 788.498 900.743 795.24 909.06 795.24H1033.3C1041.62 795.24 1048.36 788.498 1048.36 780.18C1048.36 771.863 1041.62 765.12 1033.3 765.12Z" fill="#5B5B5B"/>
<path d="M1069.3 789H945.06C936.743 789 930 795.743 930 804.06C930 812.377 936.743 819.12 945.06 819.12H1069.3C1077.62 819.12 1084.36 812.377 1084.36 804.06C1084.36 795.743 1077.62 789 1069.3 789Z" fill="#5B5B5B"/>
</svg>
