<svg width="1920" height="1080" viewBox="0 0 1920 1080" fill="none" xmlns="http://www.w3.org/2000/svg">
<path d="M454.23 939H273.29C267.789 939 263.33 943.459 263.33 948.96V950.73C263.33 956.231 267.789 960.69 273.29 960.69H454.23C459.731 960.69 464.19 956.231 464.19 950.73V948.96C464.19 943.459 459.731 939 454.23 939Z" fill="#F2F2F2"/>
<path d="M499.23 957.48H318.29C312.789 957.48 308.33 961.939 308.33 967.44V969.21C308.33 974.711 312.789 979.17 318.29 979.17H499.23C504.731 979.17 509.19 974.711 509.19 969.21V967.44C509.19 961.939 504.731 957.48 499.23 957.48Z" fill="#F2F2F2"/>
<path d="M422.9 973.55H241.96C236.459 973.55 232 978.009 232 983.51V985.28C232 990.781 236.459 995.24 241.96 995.24H422.9C428.401 995.24 432.86 990.781 432.86 985.28V983.51C432.86 978.009 428.401 973.55 422.9 973.55Z" fill="#F2F2F2"/>
<path d="M1276.3 812H1152.06C1143.74 812 1137 818.743 1137 827.06C1137 835.377 1143.74 842.12 1152.06 842.12H1276.3C1284.62 842.12 1291.36 835.377 1291.36 827.06C1291.36 818.743 1284.62 812 1276.3 812Z" fill="#F2F2F2"/>
<path d="M1240.3 832.12H1116.06C1107.74 832.12 1101 838.863 1101 847.18C1101 855.498 1107.74 862.24 1116.06 862.24H1240.3C1248.62 862.24 1255.36 855.498 1255.36 847.18C1255.36 838.863 1248.62 832.12 1240.3 832.12Z" fill="#F2F2F2"/>
<path d="M1276.3 856H1152.06C1143.74 856 1137 862.743 1137 871.06C1137 879.377 1143.74 886.12 1152.06 886.12H1276.3C1284.62 886.12 1291.36 879.377 1291.36 871.06C1291.36 862.743 1284.62 856 1276.3 856Z" fill="#F2F2F2"/>
</svg>
