<svg width="162" height="323" viewBox="0 0 162 323" fill="none" xmlns="http://www.w3.org/2000/svg">
<path d="M97 178L126.984 195.5L161.5 215C149.589 221.834 142.911 225.666 131 232.5L97.9837 213L67 195.5L97 178Z" fill="#69BF5A"/>
<path d="M98.2296 212.565L68.0043 195.493L96.9999 178.579L126.732 195.932L126.732 195.932L126.738 195.935L160.489 215.003L146.001 223.316L131.004 231.921L98.238 212.569L98.2381 212.569L98.2296 212.565Z" stroke="black" stroke-opacity="0.25"/>
<path d="M68 195L98.4837 212.5L132 232L132.5 280.5L130.5 281.5L98.4837 262.5L67 244V195.5L68 195Z" fill="#69BF5A"/>
<path d="M98.7389 262.07L98.7371 262.069L67.5 243.714V195.809L67.9837 195.567L98.2323 212.932L98.2348 212.934L131.503 232.289L131.997 280.193L130.52 280.931L98.7389 262.07Z" stroke="black" stroke-opacity="0.25"/>
<path d="M129.869 231.656L160.5 214.5L161.5 215V215.5V265L131.5 281H129.869V231.656Z" fill="#69BF5A"/>
<path d="M130.369 280.5V231.949L160.513 215.066L161 215.309V215.5V264.7L131.375 280.5H130.369Z" stroke="black" stroke-opacity="0.25"/>
<path d="M69 229L98 245.751V263.47L69 246.407V229Z" fill="#272727"/>
<path d="M100 247.23L130.5 264.845L130.552 282.751H130.5L100 264.637V247.23Z" fill="#272727"/>
<path d="M130.5 264.845L139.964 259.866V277.751L130.552 282.751L130.5 264.845Z" fill="#272727"/>
<path d="M131.001 265.146L139.464 260.694V277.451L131.049 281.921L131.001 265.146ZM130.001 265.134L130.049 281.902L100.5 264.352V248.096L130.001 265.134ZM97.5 246.04V262.595L69.5 246.121V229.866L97.5 246.04Z" stroke="black" stroke-opacity="0.25"/>
<path d="M93.9112 119C117.657 108.662 109.254 111.02 130.754 99.5C130.754 191.078 130.754 140.922 130.754 232.5L93.9112 256L29.5 219C29.5 127.422 29.5 177.578 29.5 86C47.5 96.2571 76.6573 109.168 93.9112 119Z" fill="#69BF5A"/>
<path d="M93.6636 119.434L93.8812 119.558L94.1108 119.458C105.989 114.287 109.849 112.282 113.433 110.121C114.198 109.66 114.949 109.193 115.763 108.686C118.653 106.888 122.334 104.598 130.254 100.336V100.567V101.095V101.621V102.143V102.662V103.177V103.69V104.199V104.706V105.209V105.709V106.206V106.7V107.191V107.679V108.164V108.645V109.124V109.6V110.073V110.542V111.009V111.473V111.934V112.392V112.847V113.299V113.748V114.195V114.638V115.079V115.517V115.952V116.384V116.814V117.24V117.664V118.085V118.504V118.919V119.332V119.742V120.15V120.554V120.957V121.356V121.753V122.147V122.538V122.927V123.314V123.697V124.079V124.457V124.833V125.207V125.578V125.946V126.312V126.676V127.037V127.395V127.752V128.105V128.457V128.805V129.152V129.496V129.838V130.177V130.514V130.849V131.181V131.511V131.839V132.165V132.488V132.809V133.128V133.444V133.758V134.07V134.38V134.688V134.994V135.297V135.598V135.897V136.194V136.489V136.782V137.073V137.361V137.648V137.933V138.215V138.496V138.774V139.051V139.325V139.598V139.869V140.137V140.404V140.669V140.932V141.193V141.452V141.71V141.965V142.219V142.471V142.721V142.969V143.215V143.46V143.703V143.944V144.183V144.421V144.657V144.891V145.124V145.355V145.584V145.812V146.038V146.262V146.485V146.706V146.925V147.143V147.36V147.575V147.788V148V148.21V148.419V148.626V148.832V149.037V149.24V149.441V149.641V149.84V150.037V150.233V150.428V150.621V150.813V151.004V151.193V151.381V151.567V151.753V151.937V152.12V152.301V152.481V152.661V152.839V153.015V153.191V153.365V153.539V153.711V153.882V154.051V154.22V154.388V154.555V154.72V154.885V155.048V155.21V155.372V155.532V155.692V155.85V156.007V156.164V156.32V156.474V156.628V156.781V156.933V157.084V157.234V157.383V157.532V157.68V157.827V157.973V158.118V158.263V158.406V158.549V158.692V158.833V158.974V159.114V159.254V159.393V159.531V159.668V159.805V159.941V160.077V160.212V160.347V160.481V160.614V160.747V160.879V161.011V161.142V161.273V161.403V161.533V161.662V161.791V161.919V162.047V162.175V162.302V162.429V162.556V162.682V162.808V162.933V163.058V163.183V163.308V163.432V163.556V163.68V163.803V163.927V164.05V164.173V164.295V164.418V164.54V164.662V164.784V164.906V165.028V165.15V165.271V165.393V165.514V165.636V165.757V165.879V166V166.121V166.243V166.364V166.486V166.607V166.729V166.85V166.972V167.094V167.216V167.338V167.46V167.582V167.705V167.827V167.95V168.073V168.197V168.32V168.444V168.568V168.692V168.817V168.942V169.067V169.192V169.318V169.444V169.571V169.698V169.825V169.953V170.081V170.209V170.338V170.467V170.597V170.727V170.858V170.989V171.121V171.253V171.386V171.519V171.653V171.788V171.923V172.059V172.195V172.332V172.469V172.607V172.746V172.886V173.026V173.167V173.308V173.451V173.594V173.737V173.882V174.027V174.173V174.32V174.468V174.617V174.766V174.916V175.067V175.219V175.372V175.526V175.68V175.836V175.993V176.15V176.308V176.468V176.628V176.79V176.952V177.115V177.28V177.445V177.612V177.78V177.949V178.118V178.289V178.461V178.635V178.809V178.985V179.161V179.339V179.519V179.699V179.88V180.063V180.247V180.433V180.619V180.807V180.996V181.187V181.379V181.572V181.767V181.963V182.16V182.359V182.559V182.76V182.963V183.168V183.374V183.581V183.79V184V184.212V184.425V184.64V184.857V185.075V185.294V185.515V185.738V185.962V186.188V186.416V186.645V186.876V187.109V187.343V187.579V187.817V188.056V188.297V188.54V188.785V189.031V189.279V189.529V189.781V190.035V190.29V190.548V190.807V191.068V191.331V191.596V191.863V192.131V192.402V192.675V192.949V193.226V193.504V193.785V194.067V194.352V194.639V194.927V195.218V195.511V195.806V196.103V196.402V196.703V197.006V197.312V197.62V197.93V198.242V198.556V198.872V199.191V199.512V199.835V200.161V200.489V200.819V201.151V201.486V201.823V202.162V202.504V202.848V203.195V203.543V203.895V204.248V204.605V204.963V205.324V205.688V206.054V206.422V206.793V207.167V207.543V207.921V208.303V208.686V209.073V209.462V209.853V210.247V210.644V211.043V211.446V211.85V212.258V212.668V213.081V213.496V213.915V214.336V214.76V215.186V215.616V216.048V216.483V216.921V217.362V217.805V218.252V218.701V219.153V219.608V220.066V220.527V220.991V221.458V221.927V222.4V222.876V223.355V223.836V224.321V224.809V225.3V225.794V226.291V226.791V227.294V227.801V228.31V228.823V229.338V229.857V230.379V230.905V231.433V231.965V232.226L93.8977 255.416L30 218.711V218.465V217.933V217.405V216.879V216.357V215.838V215.323V214.81V214.301V213.794V213.291V212.791V212.294V211.8V211.309V210.821V210.336V209.855V209.376V208.9V208.427V207.958V207.491V207.027V206.566V206.108V205.653V205.201V204.752V204.305V203.862V203.421V202.983V202.548V202.116V201.686V201.26V200.836V200.415V199.996V199.581V199.168V198.758V198.35V197.946V197.543V197.144V196.747V196.353V195.962V195.573V195.186V194.803V194.421V194.043V193.667V193.293V192.922V192.554V192.188V191.824V191.463V191.105V190.748V190.395V190.043V189.695V189.348V189.004V188.662V188.323V187.986V187.651V187.319V186.989V186.661V186.335V186.012V185.691V185.372V185.056V184.742V184.43V184.12V183.812V183.506V183.203V182.902V182.603V182.306V182.011V181.718V181.427V181.139V180.852V180.567V180.285V180.004V179.726V179.449V179.175V178.902V178.631V178.363V178.096V177.831V177.568V177.307V177.048V176.79V176.535V176.281V176.029V175.779V175.531V175.285V175.04V174.797V174.556V174.317V174.079V173.843V173.609V173.376V173.145V172.916V172.688V172.462V172.238V172.015V171.794V171.575V171.357V171.14V170.925V170.712V170.5V170.29V170.081V169.874V169.668V169.463V169.26V169.059V168.859V168.66V168.463V168.267V168.072V167.879V167.687V167.496V167.307V167.119V166.933V166.747V166.563V166.38V166.199V166.019V165.839V165.661V165.485V165.309V165.135V164.961V164.789V164.618V164.449V164.28V164.112V163.945V163.78V163.615V163.452V163.29V163.128V162.968V162.808V162.65V162.493V162.336V162.18V162.026V161.872V161.719V161.567V161.416V161.266V161.117V160.968V160.82V160.673V160.527V160.382V160.237V160.094V159.951V159.808V159.667V159.526V159.386V159.246V159.107V158.969V158.832V158.695V158.559V158.423V158.288V158.153V158.019V157.886V157.753V157.621V157.489V157.358V157.227V157.097V156.967V156.838V156.709V156.581V156.453V156.325V156.198V156.071V155.944V155.818V155.692V155.567V155.442V155.317V155.192V155.068V154.944V154.82V154.697V154.573V154.45V154.327V154.205V154.082V153.96V153.838V153.716V153.594V153.472V153.35V153.229V153.107V152.986V152.864V152.743V152.621V152.5V152.379V152.257V152.136V152.014V151.893V151.771V151.65V151.528V151.406V151.284V151.162V151.04V150.918V150.795V150.673V150.55V150.427V150.303V150.18V150.056V149.932V149.808V149.683V149.558V149.433V149.308V149.182V149.056V148.929V148.802V148.675V148.547V148.419V148.291V148.162V148.033V147.903V147.773V147.642V147.511V147.379V147.247V147.114V146.981V146.847V146.712V146.577V146.441V146.305V146.168V146.031V145.893V145.754V145.614V145.474V145.333V145.192V145.049V144.906V144.763V144.618V144.473V144.327V144.18V144.032V143.883V143.734V143.584V143.433V143.281V143.128V142.974V142.82V142.664V142.507V142.35V142.192V142.032V141.872V141.71V141.548V141.385V141.22V141.055V140.888V140.72V140.551V140.382V140.211V140.039V139.865V139.691V139.515V139.339V139.161V138.981V138.801V138.62V138.437V138.253V138.067V137.881V137.693V137.504V137.313V137.121V136.928V136.733V136.537V136.34V136.141V135.941V135.74V135.537V135.332V135.126V134.919V134.71V134.5V134.288V134.075V133.86V133.643V133.425V133.206V132.985V132.762V132.538V132.312V132.084V131.855V131.624V131.391V131.157V130.921V130.683V130.444V130.203V129.96V129.715V129.469V129.221V128.971V128.719V128.465V128.21V127.952V127.693V127.432V127.169V126.904V126.637V126.369V126.098V125.825V125.551V125.274V124.996V124.715V124.433V124.148V123.861V123.573V123.282V122.989V122.694V122.397V122.098V121.797V121.494V121.188V120.88V120.57V120.258V119.944V119.628V119.309V118.988V118.665V118.339V118.011V117.681V117.349V117.014V116.677V116.338V115.996V115.652V115.305V114.957V114.605V114.252V113.895V113.537V113.176V112.812V112.446V112.078V111.707V111.333V110.957V110.579V110.197V109.814V109.427V109.038V108.647V108.253V107.856V107.457V107.054V106.65V106.242V105.832V105.419V105.004V104.585V104.164V103.74V103.314V102.884V102.452V102.017V101.579V101.138V100.695V100.248V99.7992V99.347V98.892V98.434V97.9731V97.5092V97.0424V96.5726V96.0999V95.6241V95.1454V94.6636V94.1788V93.691V93.2001V92.7062V92.2092V91.709V91.2058V90.6995V90.19V89.6774V89.1616V88.6427V88.1205V87.5952V87.0667V86.8583C38.9157 91.8901 50.3939 97.5288 61.7652 103.108L62.1255 103.285C73.704 108.966 85.1416 114.578 93.6636 119.434Z" stroke="black" stroke-opacity="0.25"/>
<path d="M30.0163 218L60 235.5L94.5163 255C82.6053 261.834 75.9272 265.666 64.0163 272.5L31 253L0.0162506 235.5L30.0163 218Z" fill="#69BF5A"/>
<path d="M31.2459 252.565L1.02056 235.493L30.0162 218.579L59.748 235.932L59.7479 235.932L59.7541 235.935L93.5057 255.003L79.0174 263.316L64.0199 271.921L31.2543 252.569L31.2543 252.569L31.2459 252.565Z" stroke="black" stroke-opacity="0.25"/>
<path d="M1.01625 235L31.5 252.5L65.0163 272L65.5163 320.5L63.5163 321.5L31.5 302.5L0.0162506 284V235.5L1.01625 235Z" fill="#69BF5A"/>
<path d="M31.7552 302.07L31.7533 302.069L0.516251 283.714V235.809L0.999942 235.567L31.2486 252.932L31.2511 252.934L64.5192 272.289L65.0131 320.193L63.5367 320.931L31.7552 302.07Z" stroke="black" stroke-opacity="0.25"/>
<path d="M63.2855 271.5L93.0163 255L94.5163 254.5V255.5V305L64.5163 321L63.2855 320.844V271.5Z" fill="#69BF5A"/>
<path d="M63.7855 320.403V271.794L93.2184 255.46L94.0163 255.194V255.5V304.7L64.4213 320.484L63.7855 320.403Z" stroke="black" stroke-opacity="0.25"/>
<path d="M2 269L31 285.751V303.47L2 286.407V269Z" fill="#272727"/>
<path d="M33 287.23L64 305.095V322.501L63.5 322.751L33 304.637V287.23Z" fill="#272727"/>
<path d="M64 305.095L72.9644 299.866V317.751L64 322.501V305.095Z" fill="#272727"/>
<path d="M64.5 305.382L72.4644 300.736V317.45L64.5 321.67V305.382ZM63.5 305.384V322.17L33.5 304.352V288.095L63.5 305.384Z" stroke="black" stroke-opacity="0.25"/>
<path d="M82.9172 0L146.917 32V111.948L82.9172 146.608L14 111.948V34.5L82.9172 0Z" fill="#69BF5A"/>
<path d="M14.5 34.8088L82.9173 0.559085L146.417 32.309V111.651L82.9086 146.044L14.5 111.64V34.8088Z" stroke="black" stroke-opacity="0.25"/>
<path d="M23 56.1084L37.95 63.2334V80.1084L23 72.9834V56.1084Z" fill="#272727"/>
<path d="M23.5 72.6678V56.9005L37.45 63.549V79.3162L23.5 72.6678Z" stroke="black" stroke-opacity="0.25"/>
<path d="M39 82.1084L53.95 89.2334V112.733L39 105.608V82.1084Z" fill="#272727"/>
<path d="M39.5 105.293V82.9005L53.45 89.549V111.941L39.5 105.293Z" stroke="black" stroke-opacity="0.25"/>
<path d="M29.5 84.6084L39.95 89.1084V114.108L29.5 109.608L29.5 84.6084Z" fill="#272727"/>
<path d="M30 109.279V85.3681L39.45 89.4374V113.349L30 109.279Z" stroke="black" stroke-opacity="0.25"/>
<path d="M53 94.1084L63.45 98.6084V123.608L53 119.108L53 94.1084Z" fill="#272727"/>
<path d="M53.5 118.779V94.8681L62.95 98.9374V122.849L53.5 118.779Z" stroke="black" stroke-opacity="0.25"/>
<path d="M55 71.1084L69.95 78.2334V95.1084L55 87.9834V71.1084Z" fill="#272727"/>
<path d="M55.5 87.6678V71.9005L69.45 78.549V94.3162L55.5 87.6678Z" stroke="black" stroke-opacity="0.25"/>
</svg>
