<svg width="289" height="286" viewBox="0 0 289 286" fill="none" xmlns="http://www.w3.org/2000/svg">
<g id="Logo" style="mix-blend-mode:hard-light">
<path id="C" d="M0.199997 143.4C0.199997 116.2 6.32908 91.8 18.5872 70.2C30.8454 48.3333 47.5005 31.2667 68.5526 19C89.8711 6.73332 113.455 0.599991 139.303 0.599991C169.682 0.599991 196.197 7.93332 218.848 22.6C241.499 37.2667 258.021 58.0667 268.414 85H224.844C217.116 68.2 205.924 55.2667 191.267 46.2C176.877 37.1333 159.556 32.6 139.303 32.6C119.85 32.6 102.396 37.1333 86.9398 46.2C71.4838 55.2667 59.3589 68.2 50.565 85C41.7711 101.533 37.3742 121 37.3742 143.4C37.3742 165.533 41.7711 185 50.565 201.8C59.3589 218.333 71.4838 231.133 86.9398 240.2C102.396 249.267 119.85 253.8 139.303 253.8C159.556 253.8 176.877 249.4 191.267 240.6C205.924 231.533 217.116 218.6 224.844 201.8H268.414C258.021 228.467 241.499 249.133 218.848 263.8C196.197 278.2 169.682 285.4 139.303 285.4C113.455 285.4 89.8711 279.4 68.5526 267.4C47.5005 255.133 30.8454 238.2 18.5872 216.6C6.32908 195 0.199997 170.6 0.199997 143.4Z" fill="#FF0000"/>
<path id="B" d="M270.192 141.33C273.484 141.85 276.471 143.193 279.156 145.36C281.928 147.527 284.093 150.213 285.652 153.42C287.297 156.627 288.12 160.05 288.12 163.69C288.12 168.283 286.951 172.443 284.612 176.17C282.274 179.81 278.853 182.713 274.35 184.88C269.933 186.96 264.693 188 258.63 188H224.854V97.39H257.331C263.48 97.39 268.72 98.43 273.05 100.51C277.381 102.503 280.629 105.233 282.794 108.7C284.959 112.167 286.041 116.067 286.041 120.4C286.041 125.773 284.569 130.237 281.625 133.79C278.767 137.257 274.956 139.77 270.192 141.33ZM236.676 136.52H256.552C262.095 136.52 266.382 135.22 269.413 132.62C272.444 130.02 273.96 126.423 273.96 121.83C273.96 117.237 272.444 113.64 269.413 111.04C266.382 108.44 262.008 107.14 256.292 107.14H236.676V136.52ZM257.591 178.25C263.48 178.25 268.071 176.863 271.362 174.09C274.653 171.317 276.298 167.46 276.298 162.52C276.298 157.493 274.566 153.55 271.102 150.69C267.638 147.743 263.004 146.27 257.201 146.27H236.676V178.25H257.591Z" fill="#FF0000"/>
<path id="Dot" d="M160.888 144C160.888 155.046 151.94 164 140.902 164C129.864 164 120.916 155.046 120.916 144C120.916 132.954 129.864 124 140.902 124C151.94 124 160.888 132.954 160.888 144Z" fill="#FF0000"/>
</g>
</svg>
