<svg width="494" height="700" viewBox="0 0 494 700" fill="none" xmlns="http://www.w3.org/2000/svg">
<g clip-path="url(#clip0)">
<rect width="494" height="700" fill="white"/>
<rect width="494" height="700" fill="#E7E7E7"/>
<circle cx="248" cy="293" r="220" fill="#1C1D21"/>
<path d="M292.1 143.433C276.467 148.567 256.4 161.633 243.1 175.633L228.633 190.567L214.4 184.033C202.033 178.433 197.367 177.5 177.767 177.5C157.233 177.5 154.433 178.2 139.267 185.667C107.3 201.3 83.7333 233.267 80.7 265.467C79.0667 282.967 81.8667 296.5 90.9667 316.8C95.4 327.067 96.3333 331.033 94.4667 333.367C92.3667 335.7 92.6 337.333 94.4667 339.2C96.5667 341.3 96.1 342.933 93.3 346.2C90.0333 349.933 89.8 351.1 92.6 354.833C94.2333 357.167 95.1667 360.9 94.7 363C93.0667 369.3 100.3 374.667 110.333 374.667C129.233 374.667 138.8 348.533 125.5 334.067L119.433 327.533L125.267 315.167C131.567 300.933 144.4 286 156.3 278.767C164.467 273.633 164.7 273.633 167.733 277.833C172.167 283.667 171.933 288.1 166.333 298.833C160.733 309.8 160.5 315.867 165.167 322.633C168.667 327.533 172.167 340.133 174.967 358.1C175.9 363.467 178.233 366.967 182.9 369.767C186.633 371.867 190.133 375.133 190.833 377.233C191.533 379.333 198.067 386.567 205.533 393.333C212.767 400.1 225.367 411.533 233.533 419.233C248.933 433.7 257.567 436.967 272.967 434.633C277.4 433.933 283.467 431.6 286.267 429.733C294.667 424.367 308.667 394.267 311.233 375.833C314.033 355.767 319.4 338.967 326.633 327.3C329.667 322.633 332.467 318.667 332.933 318.667C333.4 318.667 336.2 322.4 338.767 327.067C341.567 331.733 346 335.933 348.567 336.633C352.067 337.567 352.767 339.2 351.6 342.933C350.667 345.5 349.967 347.833 349.733 347.833C345.767 347.833 334.8 356.933 331.3 363.233C326.4 371.633 326.4 371.867 330.833 381.667C333.167 387.033 337.367 392.867 339.933 394.733C350.667 402.2 368.867 395.9 366.067 385.633C365.6 383.3 366.067 379.333 367.7 377C369.567 373.733 369.567 371.867 367 368.833C364.2 365.567 365.6 363.467 376.8 351.8C384.033 344.567 392.667 332.9 396.167 326.133C401.767 314.933 402.233 311.2 401.767 291.133C401.533 278.533 402.7 265.467 404.1 261.967C409 249.367 407.367 226.5 399.9 210.633C381.467 170.267 348.333 143.667 314.5 142.267C305.633 141.8 295.367 142.267 292.1 143.433ZM342.267 156.267C361.167 165.367 380.767 185.667 391.267 206.667C398.5 221.367 399.667 225.8 399.667 240.267C399.667 253.567 398.5 259.633 393.133 270.833C389.4 278.533 383.567 288.1 380.067 292.3C374.933 298.6 374 301.167 375.167 307.933C377.267 318.9 374.933 324.967 366.767 329.167C358.6 333.6 349.5 331.733 344.833 324.967C339.467 317.267 340.633 312.6 346.233 319.6C351.833 326.6 356.733 327.3 364.667 321.7L370.5 317.5L361.167 316.1L351.833 314.7L361.867 314.233C372.6 314 374 311.433 367.933 302.8C364.9 298.367 364.9 297.667 367.933 297.667C375.867 297.667 375.4 267.8 366.767 244.933C359.767 226.267 331.533 197.333 320.567 197.333C315.9 197.333 302.367 218.8 300.267 229.533C299.333 233.733 297.933 237.7 296.767 238.167C293.5 240.267 297.467 222.067 303.067 209.233C306.1 202.467 308.667 196.4 308.667 196.167C308.667 194.533 293.033 199.2 286.5 202.7C275.767 208.067 251.5 235.6 244.5 250.3C244.267 250.767 239.6 248.667 233.767 245.633C218.833 238.167 185 238.4 165.633 246.1C142.3 255.2 118.733 282.5 113.833 305.833C112.667 310.733 114.067 309.1 118.033 300.7C129 278.3 156.533 258.233 181.5 254.5C189.9 253.333 190.133 253.567 185 255.9C181.733 257.533 173.567 261.267 167.033 264.3C150 272.233 131.1 289.967 122.7 306.3C111.5 327.533 111.267 329.4 119.433 337.1C128.067 345.267 129 354.6 121.533 362.3C116.167 367.9 102.633 369.767 99.8333 365.333C98.9 363.7 100.3 363.233 104.033 364.167C108.467 365.333 111.267 364.4 115.467 360.2L120.833 354.833L110.333 354.133C104.5 353.667 98.9 352.5 97.7333 351.333C96.5667 350.167 99.8333 349.933 104.733 350.4C115 351.567 120.367 349 118.5 343.867C116.633 339.2 106.833 334.767 101.7 336.4C97.7333 337.567 97.7333 337.333 101.467 334.767C104.967 331.967 104.967 331.033 99.8333 321C85.1333 292.067 83.5 262.9 94.9333 237.933C102.633 221.367 123.867 200.133 141.833 191.5C154.2 185.433 158.167 184.5 178 184.5C198.067 184.5 201.567 185.2 215.333 191.733L230.733 198.967L245.433 182.867C268.533 157.9 288.367 147.867 313.333 149.033C324.533 149.5 332.233 151.367 342.267 156.267ZM293.267 214.833C291.633 219.267 290 225.333 290 228.133C290 231.167 289.067 235.133 287.667 237C285.8 239.8 284.4 239.8 276.933 236.3C269 232.333 268.067 232.333 264.1 236.067C260.6 239.1 260.367 240.733 262.467 243.3C264.333 245.633 264.333 247.267 262.467 249.133C260.367 251.233 260.6 252.633 262.7 255.2C265.033 258.233 264.567 258.467 259.667 256.833C256.4 255.9 252.9 254.267 251.967 253.333C248.233 250.067 276.7 216 288.833 209.467C296.3 205.267 297 206.2 293.267 214.833ZM326.867 213.9C323.6 223.233 325.7 239.8 331.767 254.033C336.9 265.7 337.833 275.267 335.267 288.333L333.633 295.8L325.933 287.4C316.133 276.9 308.2 276.433 299.8 286L293.733 292.767L283.233 285.067C268.067 274.567 261.3 272 246.6 272C230.5 272 220.7 275.967 207.4 288.333C197.367 297.667 196.9 298.367 200.167 303.033C204.133 308.867 204.833 312.6 201.333 310.5C200.167 309.8 199 310.5 199 312.133C199 314 197.833 313.533 196.433 310.967C195.267 308.867 192 307 189.2 307C184.767 307 184.533 307.933 185.7 319.133C186.4 325.9 187.8 333.6 188.733 335.933C189.9 339.2 189.667 339.9 187.8 338.733C186.167 337.8 184.3 332.9 183.6 328C182.667 322.867 181.267 319.367 180.1 319.833C177.067 321.933 175.2 316.567 176.6 310.5C178.467 303.5 188.267 300.467 195.267 304.667C199.7 307.467 199.933 307.467 196.9 303.967C191.067 296.733 175.667 300.233 172.867 309.333C172.167 311.2 173.567 316.567 176.133 321C178.467 325.433 180.333 330.8 180.333 332.9C180.333 335 181.5 339.9 182.9 344.1C185 349.7 186.867 351.333 191.533 351.333C197.6 351.1 197.6 351.1 193.4 347.833C189.2 344.8 189.2 344.333 192.7 344.333C195.033 344.333 197.367 345.967 198.067 347.833C199.233 350.633 200.4 350.867 202.733 348.767C208.333 344.1 206.233 349.933 199.233 358.333C193.167 365.8 192.233 366.033 186.4 363.467C183.133 362.067 180.333 359.733 180.333 358.333C180.333 356.933 182.2 357.167 185 358.8C188.5 361.133 190.133 361.133 192.467 358.8C194.567 356.7 194.1 356 190.367 356C184.067 356 178 347.833 178 339.667C178 336.4 175.9 329.633 173.333 324.5C167.5 313.067 167.5 310.267 173.333 298.833C179.167 287.867 178 278.3 170.533 270.367C167.733 267.333 166.567 265 167.967 265C169.133 265 172.633 267.567 175.433 270.6C179.633 275.033 180.567 278.3 179.867 285.767C179.167 294.867 179.167 294.867 187.333 296.033C193.633 296.733 196.2 295.8 198.767 292.067C207.867 279 223.967 265.467 233.767 262.667C251.733 257.767 271.8 265.933 288.133 284.6C291.633 288.567 294.667 290.667 294.667 289.033C294.667 283.9 306.8 272 311.933 272C317.067 272 324.3 278.3 329.2 287.167C331.533 291.133 331.767 289.967 332 280.167C332 273.633 330.833 264.533 329.667 259.867L327.1 251.233L319.167 254.733C308.9 258.933 281.6 258.7 272.5 254.267C266.433 251.467 266.2 251 271.333 252.167C274.6 252.867 284.633 254.033 293.5 254.5C309.833 255.433 309.833 255.433 297.467 253.333C285.567 251 265.267 242.367 267.133 240.267C267.833 239.8 272.967 241.433 278.567 243.767C290.233 248.9 317.533 252.4 322.2 249.133C324.533 247.733 324.533 245.633 322.667 240.733C319.633 232.333 319.633 219.967 323.133 212.5C326.867 204.1 329.9 205.267 326.867 213.9ZM314.5 228.833C314.733 244 314.733 244 308.2 244C301.667 244 299.567 240.967 304 238.167C305.4 237.467 306.333 235.133 306.333 233.267C306.333 229.767 312.4 213.667 313.8 213.667C314.267 213.667 314.5 220.433 314.5 228.833ZM353.233 226.733C357.2 229.067 367 250.767 369.567 262.9C370.967 269.433 371.433 279 370.733 284.367L369.333 294.167L354.633 293.467L340.167 292.767L340.867 280.633C341.567 271.767 339.933 264.067 335.733 252.4C332.467 243.533 329.667 233.267 329.667 229.3C329.667 222.3 329.667 222.3 340.4 223.933C346.233 224.633 352.067 225.8 353.233 226.733ZM227.7 251.233L234 254.733L223.733 259.633C218.133 262.433 209.033 269.9 203.433 276.433C192.233 289.267 187.333 291.367 187.333 282.967C187.333 279.933 185.7 275.5 183.833 272.933C179.633 267.333 179.4 265 183.367 265C185.233 265 188.5 262.9 191.067 260.1C194.567 256.133 194.8 254.733 192.233 250.533C189.2 245.633 189.433 245.633 205.3 246.8C214.167 247.5 224.2 249.367 227.7 251.233ZM323.833 265.233C326.4 269.2 323.833 269.9 318.933 266.167C314.967 263.133 314.967 262.9 318.467 262.667C320.567 262.667 323.133 263.833 323.833 265.233ZM304 265.7C304 266.167 300.967 269.2 297.467 272.7L290.933 279L284.167 272L277.4 265H290.7C297.933 265 304 265.233 304 265.7ZM396.867 294.633C396.167 307.933 394.067 315.867 389.867 324.5C383.333 336.867 362.567 358.333 356.967 358.333C351.133 358.333 346 360.9 343.9 365.1C342.033 368.133 343.2 368.833 351.133 369.3C356.267 369.3 361.4 370.467 362.567 371.633C363.5 372.567 359.3 373.033 353 372.8C340.4 371.867 339.233 373.033 345.067 381.2C347.4 384.467 350.9 386.333 355.567 386.333C359.767 386.333 362.1 387.267 361.167 388.667C359.533 391.233 350.667 391.7 344.833 389.6C340.867 387.967 334.333 377 334.333 371.4C334.333 365.8 344.367 355.767 350.2 355.3C354.4 355.067 356.033 352.967 358.133 344.8C360 337.567 362.333 333.833 367.233 331.267C375.867 326.833 379.367 319.833 377.967 310.033C376.8 303.5 377.967 300.233 384.733 291.6C388.933 285.767 392.667 279.933 392.667 278.767C392.667 277.6 393.833 276.667 395.233 276.667C397.1 276.667 397.567 282.267 396.867 294.633ZM252.667 281.1C252.667 282.267 250.567 282.733 248 282.033C245.433 281.333 243.333 280.4 243.333 279.933C243.333 279.467 245.433 279 248 279C250.567 279 252.667 279.933 252.667 281.1ZM262 287.633C262 297.9 258.267 305.133 255.467 300.7C252.9 296.5 237.5 290.667 229.333 290.667C225.133 290.667 222.567 289.733 223.5 288.333C225.6 285.067 238.2 285.533 248.467 289.267C257.1 292.3 257.1 292.3 258.5 285.767C260.6 276.433 262 277.367 262 287.633ZM289.3 297.433C293.967 299.767 295.6 299.3 301.9 293C311 284.6 313.333 284.367 320.333 291.833L325.7 297.667H320.567C306.1 297.667 287.667 315.167 287.667 328.933C287.667 334.533 287.2 335 283 332.667C280.2 331.267 276.233 330.8 273.9 331.5C267.367 333.6 261.3 343.867 262.7 350.633C263.867 356.467 263.633 356.467 252.9 355.067C247.067 354.133 240.067 353.2 237.5 352.967C234.933 352.733 230.5 349.933 227.7 346.667L222.567 340.833L217.667 345.5C213.233 350.167 213 350.867 216.5 362.067C220 374.2 230.733 391.233 239.133 398.7C243.8 402.667 244.267 402.667 248.7 398.7C251.267 396.367 252.667 395.9 251.733 397.533C250.567 399.4 251.5 402.433 253.833 405C257.1 408.5 259.9 409.2 267.833 408.033C273.9 407.333 278.333 407.8 279.267 409.433C280.433 411.3 276.7 412 267.367 412C255.467 412 252.2 410.833 240.067 402.9C232.6 398 222.333 388.667 217.2 382.6C208.1 371.633 207.867 370.7 209.267 358.1C210.667 344.8 208.333 338.967 202.267 341.3C198.533 342.7 192 330.567 192 321.933C192 317.033 192.7 316.333 195.033 318.2C197.367 320.3 199.467 319.833 203.433 317.267C207.633 314.233 208.567 312.133 207.4 305.833C206.233 300.233 206.933 297.433 210.667 294.167C215.1 290.2 215.567 290.2 219.533 293.7C221.867 296.033 226.533 297.667 229.8 297.667C235.867 297.667 252.667 305.6 267.367 315.633C275.3 321.233 276.467 321.467 279.733 318.2C284.167 313.767 282.767 307.933 274.833 299.533C271.567 296.033 269 290.9 269 288.1C269 283.2 269 283.2 276.7 288.8C280.667 292.067 286.5 295.8 289.3 297.433ZM272.267 305.133C275.533 309.333 277.633 313.067 277.167 313.533C275.533 315.167 262.233 303.733 262.233 300.467C262 295.567 266.2 297.433 272.267 305.133ZM358.6 301.4C363.733 303.267 363.267 307 358.133 307C355.8 307 352.767 308.167 351.133 309.8C348.8 312.133 346.933 311.2 342.033 306.3L335.5 300H345.3C350.667 300 356.5 300.7 358.6 301.4ZM335.033 307.467C338.533 310.033 337.133 310.5 326.4 310.733C312.633 310.733 302.6 315.633 299.567 324.033C298.4 327.067 298.633 334.533 300.033 341.767C302.6 353.433 302.367 354.367 297.233 358.567C289.3 365.1 286.5 363.933 292.333 356.7C296.533 351.333 297 348.533 295.6 337.333C294.667 328.7 295.133 322.167 297 318.9C303.067 307.233 325.467 300.467 335.033 307.467ZM319.167 328.233C311.467 342 306.8 356.233 304.233 375.6C300.967 398.933 289.767 420.633 278.8 425.3C266.2 430.667 254.067 428.1 241.467 417.367C226.767 404.767 226.533 401.033 241 410.833C251.733 418.067 254.767 419 268.067 419C282.533 419 283.233 418.767 287.667 411.3C293.733 401.733 300.733 377.933 303.767 357.4C305.4 345.5 308.2 338.267 314.5 328.7C324.533 313.767 327.8 313.3 319.167 328.233ZM308.667 326.833C307.033 328.933 305.167 329.867 304.467 329.167C303.767 328.7 304.7 326.6 306.333 324.5C307.967 322.4 309.833 321.467 310.533 322.167C311.233 322.633 310.3 324.733 308.667 326.833ZM283.233 339.667C285.567 341.067 287.667 343.167 287.667 344.333C287.667 345.733 285.8 345.5 283.233 343.867C277.633 340.367 270.4 345.267 272.033 351.8C272.733 354.133 272.267 355.533 271.1 354.6C268.067 352.733 268.533 343.4 271.8 340.133C275.3 336.633 277.4 336.633 283.233 339.667ZM226.3 359.033C227.933 364.633 232.833 374.667 237.5 381.433C248.233 397.067 246.6 399.633 235.633 384.467C227.233 373.033 224.433 367.2 221.4 355.3C218.833 344.8 223.5 348.3 226.3 359.033ZM285.333 353.667C285.333 354.833 284.4 356.467 283 357.167C281.833 357.867 280.667 358.1 280.667 357.4C280.667 356.933 279.967 354.6 279.267 352.733C278.1 349.933 278.8 349.233 281.6 350.4C283.7 351.1 285.333 352.733 285.333 353.667ZM202.733 364.167C200.867 371.4 204.133 377.933 214.867 389.133C227 401.967 220.933 400.1 207.867 387.033C196.433 375.833 193.633 366.967 199.467 361.133C203.667 356.933 204.367 357.633 202.733 364.167ZM264.333 363C287.9 364.867 293.267 366.733 290.933 372.1C290 374.2 289.3 378.4 289.3 381.667C289.533 389.133 286.5 391 273.2 391C260.6 391 252.2 385.167 240.533 368.133C233.3 357.867 233.3 357.633 238.9 359.5C241.933 360.433 253.367 362.067 264.333 363ZM281.6 398C284.867 399.167 287.667 401.267 287.667 402.667C287.667 404.3 286.033 404.3 282.767 402.433C279.967 401.033 272.967 400.333 267.6 401.033C262 401.5 257.333 401.267 257.333 400.333C257.333 395.667 272.267 394.267 281.6 398Z" fill="#36FCFC"/>
<path d="M291.4 159.067C276.233 163.733 278.567 165.133 294.667 160.933C309.367 157.2 323.367 158.367 339 164.9C346.467 168.167 348.1 168.4 344.833 165.833C338.767 161.167 319.167 155.333 310.067 155.567C306.1 155.567 297.7 157.2 291.4 159.067Z" fill="#36FCFC"/>
<path d="M351.6 171.433C353.233 174 362.333 179.6 362.333 177.967C362.333 177.267 359.533 175.167 356.267 172.833C352.767 170.733 350.9 170.033 351.6 171.433Z" fill="#36FCFC"/>
<path d="M150.7 197.1C144.167 199.2 135.067 203.867 130.4 207.367C121.767 214.133 108 230 103.567 238.633C98.9 247.733 102.167 244.467 110.1 232.567C121.067 215.533 140.2 202.233 162.133 196.4C169.133 194.3 171.933 192.9 168.667 192.9C165.4 192.9 157.467 194.767 150.7 197.1Z" fill="#36FCFC"/>
<path d="M185.233 193.6C185.7 194.067 190.833 195 196.433 195.7C203.2 196.633 205.767 196.167 203.433 194.767C200.4 192.9 182.9 191.5 185.233 193.6Z" fill="#36FCFC"/>
<path d="M110.567 317.733C110.567 320.3 111.267 321 111.967 319.133C112.667 317.5 112.433 315.4 111.733 314.7C111.033 313.767 110.333 315.167 110.567 317.733Z" fill="#36FCFC"/>
<path d="M235.867 320.067C225.133 331.5 223.5 336.633 229.8 340.6C233.067 342.467 235.867 341.533 243.8 335.933C256.167 327.3 260.367 317.5 253.833 312.6C247.533 307.933 247.3 308.167 235.867 320.067ZM252.667 318.433C252.667 321.233 236.1 335 232.6 335C231.2 335 234 330.8 238.433 325.667C246.367 317.033 252.667 313.767 252.667 318.433Z" fill="#36FCFC"/>
<path d="M244.967 368.833C247.533 372.333 251.733 374.667 256.167 374.9C262 375.133 262.233 375.367 257.8 376.3C253.367 377.233 252.9 377.933 255.233 380.733C258.733 384.933 275.067 389.367 280.667 387.5C286.5 385.633 286.733 379.333 281.367 379.1C278.1 379.1 278.333 378.633 282.533 377C294.433 372.1 286.733 367.667 266.667 367.667C259.2 367.667 250.333 366.733 246.833 365.333L240.767 363L244.967 368.833ZM272.5 377C271.8 378.167 269.933 379.333 268.767 379.333C267.367 379.333 267.133 378.167 267.833 377C268.533 375.6 270.4 374.667 271.567 374.667C272.967 374.667 273.2 375.6 272.5 377Z" fill="#36FCFC"/>
<rect x="503.266" y="447" width="177" height="361" transform="rotate(45 503.266 447)" fill="#36FCFC"/>
<rect x="503.266" y="447" width="177" height="361" transform="rotate(45 503.266 447)" fill="black" fill-opacity="0.1"/>
<rect x="73.2655" y="-255" width="177" height="361" transform="rotate(45 73.2655 -255)" fill="#36FCFC"/>
<rect x="73.2655" y="-255" width="177" height="361" transform="rotate(45 73.2655 -255)" fill="black" fill-opacity="0.1"/>
<circle cx="28.5" cy="569.5" r="9.5" fill="#1C1D21"/>
<circle cx="63.5" cy="569.5" r="9.5" stroke="#1C1D21"/>
<path d="M27.3242 630.416L25.0977 629.068C23.7012 628.219 22.7051 627.384 22.1094 626.563C21.5234 625.733 21.2305 624.781 21.2305 623.707C21.2305 622.096 21.7871 620.787 22.9004 619.781C24.0234 618.775 25.4785 618.272 27.2656 618.272C28.9746 618.272 30.542 618.751 31.9678 619.708V623.033C30.4932 621.617 28.9062 620.909 27.207 620.909C26.25 620.909 25.4639 621.134 24.8486 621.583C24.2334 622.022 23.9258 622.589 23.9258 623.282C23.9258 623.897 24.1504 624.474 24.5996 625.011C25.0488 625.548 25.7764 626.109 26.7822 626.695L29.0234 628.014C31.5234 629.498 32.7734 631.393 32.7734 633.697C32.7734 635.338 32.2217 636.671 31.1182 637.696C30.0244 638.722 28.5986 639.234 26.8408 639.234C24.8193 639.234 22.9785 638.614 21.3184 637.374V633.653C22.9004 635.655 24.7314 636.656 26.8115 636.656C27.7295 636.656 28.4912 636.402 29.0967 635.895C29.7119 635.377 30.0195 634.732 30.0195 633.961C30.0195 632.711 29.1211 631.529 27.3242 630.416ZM47.1143 632.496H37.6367C37.7051 633.785 38.1348 634.811 38.9258 635.572C39.7266 636.334 40.7568 636.715 42.0166 636.715C43.7744 636.715 45.3955 636.168 46.8799 635.074V637.682C46.0596 638.229 45.2441 638.619 44.4336 638.854C43.6328 639.088 42.6904 639.205 41.6064 639.205C40.1221 639.205 38.9209 638.897 38.0029 638.282C37.085 637.667 36.3477 636.842 35.791 635.807C35.2441 634.762 34.9707 633.556 34.9707 632.188C34.9707 630.138 35.5518 628.473 36.7139 627.193C37.876 625.904 39.3848 625.26 41.2402 625.26C43.0273 625.26 44.4531 625.885 45.5176 627.135C46.582 628.385 47.1143 630.06 47.1143 632.159V632.496ZM37.6953 630.899H44.4775C44.4092 629.835 44.0918 629.015 43.5254 628.438C42.959 627.862 42.1973 627.574 41.2402 627.574C40.2832 627.574 39.4971 627.862 38.8818 628.438C38.2764 629.015 37.8809 629.835 37.6953 630.899ZM58.4814 630.899V636.627C58.4814 637.086 58.6377 637.315 58.9502 637.315C59.2725 637.315 59.7754 637.076 60.459 636.598V638.224C59.8535 638.614 59.3652 638.878 58.9941 639.015C58.6328 639.161 58.252 639.234 57.8516 639.234C56.709 639.234 56.0352 638.785 55.8301 637.887C54.6973 638.766 53.4912 639.205 52.2119 639.205C51.2744 639.205 50.4932 638.897 49.8682 638.282C49.2432 637.657 48.9307 636.876 48.9307 635.938C48.9307 635.089 49.2334 634.332 49.8389 633.668C50.4541 632.994 51.3232 632.462 52.4463 632.071L55.8594 630.899V630.182C55.8594 628.561 55.0488 627.75 53.4277 627.75C51.9727 627.75 50.5566 628.502 49.1797 630.006V627.091C50.2148 625.87 51.7041 625.26 53.6475 625.26C55.1025 625.26 56.2695 625.641 57.1484 626.402C57.4414 626.646 57.7051 626.974 57.9395 627.384C58.1738 627.784 58.3203 628.189 58.3789 628.6C58.4473 629 58.4814 629.767 58.4814 630.899ZM55.8594 636.334V632.335L54.0723 633.023C53.1641 633.385 52.5195 633.751 52.1387 634.122C51.7676 634.483 51.582 634.938 51.582 635.484C51.582 636.041 51.7578 636.495 52.1094 636.847C52.4707 637.198 52.9346 637.374 53.501 637.374C54.3506 637.374 55.1367 637.027 55.8594 636.334ZM65.4834 625.523V627.237C66.6748 625.919 68.0273 625.26 69.541 625.26C70.3809 625.26 71.1621 625.479 71.8848 625.919C72.6074 626.349 73.1543 626.944 73.5254 627.706C73.9062 628.458 74.0967 629.654 74.0967 631.295V639H71.4307V631.324C71.4307 629.947 71.2207 628.966 70.8008 628.38C70.3809 627.784 69.6777 627.486 68.6914 627.486C67.4316 627.486 66.3623 628.116 65.4834 629.376V639H62.7588V625.523H65.4834ZM76.5576 625.523H88.0713L80.9375 636.51H88.0713V639H76.2646L83.3398 628.014H76.5576V625.523ZM96.7725 625.494C98.8232 625.494 100.527 626.158 101.885 627.486C103.242 628.805 103.921 630.465 103.921 632.467C103.921 634.41 103.232 636.026 101.855 637.315C100.479 638.595 98.7451 639.234 96.6553 639.234C94.6338 639.234 92.9443 638.585 91.5869 637.286C90.2295 635.978 89.5508 634.347 89.5508 632.394C89.5508 630.421 90.2344 628.78 91.6016 627.472C92.9785 626.153 94.7021 625.494 96.7725 625.494ZM96.626 627.896C95.3467 627.896 94.2969 628.316 93.4766 629.156C92.6562 629.996 92.2461 631.065 92.2461 632.364C92.2461 633.653 92.666 634.708 93.5059 635.528C94.3457 636.339 95.4248 636.744 96.7432 636.744C98.0518 636.744 99.1211 636.334 99.9512 635.514C100.791 634.684 101.211 633.624 101.211 632.335C101.211 631.056 100.776 629.996 99.9072 629.156C99.0381 628.316 97.9443 627.896 96.626 627.896ZM105.62 625.523H117.134L110 636.51H117.134V639H105.327L112.402 628.014H105.62V625.523Z" fill="black"/>
<path d="M91.2852 558.536H102.198V561.144H94.2148V566.856H102.198V569.464H94.2148V579H91.2852V558.536ZM110.958 565.494C113.009 565.494 114.713 566.158 116.07 567.486C117.428 568.805 118.106 570.465 118.106 572.467C118.106 574.41 117.418 576.026 116.041 577.315C114.664 578.595 112.931 579.234 110.841 579.234C108.819 579.234 107.13 578.585 105.772 577.286C104.415 575.978 103.736 574.347 103.736 572.394C103.736 570.421 104.42 568.78 105.787 567.472C107.164 566.153 108.888 565.494 110.958 565.494ZM110.812 567.896C109.532 567.896 108.482 568.316 107.662 569.156C106.842 569.996 106.432 571.065 106.432 572.364C106.432 573.653 106.852 574.708 107.691 575.528C108.531 576.339 109.61 576.744 110.929 576.744C112.237 576.744 113.307 576.334 114.137 575.514C114.977 574.684 115.396 573.624 115.396 572.335C115.396 571.056 114.962 569.996 114.093 569.156C113.224 568.316 112.13 567.896 110.812 567.896ZM127.511 565.494C129.562 565.494 131.266 566.158 132.623 567.486C133.98 568.805 134.659 570.465 134.659 572.467C134.659 574.41 133.971 576.026 132.594 577.315C131.217 578.595 129.483 579.234 127.394 579.234C125.372 579.234 123.683 578.585 122.325 577.286C120.968 575.978 120.289 574.347 120.289 572.394C120.289 570.421 120.973 568.78 122.34 567.472C123.717 566.153 125.44 565.494 127.511 565.494ZM127.364 567.896C126.085 567.896 125.035 568.316 124.215 569.156C123.395 569.996 122.984 571.065 122.984 572.364C122.984 573.653 123.404 574.708 124.244 575.528C125.084 576.339 126.163 576.744 127.481 576.744C128.79 576.744 129.859 576.334 130.689 575.514C131.529 574.684 131.949 573.624 131.949 572.335C131.949 571.056 131.515 569.996 130.646 569.156C129.776 568.316 128.683 567.896 127.364 567.896ZM137.677 558.536H140.343V579H137.677V558.536ZM144.151 558.536H146.817V567.296C147.931 565.938 149.312 565.26 150.963 565.26C151.861 565.26 152.667 565.484 153.38 565.934C154.093 566.383 154.62 567.003 154.962 567.794C155.313 568.585 155.489 569.762 155.489 571.324V579H152.823V570.665C152.823 569.679 152.579 568.888 152.091 568.292C151.612 567.687 150.978 567.384 150.187 567.384C149.601 567.384 149.049 567.535 148.531 567.838C148.014 568.141 147.442 568.644 146.817 569.347V579H144.151V558.536ZM167.677 570.899V576.627C167.677 577.086 167.833 577.315 168.146 577.315C168.468 577.315 168.971 577.076 169.654 576.598V578.224C169.049 578.614 168.561 578.878 168.189 579.015C167.828 579.161 167.447 579.234 167.047 579.234C165.904 579.234 165.23 578.785 165.025 577.887C163.893 578.766 162.687 579.205 161.407 579.205C160.47 579.205 159.688 578.897 159.063 578.282C158.438 577.657 158.126 576.876 158.126 575.938C158.126 575.089 158.429 574.332 159.034 573.668C159.649 572.994 160.519 572.462 161.642 572.071L165.055 570.899V570.182C165.055 568.561 164.244 567.75 162.623 567.75C161.168 567.75 159.752 568.502 158.375 570.006V567.091C159.41 565.87 160.899 565.26 162.843 565.26C164.298 565.26 165.465 565.641 166.344 566.402C166.637 566.646 166.9 566.974 167.135 567.384C167.369 567.784 167.516 568.189 167.574 568.6C167.643 569 167.677 569.767 167.677 570.899ZM165.055 576.334V572.335L163.268 573.023C162.359 573.385 161.715 573.751 161.334 574.122C160.963 574.483 160.777 574.938 160.777 575.484C160.777 576.041 160.953 576.495 161.305 576.847C161.666 577.198 162.13 577.374 162.696 577.374C163.546 577.374 164.332 577.027 165.055 576.334ZM174.869 565.523V568.614L175.016 568.38C176.305 566.3 177.594 565.26 178.883 565.26C179.889 565.26 180.938 565.768 182.032 566.783L180.626 569.127C179.698 568.248 178.839 567.809 178.048 567.809C177.188 567.809 176.441 568.219 175.807 569.039C175.182 569.859 174.869 570.831 174.869 571.954V579H172.188V565.523H174.869ZM192.433 558.536H195.113V579H189.415C187.423 579 185.831 578.37 184.64 577.11C183.458 575.851 182.867 574.161 182.867 572.042C182.867 570.06 183.487 568.429 184.728 567.149C185.978 565.87 187.569 565.23 189.503 565.23C190.401 565.23 191.378 565.421 192.433 565.802V558.536ZM192.433 576.715V568.175C191.603 567.755 190.763 567.545 189.913 567.545C188.585 567.545 187.525 567.979 186.734 568.849C185.953 569.718 185.562 570.89 185.562 572.364C185.562 573.751 185.904 574.82 186.588 575.572C186.998 576.021 187.433 576.324 187.892 576.48C188.351 576.637 189.176 576.715 190.367 576.715H192.433ZM206.979 565.523H209.981L200.445 585.87H197.472L202.057 576.114L196.842 565.523H199.874L203.507 573.126L206.979 565.523Z" fill="black"/>
<path d="M31.9355 660.152V662.086C30.6465 662.789 29.1582 663.141 27.4707 663.141C26.0996 663.141 24.9365 662.865 23.9814 662.314C23.0264 661.764 22.2705 661.005 21.7139 660.038C21.1572 659.071 20.8789 658.025 20.8789 656.9C20.8789 655.113 21.5146 653.61 22.7861 652.392C24.0635 651.173 25.6367 650.563 27.5059 650.563C28.7949 650.563 30.2275 650.9 31.8037 651.574V653.464C30.3682 652.644 28.9648 652.233 27.5938 652.233C26.1875 652.233 25.0186 652.679 24.0869 653.569C23.1611 654.454 22.6982 655.564 22.6982 656.9C22.6982 658.248 23.1553 659.355 24.0693 660.223C24.9834 661.09 26.1523 661.523 27.5762 661.523C29.0645 661.523 30.5176 661.066 31.9355 660.152ZM34.0977 650.722H35.8555V661.4H41.3838V663H34.0977V650.722ZM42.9395 650.722H44.6973V663H42.9395V650.722ZM47.4219 650.722H54.3828V652.286H49.1797V656.03H54.207V657.604H49.1797V661.418H54.5498V662.982H47.4219V650.722ZM66.1777 650.722H67.8477V663H66.3359L58.127 653.552V663H56.4746V650.722H57.8984L66.1777 660.249V650.722ZM69.4385 650.704H79.6953V652.269H75.415V663H73.6484V652.269H69.4385V650.704Z" fill="black"/>
<path d="M482 588.497C481.999 597.23 478.951 605.689 473.381 612.416C467.811 619.142 460.069 623.715 451.489 625.344C451.421 625.357 451.352 625.369 451.283 625.382C450.204 625.58 449.108 625.73 447.996 625.833C447.927 625.84 447.859 625.846 447.79 625.851C446.708 625.946 445.612 625.993 444.503 625.994C444.434 625.994 444.366 625.994 444.298 625.993C443.19 625.988 442.094 625.934 441.01 625.833C440.941 625.828 440.874 625.82 440.805 625.813C439.694 625.705 438.598 625.549 437.517 625.344C437.448 625.331 437.38 625.318 437.312 625.305C430.335 623.942 423.889 620.624 418.725 615.738C413.562 610.852 409.893 604.599 408.148 597.707C406.402 590.816 406.652 583.57 408.867 576.815C411.082 570.06 415.172 564.074 420.659 559.554C426.146 555.035 432.805 552.168 439.859 551.288C446.914 550.409 454.073 551.552 460.502 554.586C466.931 557.619 472.366 562.418 476.172 568.422C479.978 574.426 481.999 581.388 482 588.497V588.497Z" stroke="white"/>
<path d="M444.819 576.639H444.503V623.516H444.819V576.639Z" fill="white"/>
<path d="M444.819 556.545H444.503V570.375H444.819V556.545Z" fill="white"/>
<path d="M428.535 571.817H428.219V618.716H428.535V571.817Z" fill="white"/>
<path d="M450.827 571.817H450.511V618.716H450.827V571.817Z" fill="white"/>
<path d="M433.91 566.6H433.594V610.132H433.91V566.6Z" fill="white"/>
<path d="M439.36 554.727H439.044V615.121H439.36V554.727Z" fill="white"/>
<path d="M455.412 556.956H455.096V566.354H455.412V556.956Z" fill="white"/>
<path d="M455.412 572.628H455.096V615.611H455.412V572.628Z" fill="white"/>
<path d="M460.787 565.968H460.471V571.501H460.787V565.968Z" fill="white"/>
<path d="M460.787 577.707H460.471V605.194H460.787V577.707Z" fill="white"/>
<path d="M460.787 610.811H460.471V615.611H460.787V610.811Z" fill="white"/>
<path d="M433.752 614.662C433.44 614.662 433.134 614.57 432.874 614.396C432.614 614.222 432.411 613.975 432.292 613.686C432.172 613.398 432.141 613.08 432.202 612.773C432.263 612.466 432.413 612.185 432.634 611.964C432.855 611.742 433.137 611.592 433.444 611.531C433.751 611.47 434.068 611.501 434.357 611.621C434.646 611.74 434.893 611.943 435.067 612.203C435.241 612.463 435.333 612.769 435.333 613.081C435.333 613.501 435.166 613.902 434.87 614.199C434.573 614.495 434.171 614.662 433.752 614.662Z" fill="white"/>
<path d="M444.503 574.821C444.19 574.821 443.885 574.729 443.625 574.555C443.365 574.381 443.162 574.134 443.042 573.845C442.923 573.557 442.891 573.239 442.952 572.932C443.013 572.625 443.164 572.344 443.385 572.122C443.606 571.901 443.888 571.751 444.195 571.69C444.501 571.629 444.819 571.66 445.108 571.78C445.397 571.899 445.644 572.102 445.818 572.362C445.991 572.622 446.084 572.928 446.084 573.24C446.084 573.66 445.917 574.061 445.62 574.358C445.324 574.654 444.922 574.821 444.503 574.821ZM444.503 571.976C444.253 571.976 444.008 572.05 443.8 572.189C443.592 572.328 443.43 572.525 443.334 572.756C443.239 572.987 443.214 573.242 443.263 573.487C443.311 573.732 443.432 573.958 443.609 574.135C443.786 574.312 444.011 574.432 444.256 574.481C444.502 574.53 444.756 574.505 444.987 574.409C445.218 574.313 445.416 574.151 445.555 573.943C445.694 573.735 445.768 573.491 445.768 573.24C445.767 572.905 445.634 572.584 445.397 572.346C445.16 572.109 444.838 571.976 444.503 571.976Z" fill="white"/>
<path d="M444.661 556.64C444.348 556.64 444.043 556.547 443.783 556.373C443.523 556.2 443.32 555.953 443.2 555.664C443.081 555.375 443.049 555.057 443.11 554.75C443.171 554.444 443.322 554.162 443.543 553.941C443.764 553.72 444.046 553.569 444.353 553.508C444.659 553.447 444.977 553.479 445.266 553.598C445.555 553.718 445.802 553.921 445.976 554.181C446.149 554.441 446.242 554.746 446.242 555.059C446.242 555.478 446.075 555.88 445.778 556.176C445.482 556.473 445.08 556.639 444.661 556.64ZM444.661 553.794C444.411 553.794 444.166 553.868 443.958 554.007C443.75 554.146 443.588 554.344 443.493 554.575C443.397 554.806 443.372 555.06 443.421 555.306C443.469 555.551 443.59 555.776 443.767 555.953C443.944 556.13 444.169 556.251 444.414 556.299C444.66 556.348 444.914 556.323 445.145 556.227C445.376 556.132 445.574 555.97 445.713 555.762C445.852 555.554 445.926 555.309 445.926 555.059C445.926 554.724 445.792 554.402 445.555 554.165C445.318 553.928 444.996 553.794 444.661 553.794Z" fill="white"/>
<path d="M460.629 609.603C460.316 609.603 460.011 609.511 459.751 609.337C459.491 609.163 459.288 608.916 459.169 608.627C459.049 608.338 459.018 608.021 459.079 607.714C459.14 607.407 459.29 607.125 459.511 606.904C459.732 606.683 460.014 606.533 460.321 606.472C460.627 606.411 460.945 606.442 461.234 606.562C461.523 606.681 461.77 606.884 461.944 607.144C462.117 607.404 462.21 607.71 462.21 608.022C462.21 608.441 462.043 608.843 461.747 609.14C461.45 609.436 461.048 609.603 460.629 609.603ZM460.629 606.757C460.379 606.757 460.134 606.832 459.927 606.971C459.719 607.11 459.556 607.307 459.461 607.538C459.365 607.769 459.34 608.024 459.389 608.269C459.437 608.514 459.558 608.74 459.735 608.917C459.912 609.094 460.137 609.214 460.382 609.263C460.628 609.312 460.882 609.287 461.113 609.191C461.344 609.095 461.542 608.933 461.681 608.725C461.82 608.517 461.894 608.272 461.894 608.022C461.894 607.687 461.76 607.365 461.523 607.128C461.286 606.891 460.965 606.758 460.629 606.757Z" fill="white"/>
<path d="M428.377 569.762C428.064 569.762 427.759 569.669 427.499 569.496C427.239 569.322 427.036 569.075 426.916 568.786C426.797 568.497 426.765 568.179 426.826 567.873C426.887 567.566 427.038 567.284 427.259 567.063C427.48 566.842 427.762 566.692 428.068 566.631C428.375 566.57 428.693 566.601 428.982 566.721C429.271 566.84 429.518 567.043 429.691 567.303C429.865 567.563 429.958 567.869 429.958 568.181C429.957 568.6 429.791 569.002 429.494 569.299C429.198 569.595 428.796 569.762 428.377 569.762Z" fill="white"/>
<path d="M460.629 576.244C460.316 576.244 460.011 576.152 459.751 575.978C459.491 575.804 459.288 575.557 459.169 575.268C459.049 574.979 459.018 574.662 459.079 574.355C459.14 574.048 459.29 573.766 459.511 573.545C459.732 573.324 460.014 573.174 460.321 573.113C460.627 573.052 460.945 573.083 461.234 573.203C461.523 573.322 461.77 573.525 461.944 573.785C462.117 574.045 462.21 574.351 462.21 574.663C462.21 575.082 462.043 575.484 461.747 575.781C461.45 576.077 461.048 576.244 460.629 576.244ZM460.629 573.398C460.379 573.398 460.134 573.473 459.927 573.612C459.719 573.751 459.556 573.948 459.461 574.179C459.365 574.41 459.34 574.665 459.389 574.91C459.437 575.155 459.558 575.381 459.735 575.558C459.912 575.735 460.137 575.855 460.382 575.904C460.628 575.953 460.882 575.928 461.113 575.832C461.344 575.736 461.542 575.574 461.681 575.366C461.82 575.158 461.894 574.913 461.894 574.663C461.894 574.328 461.76 574.006 461.523 573.769C461.286 573.532 460.965 573.399 460.629 573.398Z" fill="white"/>
<path d="M455.254 570.869C454.941 570.869 454.635 570.776 454.375 570.602C454.115 570.429 453.913 570.182 453.793 569.893C453.673 569.604 453.642 569.286 453.703 568.979C453.764 568.673 453.915 568.391 454.136 568.17C454.357 567.949 454.639 567.798 454.945 567.737C455.252 567.676 455.57 567.708 455.859 567.827C456.148 567.947 456.395 568.15 456.568 568.41C456.742 568.67 456.835 568.975 456.835 569.288C456.834 569.707 456.668 570.109 456.371 570.405C456.075 570.702 455.673 570.868 455.254 570.869Z" fill="white"/>
<path d="M347.852 651.629H350.195V668H347.852V651.629ZM356.172 651.629H366.766L359.348 668.188L357.262 667.309L363.262 653.867H356.172V651.629ZM375.508 667.977V651.629H381.027C383.254 651.629 385.016 651.965 386.312 652.637C387.609 653.301 388.641 654.281 389.406 655.578C390.172 656.875 390.555 658.289 390.555 659.82C390.555 660.914 390.344 661.961 389.922 662.961C389.5 663.961 388.898 664.84 388.117 665.598C387.32 666.379 386.395 666.969 385.34 667.367C384.723 667.609 384.156 667.773 383.641 667.859C383.125 667.938 382.141 667.977 380.688 667.977H375.508ZM380.781 653.715H377.852V665.891H380.852C382.023 665.891 382.934 665.812 383.582 665.656C384.23 665.492 384.77 665.289 385.199 665.047C385.637 664.797 386.035 664.492 386.395 664.133C387.551 662.961 388.129 661.48 388.129 659.691C388.129 657.934 387.535 656.5 386.348 655.391C385.91 654.977 385.406 654.637 384.836 654.371C384.273 654.105 383.738 653.93 383.23 653.844C382.723 653.758 381.906 653.715 380.781 653.715ZM402.379 662.797H394.797C394.852 663.828 395.195 664.648 395.828 665.258C396.469 665.867 397.293 666.172 398.301 666.172C399.707 666.172 401.004 665.734 402.191 664.859V666.945C401.535 667.383 400.883 667.695 400.234 667.883C399.594 668.07 398.84 668.164 397.973 668.164C396.785 668.164 395.824 667.918 395.09 667.426C394.355 666.934 393.766 666.273 393.32 665.445C392.883 664.609 392.664 663.645 392.664 662.551C392.664 660.91 393.129 659.578 394.059 658.555C394.988 657.523 396.195 657.008 397.68 657.008C399.109 657.008 400.25 657.508 401.102 658.508C401.953 659.508 402.379 660.848 402.379 662.527V662.797ZM394.844 661.52H400.27C400.215 660.668 399.961 660.012 399.508 659.551C399.055 659.09 398.445 658.859 397.68 658.859C396.914 658.859 396.285 659.09 395.793 659.551C395.309 660.012 394.992 660.668 394.844 661.52ZM412.785 665.48V667.59C411.715 667.988 410.668 668.188 409.645 668.188C407.957 668.188 406.609 667.688 405.602 666.688C404.602 665.688 404.102 664.348 404.102 662.668C404.102 660.973 404.59 659.605 405.566 658.566C406.543 657.527 407.828 657.008 409.422 657.008C409.977 657.008 410.473 657.062 410.91 657.172C411.355 657.273 411.902 657.469 412.551 657.758V660.031C411.473 659.344 410.473 659 409.551 659C408.59 659 407.801 659.34 407.184 660.02C406.566 660.691 406.258 661.551 406.258 662.598C406.258 663.699 406.59 664.574 407.254 665.223C407.926 665.871 408.828 666.195 409.961 666.195C410.781 666.195 411.723 665.957 412.785 665.48ZM415.375 670.836V670.402C415.727 670.066 415.973 669.727 416.113 669.383C416.254 669.047 416.336 668.586 416.359 668C415.531 667.758 415.117 667.246 415.117 666.465C415.117 666.043 415.258 665.68 415.539 665.375C415.828 665.062 416.168 664.906 416.559 664.906C417.035 664.906 417.426 665.117 417.73 665.539C418.035 665.961 418.188 666.5 418.188 667.156C418.188 668.023 417.938 668.785 417.438 669.441C416.938 670.098 416.25 670.562 415.375 670.836ZM428.688 665.738H434.922V668H424.562V667.836L425.547 666.676C427.086 664.77 428.309 663.152 429.215 661.824C430.129 660.496 430.723 659.492 430.996 658.812C431.277 658.133 431.418 657.461 431.418 656.797C431.418 655.875 431.156 655.137 430.633 654.582C430.109 654.02 429.414 653.738 428.547 653.738C427.891 653.738 427.242 653.934 426.602 654.324C425.969 654.707 425.398 655.25 424.891 655.953V652.977C426.164 651.938 427.477 651.418 428.828 651.418C430.258 651.418 431.434 651.895 432.355 652.848C433.285 653.801 433.75 655.012 433.75 656.48C433.75 657.137 433.633 657.84 433.398 658.59C433.172 659.332 432.766 660.191 432.18 661.168C431.594 662.137 430.598 663.461 429.191 665.141L428.688 665.738ZM441.836 651.418C443.336 651.418 444.574 652.207 445.551 653.785C446.535 655.355 447.027 657.352 447.027 659.773C447.027 662.258 446.535 664.277 445.551 665.832C444.574 667.387 443.305 668.164 441.742 668.164C440.156 668.164 438.883 667.402 437.922 665.879C436.961 664.355 436.48 662.336 436.48 659.82C436.48 657.336 436.977 655.316 437.969 653.762C438.961 652.199 440.25 651.418 441.836 651.418ZM441.859 653.645H441.742C440.844 653.645 440.129 654.199 439.598 655.309C439.074 656.41 438.812 657.906 438.812 659.797C438.812 661.734 439.07 663.254 439.586 664.355C440.102 665.457 440.812 666.008 441.719 666.008C442.625 666.008 443.34 665.457 443.863 664.355C444.387 663.254 444.648 661.758 444.648 659.867C444.648 657.969 444.395 656.457 443.887 655.332C443.387 654.207 442.711 653.645 441.859 653.645ZM452.688 665.738H458.922V668H448.562V667.836L449.547 666.676C451.086 664.77 452.309 663.152 453.215 661.824C454.129 660.496 454.723 659.492 454.996 658.812C455.277 658.133 455.418 657.461 455.418 656.797C455.418 655.875 455.156 655.137 454.633 654.582C454.109 654.02 453.414 653.738 452.547 653.738C451.891 653.738 451.242 653.934 450.602 654.324C449.969 654.707 449.398 655.25 448.891 655.953V652.977C450.164 651.938 451.477 651.418 452.828 651.418C454.258 651.418 455.434 651.895 456.355 652.848C457.285 653.801 457.75 655.012 457.75 656.48C457.75 657.137 457.633 657.84 457.398 658.59C457.172 659.332 456.766 660.191 456.18 661.168C455.594 662.137 454.598 663.461 453.191 665.141L452.688 665.738ZM465.836 651.418C467.336 651.418 468.574 652.207 469.551 653.785C470.535 655.355 471.027 657.352 471.027 659.773C471.027 662.258 470.535 664.277 469.551 665.832C468.574 667.387 467.305 668.164 465.742 668.164C464.156 668.164 462.883 667.402 461.922 665.879C460.961 664.355 460.48 662.336 460.48 659.82C460.48 657.336 460.977 655.316 461.969 653.762C462.961 652.199 464.25 651.418 465.836 651.418ZM465.859 653.645H465.742C464.844 653.645 464.129 654.199 463.598 655.309C463.074 656.41 462.812 657.906 462.812 659.797C462.812 661.734 463.07 663.254 463.586 664.355C464.102 665.457 464.812 666.008 465.719 666.008C466.625 666.008 467.34 665.457 467.863 664.355C468.387 663.254 468.648 661.758 468.648 659.867C468.648 657.969 468.395 656.457 467.887 655.332C467.387 654.207 466.711 653.645 465.859 653.645Z" fill="white"/>
</g>
<defs>
<clipPath id="clip0">
<rect width="494" height="700" fill="white"/>
</clipPath>
</defs>
</svg>
