<svg width="1921" height="1080" viewBox="0 0 1921 1080" fill="none" xmlns="http://www.w3.org/2000/svg">
<rect x="1540" y="521" width="72" height="30" rx="10" transform="rotate(-90 1540 521)" fill="#69BF5A"/>
<rect x="1536" y="464" width="38" height="38" rx="10" transform="rotate(-90 1536 464)" fill="#69BF5A"/>
<rect x="1530" y="535" width="24" height="20" rx="10" transform="rotate(-90 1530 535)" fill="#69BF5A"/>
<rect x="1560" y="535" width="24" height="20" rx="10" transform="rotate(-90 1560 535)" fill="#69BF5A"/>
<rect x="1530" y="529" width="5" height="5" rx="2.5" transform="rotate(-90 1530 529)" fill="black"/>
<rect x="1536" y="444" width="5" height="5" rx="2.5" transform="rotate(-90 1536 444)" fill="black"/>
<rect x="1536" y="458" width="9" height="5" rx="2.5" transform="rotate(-90 1536 458)" fill="black"/>
<rect x="1560" y="529" width="5" height="5" rx="2.5" transform="rotate(-90 1560 529)" fill="black"/>
<rect x="1743" y="543" width="173" height="81" rx="10" transform="rotate(-90 1743 543)" fill="#534127"/>
<rect x="1885" y="320" width="196" height="66" rx="10" transform="rotate(180 1885 320)" fill="#4A6B1E"/>
<rect x="1824" y="320" width="77" height="114" rx="10" transform="rotate(180 1824 320)" fill="#44631B"/>
<rect x="1920.44" y="413" width="265.444" height="81" rx="10" transform="rotate(180 1920.44 413)" fill="#567E20"/>
<rect x="1920" y="359" width="265" height="50" rx="10" transform="rotate(180 1920 359)" fill="#567E20"/>
<rect x="1367" y="603" width="72" height="30" rx="10" transform="rotate(-90 1367 603)" fill="#8AAEFC"/>
<rect x="1352" y="647" width="72" height="30" rx="10" transform="rotate(-90 1352 647)" fill="#8AAEFC"/>
<rect x="1352" y="698" width="72" height="30" rx="10" transform="rotate(-90 1352 698)" fill="#8AAEFC"/>
<rect x="1362" y="734" width="72" height="30" rx="10" transform="rotate(-90 1362 734)" fill="#8AAEFC"/>
<rect x="1362" y="788" width="72" height="30" rx="10" transform="rotate(-90 1362 788)" fill="#8AAEFC"/>
<rect x="1362" y="846" width="72" height="30" rx="10" transform="rotate(-90 1362 846)" fill="#8AAEFC"/>
<rect x="1366" y="900" width="72" height="30" rx="10" transform="rotate(-90 1366 900)" fill="#8AAEFC"/>
<rect x="1370" y="932" width="49" height="11" rx="5.5" transform="rotate(-90 1370 932)" fill="#8AAEFC"/>
<rect x="1498" y="671" width="251" height="92" rx="19" fill="#B88D62"/>
<rect x="1498" y="671" width="251" height="92" rx="19" fill="black" fill-opacity="0.3"/>
<rect x="1461" y="602" width="251" height="92" rx="24" fill="#B88D62"/>
<rect x="1461" y="602" width="251" height="92" rx="24" fill="black" fill-opacity="0.2"/>
<rect x="1530" y="595" width="251" height="92" fill="#B88D62"/>
<rect x="1530" y="595" width="251" height="92" fill="black" fill-opacity="0.1"/>
<rect x="1530" y="611" width="251" height="92" rx="23" fill="#B88D62"/>
<rect x="1530" y="611" width="251" height="92" rx="23" fill="black" fill-opacity="0.1"/>
<rect x="1382" y="540" width="503" height="81" rx="10" fill="#B88D62"/>
<ellipse cx="1451.5" cy="521" rx="1.5" ry="1" fill="#5B4435"/>
<ellipse cx="1451.5" cy="511" rx="1.5" ry="1" fill="#5B4435"/>
<rect x="1449.26" y="535.18" width="19" height="4" rx="2" transform="rotate(-97.5017 1449.26 535.18)" fill="#168800"/>
<rect x="1447" y="520" width="15" height="4" rx="2" transform="rotate(-90 1447 520)" fill="#168800"/>
<ellipse cx="1447.5" cy="525" rx="1.5" ry="1" fill="#5B4435"/>
<circle cx="1449.5" cy="503.5" r="5.5" fill="#F5080D"/>
<ellipse cx="1446.5" cy="515" rx="1.5" ry="1" fill="#5B4435"/>
<rect x="1382" y="529" width="503" height="26" rx="7" fill="#A0C46D"/>
<rect x="1382" y="540" width="503" height="18" fill="#A0C46D"/>
</svg>
