<svg width="1921" height="1080" viewBox="0 0 1921 1080" fill="none" xmlns="http://www.w3.org/2000/svg">
<rect x="1539" y="491" width="72" height="30" rx="10" transform="rotate(-90 1539 491)" fill="black" fill-opacity="0.15"/>
<rect x="1535" y="434" width="38" height="38" rx="10" transform="rotate(-90 1535 434)" fill="black" fill-opacity="0.15"/>
<rect x="1529" y="505" width="24" height="20" rx="10" transform="rotate(-90 1529 505)" fill="black" fill-opacity="0.15"/>
<rect x="1559" y="505" width="24" height="20" rx="10" transform="rotate(-90 1559 505)" fill="black" fill-opacity="0.15"/>
<rect x="1529" y="499" width="5" height="5" rx="2.5" transform="rotate(-90 1529 499)" fill="black" fill-opacity="0.15"/>
<rect x="1535" y="414" width="5" height="5" rx="2.5" transform="rotate(-90 1535 414)" fill="black" fill-opacity="0.15"/>
<rect x="1535" y="428" width="9" height="5" rx="2.5" transform="rotate(-90 1535 428)" fill="black" fill-opacity="0.15"/>
<rect x="1559" y="499" width="5" height="5" rx="2.5" transform="rotate(-90 1559 499)" fill="black" fill-opacity="0.15"/>
<rect x="1758" y="513" width="173" height="42" rx="10" transform="rotate(-90 1758 513)" fill="#534127"/>
<rect x="1777" y="417" width="62" height="42" rx="10" transform="rotate(-90 1777 417)" fill="#534127"/>
<rect x="1780" y="517" width="62" height="42" rx="10" transform="rotate(-90 1780 517)" fill="#534127"/>
<rect x="1749.01" y="407.582" width="173" height="41" rx="10" transform="rotate(-96.6426 1749.01 407.582)" fill="#534127"/>
<rect x="1779" y="409.014" width="173" height="41" rx="10" transform="rotate(-79.3386 1779 409.014)" fill="#534127"/>
<rect x="1826.64" y="284.625" width="28.8521" height="108" rx="10" transform="rotate(-141.684 1826.64 284.625)" fill="#534127"/>
<rect x="1744.91" y="296.583" width="146.297" height="25.6896" rx="10" transform="rotate(-128.421 1744.91 296.583)" fill="#534127"/>
<rect x="1800.38" y="284.916" width="137" height="23" rx="10" transform="rotate(-99.8281 1800.38 284.916)" fill="#534127"/>
<rect x="1794" y="210.316" width="97.2738" height="15.6701" rx="7.83507" transform="rotate(-73.5991 1794 210.316)" fill="#534127"/>
<rect x="1693" y="221.193" width="86.7221" height="15.6701" rx="7.83507" transform="rotate(-73.5991 1693 221.193)" fill="#534127"/>
<rect x="1661.62" y="236" width="97.2738" height="15.6701" rx="7.83507" transform="rotate(29.1054 1661.62 236)" fill="#534127"/>
<rect x="1742" y="285.316" width="97.2738" height="15.6701" rx="7.83507" transform="rotate(-73.5991 1742 285.316)" fill="#534127"/>
<rect x="1815" y="351.623" width="97.2738" height="15.6701" rx="7.83507" transform="rotate(-60.4527 1815 351.623)" fill="#534127"/>
<rect x="1718.43" y="170.575" width="54.1256" height="8.56601" rx="4.283" transform="rotate(-124.215 1718.43 170.575)" fill="#534127"/>
<rect x="1761.83" y="225.259" width="54.1256" height="8.56601" rx="4.283" transform="rotate(-113.951 1761.83 225.259)" fill="#534127"/>
<rect x="1675.43" y="255.575" width="54.1256" height="8.56601" rx="4.283" transform="rotate(-124.215 1675.43 255.575)" fill="#534127"/>
<rect x="1805.47" y="171.045" width="58.8498" height="8.56601" rx="4.283" transform="rotate(-91.4316 1805.47 171.045)" fill="#534127"/>
<rect x="1777" y="468" width="72" height="30" rx="7" transform="rotate(-90 1777 468)" fill="#3C2F1C"/>
<rect x="1777" y="444" width="72" height="30" rx="7" transform="rotate(-90 1777 444)" fill="#3C2F1C"/>
<rect x="1790" y="417" width="45" height="30" rx="7" transform="rotate(-90 1790 417)" fill="#3C2F1C"/>
<rect x="1792" y="501" width="45" height="30" rx="7" transform="rotate(-90 1792 501)" fill="#3C2F1C"/>
<path d="M1767.79 360C1764.97 360 1762.5 358.098 1761.78 355.369L1761.04 352.559C1760.72 351.339 1761.24 350.054 1762.33 349.404C1762.77 349.14 1763.27 349 1763.79 349H1771C1772.66 349 1774 350.343 1774 352V353.788C1774 357.219 1771.22 360 1767.79 360Z" fill="#3C2F1C"/>
<path d="M1759.46 348.469C1759.18 348.397 1758.93 348.238 1758.74 348.014L1758.56 347.789C1757.85 346.918 1758.58 345.627 1759.69 345.78L1772.3 349.03C1772.69 349.131 1772.92 349.526 1772.82 349.915C1772.55 350.95 1771.5 351.573 1770.46 351.306L1759.46 348.469Z" fill="#3C2F1C"/>
<path d="M1811.43 350.294C1811.72 350.264 1811.99 350.143 1812.2 349.949L1812.42 349.754C1813.25 348.998 1812.72 347.614 1811.6 347.599L1798.65 348.939C1798.25 348.981 1797.96 349.337 1798 349.736C1798.11 350.8 1799.06 351.573 1800.13 351.463L1811.43 350.294Z" fill="#3C2F1C"/>
<path d="M1804.29 360C1801.47 360 1799 358.098 1798.28 355.369L1797.54 352.559C1797.22 351.339 1797.74 350.054 1798.83 349.404C1799.27 349.14 1799.77 349 1800.29 349H1807.5C1809.16 349 1810.5 350.343 1810.5 352V353.788C1810.5 357.219 1807.72 360 1804.29 360Z" fill="#3C2F1C"/>
<rect x="1811.43" y="334.575" width="54.1256" height="8.56601" rx="4.283" transform="rotate(-124.215 1811.43 334.575)" fill="#534127"/>
<rect x="1854" y="213.214" width="54.1256" height="8.56601" rx="4.283" transform="rotate(-74.7279 1854 213.214)" fill="#534127"/>
<rect x="1848" y="233.096" width="73.2039" height="15.1614" rx="7.58072" transform="rotate(-26.0047 1848 233.096)" fill="#534127"/>
<rect x="1667" y="297.074" width="54.1256" height="8.56601" rx="4.283" transform="rotate(-26.4092 1667 297.074)" fill="#534127"/>
<rect x="1368" y="573" width="72" height="30" rx="10" transform="rotate(-90 1368 573)" fill="#F96B29"/>
<rect x="1353" y="617" width="72" height="30" rx="10" transform="rotate(-90 1353 617)" fill="#F96B29"/>
<rect x="1353" y="668" width="72" height="30" rx="10" transform="rotate(-90 1353 668)" fill="#F96B29"/>
<rect x="1363" y="704" width="72" height="30" rx="10" transform="rotate(-90 1363 704)" fill="#F96B29"/>
<rect x="1363" y="758" width="72" height="30" rx="10" transform="rotate(-90 1363 758)" fill="#F96B29"/>
<rect x="1363" y="814" width="72" height="30" rx="10" transform="rotate(-90 1363 814)" fill="#F96B29"/>
<rect x="1367" y="870" width="72" height="30" rx="10" transform="rotate(-90 1367 870)" fill="#F96B29"/>
<rect x="1369" y="902" width="49" height="13" rx="6.5" transform="rotate(-90 1369 902)" fill="#F96B29"/>
<rect x="1368" y="637" width="19" height="89" rx="2.5" fill="#F9923B"/>
<rect x="1358" y="599" width="21" height="64" rx="2.5" fill="#F9923B"/>
<rect x="1358" y="551" width="21" height="66" rx="2.5" fill="#F9923B"/>
<rect x="1368" y="623" width="5" height="24" rx="2.5" fill="#FDC84E"/>
<rect x="1377" y="659" width="5" height="12" rx="2.5" fill="#FDC84E"/>
<rect x="1373" y="834" width="5" height="44" rx="2.5" fill="#F9923B"/>
<rect x="1368" y="718" width="19" height="60" rx="2.5" fill="#F9923B"/>
<rect x="1373" y="804" width="18" height="59" rx="2.5" fill="#F9923B"/>
<rect x="1368" y="772" width="19" height="37" rx="2.5" fill="#F9923B"/>
<rect x="1377" y="743" width="5" height="24" rx="2.5" fill="#FDC84E"/>
<rect x="1380" y="812" width="5" height="24" rx="2.5" fill="#FDC84E"/>
<rect x="1367" y="565" width="5" height="24" rx="2.5" fill="#FDC84E"/>
<rect x="1356" y="555" width="5" height="100" rx="2.5" fill="#F96B29"/>
<rect x="1365" y="663" width="5" height="135" rx="2.5" fill="#F96B29"/>
<rect x="1372" y="534" width="7" height="30" rx="2.5" fill="#F9923B"/>
<rect x="1375" y="690" width="5" height="24" rx="2.5" fill="#FDC84E"/>
<rect x="1387" y="846" width="5" height="20" rx="2.5" fill="#F96B29"/>
<rect x="1378" y="861" width="11" height="5" rx="2.5" fill="#F96B29"/>
<rect x="1387" y="787" width="6" height="20" rx="2.5" fill="#F96B29"/>
<rect x="1385" y="699" width="5" height="59" rx="2.5" fill="#F96B29"/>
<rect x="1356" y="645" width="5" height="20" rx="2.5" fill="#F96B29"/>
<rect x="1359" y="660" width="5" height="7" rx="2.5" fill="#F96B29"/>
<rect x="1359" y="548" width="5" height="7" rx="2.5" fill="#F96B29"/>
<rect x="1379" y="635" width="12" height="5" rx="2.5" fill="#F96B29"/>
<rect x="1384" y="636" width="4" height="10" rx="2" fill="#F96B29"/>
<rect x="1356" y="549" width="5" height="16" rx="2.5" fill="#F96B29"/>
<rect x="1360" y="549" width="12" height="3" rx="1.5" fill="#F96B29"/>
<rect x="1366" y="790" width="7" height="22" rx="2.5" fill="#F96B29"/>
<rect x="1378" y="849" width="5" height="9" rx="2.5" fill="#FDC84E"/>
<rect x="1378" y="784" width="5" height="9" rx="2.5" fill="#FDC84E"/>
<rect x="1375" y="723" width="5" height="9" rx="2.5" fill="#FDC84E"/>
<rect x="1368" y="600" width="5" height="9" rx="2.5" fill="#FDC84E"/>
<rect x="1391" y="838" width="5" height="20" rx="2.5" fill="#F96B29"/>
<rect x="1585" y="724" width="45" height="18" rx="7" fill="#696969"/>
<rect x="1688" y="483" width="45" height="18" rx="7" fill="#818181"/>
<rect x="1688" y="483" width="45" height="18" rx="7" fill="black" fill-opacity="0.3"/>
<rect x="1800" y="585" width="45" height="18" rx="7" fill="#818181"/>
<rect x="1800" y="585" width="45" height="18" rx="7" fill="black" fill-opacity="0.3"/>
<rect x="1497" y="639" width="251" height="92" rx="19" fill="#696969"/>
<rect x="1460" y="570" width="251" height="92" rx="24" fill="#7A7A7A"/>
<rect x="1460" y="570" width="251" height="92" rx="24" fill="black" fill-opacity="0.2"/>
<rect x="1529" y="570" width="251" height="101" rx="23" fill="#686868"/>
<rect x="1529" y="570" width="251" height="101" rx="23" fill="black" fill-opacity="0.1"/>
<rect x="1622" y="490" width="45" height="18" rx="7" fill="#818181"/>
<rect x="1622" y="490" width="45" height="18" rx="7" fill="black" fill-opacity="0.3"/>
<rect x="1381" y="508" width="503" height="81" rx="10" fill="#818181"/>
<rect x="1381" y="508" width="503" height="81" rx="10" fill="black" fill-opacity="0.3"/>
<path d="M1431.83 440.043C1432.8 440.031 1433.63 440.713 1433.82 441.662L1434.56 445.511L1435.17 448.647C1435.41 449.872 1434.48 451.013 1433.23 451.027L1431.63 451.046L1428.13 451.086C1427.02 451.099 1426.12 450.214 1426.1 449.109L1426.06 445.609L1426.02 442.11C1426.01 441.005 1426.9 440.099 1428 440.087L1431.5 440.046L1431.83 440.043Z" fill="#534127"/>
<path d="M1420.48 453.984C1419.54 453.619 1419.02 452.611 1419.26 451.633L1420.76 445.672L1422.13 440.198C1422.43 439.031 1423.68 438.385 1424.8 438.821L1425.29 439.013C1425.95 439.268 1426.42 439.851 1426.54 440.546L1427.12 443.981L1428.35 448.039C1428.48 448.467 1428.46 448.927 1428.3 449.345L1426.44 454.152C1426.04 455.182 1424.88 455.692 1423.85 455.292L1420.67 454.057L1420.48 453.984Z" fill="#534127"/>
<rect x="1406" y="449" width="49" height="49" rx="5" fill="#DD8C1B"/>
<path d="M1414 482C1414 480.895 1414.9 480 1416 480H1422.5L1430.25 480.969C1430.42 480.99 1430.58 480.99 1430.75 480.969L1438.5 480H1445C1446.1 480 1447 480.895 1447 482V484.674C1447 485.708 1446.21 486.572 1445.18 486.665L1430.68 487.984C1430.56 487.994 1430.44 487.994 1430.32 487.984L1415.82 486.665C1414.79 486.572 1414 485.708 1414 484.674V482Z" fill="#534127"/>
<path d="M1410 480.735C1410 479.739 1410.73 478.895 1411.72 478.755L1413.2 478.543C1413.4 478.514 1413.6 478.516 1413.8 478.547L1421.31 479.733C1422.28 479.887 1423 480.725 1423 481.709V482V482.558C1423 483.419 1422.45 484.184 1421.63 484.456L1417.59 485.804C1417.2 485.932 1416.79 485.941 1416.41 485.83L1411.45 484.414C1410.59 484.169 1410 483.384 1410 482.491V480.735Z" fill="#534127"/>
<path d="M1410 478.477C1410 477.77 1410.71 477.286 1411.37 477.549L1413.86 478.542C1414.45 478.778 1414.67 479.497 1414.32 480.025L1413.3 481.555C1413.11 481.833 1412.8 482 1412.46 482H1411C1410.45 482 1410 481.552 1410 481V478.477Z" fill="#534127"/>
<path d="M1446.68 480.025C1446.33 479.497 1446.55 478.778 1447.14 478.542L1449.63 477.549C1450.29 477.286 1451 477.77 1451 478.477V481C1451 481.552 1450.55 482 1450 482H1448.54C1448.2 482 1447.89 481.833 1447.7 481.555L1446.68 480.025Z" fill="#534127"/>
<path d="M1438.69 480.886C1438.88 480.056 1439.57 479.433 1440.41 479.334L1447.24 478.53C1447.41 478.51 1447.59 478.512 1447.76 478.537L1449.28 478.755C1450.27 478.895 1451 479.739 1451 480.735V482.523C1451 483.401 1450.43 484.176 1449.59 484.434L1445.09 485.819C1444.7 485.937 1444.3 485.937 1443.91 485.819L1439.76 484.543C1438.77 484.236 1438.17 483.215 1438.4 482.198L1438.69 480.886Z" fill="#534127"/>
<path d="M1424 487C1424 485.895 1424.9 485 1426 485H1435C1436.1 485 1437 485.895 1437 487V487.284C1437 488.271 1436.28 489.111 1435.3 489.261L1430.8 489.953C1430.6 489.984 1430.4 489.984 1430.2 489.953L1425.7 489.261C1424.72 489.111 1424 488.271 1424 487.284V487Z" fill="#534127"/>
<path d="M1413.5 462.397C1413.5 461.149 1414.63 460.206 1415.86 460.429L1419 461L1423.03 462.098C1423.9 462.336 1424.5 463.126 1424.5 464.028V464.5V467.5C1424.5 468.605 1423.6 469.5 1422.5 469.5H1418.5H1415.5C1414.4 469.5 1413.5 468.605 1413.5 467.5V464V462.397Z" fill="#534127"/>
<path d="M1436.5 463.669C1436.5 462.703 1437.19 461.875 1438.14 461.702L1442 461L1445.14 460.429C1446.37 460.206 1447.5 461.149 1447.5 462.397V464V467.5C1447.5 468.605 1446.6 469.5 1445.5 469.5H1442H1438.5C1437.4 469.5 1436.5 468.605 1436.5 467.5V464V463.669Z" fill="#534127"/>
<path d="M1414 463.44C1414 462.178 1415.15 461.231 1416.39 461.478L1422.39 462.678C1423.33 462.865 1424 463.686 1424 464.64V467C1424 468.105 1423.1 469 1422 469H1416C1414.9 469 1414 468.105 1414 467V463.44Z" fill="#FE9A42"/>
<path d="M1410.94 480.078C1411.14 479.184 1412.06 478.646 1412.94 478.908L1421.16 481.362C1421.8 481.552 1422.18 482.204 1422.04 482.855C1421.89 483.541 1421.21 483.973 1420.52 483.821L1412.14 481.961C1411.29 481.772 1410.76 480.929 1410.94 480.078Z" fill="#FE9A42"/>
<path d="M1449.53 480.155C1449.33 479.261 1448.41 478.723 1447.54 478.985L1439.31 481.439C1438.67 481.629 1438.29 482.281 1438.43 482.932C1438.59 483.618 1439.27 484.05 1439.95 483.898L1448.33 482.037C1449.18 481.849 1449.72 481.006 1449.53 480.155Z" fill="#FE9A42"/>
<path d="M1437 464.64C1437 463.686 1437.67 462.865 1438.61 462.678L1444.61 461.478C1445.85 461.231 1447 462.178 1447 463.44V467C1447 468.105 1446.1 469 1445 469H1439C1437.9 469 1437 468.105 1437 467V464.64Z" fill="#FE9A42"/>
<path d="M1438 465.562C1438 464.644 1438.62 463.844 1439.51 463.621L1443.51 462.621C1444.78 462.306 1446 463.26 1446 464.562V466.19C1446 467.218 1445.22 468.078 1444.2 468.18L1441 468.5H1440C1438.9 468.5 1438 467.605 1438 466.5V465.562Z" fill="#FDC84E"/>
<path d="M1415 464.41C1415 463.158 1416.14 462.213 1417.37 462.444L1421.37 463.194C1422.31 463.371 1423 464.197 1423 465.16V466.5C1423 467.605 1422.1 468.5 1421 468.5H1419L1416.75 468.219C1415.75 468.094 1415 467.243 1415 466.234V464.41Z" fill="#FDC84E"/>
<path d="M1415 481.38C1415 481.147 1414.87 480.934 1414.66 480.83C1414.03 480.514 1414.34 479.557 1415.04 479.674L1422.98 481L1430.3 481.73C1430.43 481.743 1430.57 481.743 1430.7 481.73L1438.02 481L1445.81 479.581C1446.52 479.451 1446.91 480.396 1446.3 480.801C1446.11 480.925 1446 481.135 1446 481.359V484.074C1446 485.098 1445.23 485.956 1444.21 486.063L1430.71 487.478C1430.57 487.493 1430.43 487.493 1430.29 487.478L1416.79 486.063C1415.77 485.956 1415 485.098 1415 484.074V481.38Z" fill="#FE9A42"/>
<path d="M1410.5 480.65C1410.7 478.982 1412.74 478.29 1413.92 479.494L1414.35 479.941C1414.53 480.124 1414.74 480.271 1414.98 480.374L1417.43 481.463C1417.66 481.566 1417.91 481.623 1418.16 481.633L1421.04 481.749C1421.17 481.755 1421.3 481.771 1421.42 481.8L1422.8 482.121C1423.87 482.372 1424.54 483.447 1424.29 484.523L1424.19 484.979C1423.96 485.951 1423.05 486.608 1422.06 486.517L1416.75 486.034C1416.27 486.012 1415.81 485.81 1415.47 485.467L1415.33 485.334C1415.11 485.114 1414.85 484.949 1414.55 484.851L1413.5 484.5L1411.77 483.983C1410.84 483.704 1410.24 482.794 1410.36 481.827L1410.5 480.65Z" fill="#FE9A42"/>
<path d="M1450.25 480.792C1450.05 479.123 1448.01 478.432 1446.84 479.635L1446.4 480.083C1446.22 480.265 1446.01 480.412 1445.78 480.515L1443.32 481.605C1443.09 481.707 1442.84 481.765 1442.59 481.775L1439.71 481.891C1439.58 481.896 1439.46 481.913 1439.34 481.941L1437.96 482.263C1436.88 482.513 1436.21 483.588 1436.46 484.664L1436.57 485.12C1436.79 486.093 1437.7 486.749 1438.7 486.658L1444 486.175L1444.44 486.097C1444.81 486.034 1445.15 485.87 1445.42 485.625L1445.85 485.251C1446.03 485.085 1446.25 484.956 1446.49 484.87L1447.5 484.5L1448.94 484.101C1449.89 483.837 1450.51 482.916 1450.39 481.934L1450.25 480.792Z" fill="#FE9A42"/>
<path d="M1436.52 486.361C1436.32 485.131 1435.05 484.385 1433.88 484.804L1431.63 485.607C1430.79 485.905 1430.29 486.758 1430.43 487.632C1430.6 488.631 1431.54 489.306 1432.54 489.141L1434.89 488.751C1435.98 488.571 1436.72 487.541 1436.54 486.452L1436.52 486.361Z" fill="#FE9A42"/>
<path d="M1424.55 486.411C1424.75 485.183 1426.01 484.437 1427.19 484.853L1429.46 485.658C1430.29 485.952 1430.78 486.797 1430.64 487.663C1430.48 488.651 1429.54 489.32 1428.56 489.156L1426.18 488.763C1425.09 488.583 1424.36 487.553 1424.54 486.464L1424.55 486.411Z" fill="#FE9A42"/>
<path d="M1427 486H1434V488.571L1432 489C1431.41 489 1431.09 489 1430.5 489C1430.5 489 1429.59 489 1429 489L1427 488.571V486Z" fill="#FE9A42"/>
<path d="M1448.77 482.489C1449.45 482.714 1450.18 482.282 1450.3 481.574L1450.41 480.922L1450.45 480.423L1450.54 479.035C1450.59 478.336 1449.85 477.859 1449.23 478.19L1447.76 478.978C1447.39 479.174 1447.51 479.727 1447.93 479.754C1448.2 479.773 1448.38 480.054 1448.29 480.314L1447.99 481.095C1447.78 481.644 1448.07 482.257 1448.63 482.441L1448.77 482.489Z" fill="#FE9A42"/>
<path d="M1412.03 482.672C1411.34 482.852 1410.65 482.372 1410.57 481.658L1410.5 481L1410.5 480.5L1410.5 479.108C1410.5 478.408 1411.27 477.981 1411.86 478.353L1413.28 479.236C1413.63 479.456 1413.47 480 1413.06 480C1412.78 480 1412.58 480.269 1412.66 480.534L1412.91 481.334C1413.08 481.896 1412.75 482.487 1412.18 482.635L1412.03 482.672Z" fill="#FE9A42"/>
<path d="M1410.79 481.637C1410.69 479.755 1413.02 478.795 1414.28 480.195L1414.54 480.492C1414.84 480.821 1415.24 481.043 1415.67 481.122L1420.5 482L1425 482.5L1427.78 482.5C1428.77 482.5 1429.61 483.224 1429.76 484.203L1430.06 486.245C1430.34 488.109 1428.03 489.2 1426.77 487.799C1426.59 487.602 1426.38 487.444 1426.13 487.336L1423.71 486.252C1423.53 486.169 1423.33 486.115 1423.13 486.091L1416.99 485.363L1416.93 485.358C1416.52 485.325 1416.13 485.167 1415.82 484.905L1415.65 484.77C1415.45 484.604 1415.22 484.479 1414.98 484.402L1413.96 484.085L1412.25 483.594C1411.42 483.359 1410.84 482.628 1410.8 481.775L1410.79 481.637Z" fill="#FDC84E"/>
<path d="M1449.8 481.637C1449.9 479.755 1447.57 478.795 1446.31 480.195L1446.05 480.492C1445.75 480.821 1445.35 481.043 1444.92 481.122L1440.09 482L1435.59 482.5L1432.81 482.5C1431.82 482.5 1430.98 483.224 1430.83 484.203L1430.53 486.245C1430.25 488.109 1432.56 489.2 1433.82 487.799C1434 487.602 1434.22 487.444 1434.46 487.336L1436.88 486.252C1437.06 486.169 1437.26 486.115 1437.46 486.091L1443.6 485.363L1443.66 485.358C1444.07 485.325 1444.46 485.167 1444.77 484.905L1444.94 484.77C1445.14 484.604 1445.37 484.479 1445.61 484.402L1446.63 484.085L1448.34 483.594C1449.17 483.359 1449.75 482.628 1449.79 481.775L1449.8 481.637Z" fill="#FDC84E"/>
<path d="M1426.43 484.858C1426.21 483.63 1427.15 482.5 1428.4 482.5H1430H1432C1433.1 482.5 1434 483.395 1434 484.5V486.36C1434 487.314 1433.33 488.135 1432.39 488.322L1431.69 488.461C1431.57 488.487 1431.43 488.5 1431.3 488.5H1429.25C1429.08 488.5 1428.92 488.48 1428.76 488.44L1428.25 488.313C1427.49 488.122 1426.91 487.503 1426.77 486.73L1426.43 484.858Z" fill="#FDC84E"/>
<rect x="1381" y="497" width="503" height="26" rx="7" fill="#818181"/>
<rect x="1381" y="497" width="503" height="26" rx="7" fill="black" fill-opacity="0.3"/>
</svg>
