<svg width="292" height="288" viewBox="0 0 292 288" fill="none" xmlns="http://www.w3.org/2000/svg">
<g style="mix-blend-mode:hard-light">
<path d="M2.20001 144.4C2.20001 117.2 8.32909 92.8 20.5872 71.2C32.8454 49.3333 49.5005 32.2667 70.5526 20C91.8711 7.73332 115.455 1.59999 141.303 1.59999C171.682 1.59999 198.197 8.93332 220.848 23.6C243.499 38.2667 260.021 59.0667 270.414 86H226.844C219.116 69.2 207.924 56.2667 193.267 47.2C178.877 38.1333 161.556 33.6 141.303 33.6C121.85 33.6 104.396 38.1333 88.9398 47.2C73.4838 56.2667 61.3589 69.2 52.565 86C43.7711 102.533 39.3742 122 39.3742 144.4C39.3742 166.533 43.7711 186 52.565 202.8C61.3589 219.333 73.4838 232.133 88.9398 241.2C104.396 250.267 121.85 254.8 141.303 254.8C161.556 254.8 178.877 250.4 193.267 241.6C207.924 232.533 219.116 219.6 226.844 202.8H270.414C260.021 229.467 243.499 250.133 220.848 264.8C198.197 279.2 171.682 286.4 141.303 286.4C115.455 286.4 91.8711 280.4 70.5526 268.4C49.5005 256.133 32.8454 239.2 20.5872 217.6C8.32909 196 2.20001 171.6 2.20001 144.4Z" fill="#282828"/>
</g>
<path d="M272.192 142.33C275.484 142.85 278.471 144.193 281.156 146.36C283.928 148.527 286.093 151.213 287.652 154.42C289.297 157.627 290.12 161.05 290.12 164.69C290.12 169.283 288.951 173.443 286.612 177.17C284.274 180.81 280.853 183.713 276.35 185.88C271.933 187.96 266.693 189 260.63 189H226.854V98.39H259.331C265.48 98.39 270.72 99.43 275.05 101.51C279.381 103.503 282.629 106.233 284.794 109.7C286.959 113.167 288.041 117.067 288.041 121.4C288.041 126.773 286.569 131.237 283.625 134.79C280.767 138.257 276.956 140.77 272.192 142.33ZM238.676 137.52H258.552C264.095 137.52 268.382 136.22 271.413 133.62C274.444 131.02 275.96 127.423 275.96 122.83C275.96 118.237 274.444 114.64 271.413 112.04C268.382 109.44 264.008 108.14 258.292 108.14H238.676V137.52ZM259.591 179.25C265.48 179.25 270.071 177.863 273.362 175.09C276.653 172.317 278.298 168.46 278.298 163.52C278.298 158.493 276.566 154.55 273.102 151.69C269.638 148.743 265.004 147.27 259.201 147.27H238.676V179.25H259.591Z" fill="#282828"/>
<g style="mix-blend-mode:hard-light">
<path d="M162.888 145C162.888 156.046 153.94 165 142.902 165C131.864 165 122.916 156.046 122.916 145C122.916 133.954 131.864 125 142.902 125C153.94 125 162.888 133.954 162.888 145Z" fill="#282828"/>
</g>
<style>
    @media (prefers-color-scheme: dark) {
      path {
        fill: #fff;
      }
    }
  </style>
</svg>
