<svg width="2058" height="3261" viewBox="0 0 2058 3261" fill="none" xmlns="http://www.w3.org/2000/svg">
<g clip-path="url(#clip0)">
<path d="M570.56 68.51V187H555.09V68.51H570.56ZM791.168 68.51L756.828 187H739.488L711.948 91.63L683.388 187L666.218 187.17L633.068 68.51H649.558L675.398 168.98L703.958 68.51H721.298L748.498 168.64L774.508 68.51H791.168ZM848.728 188.53C840.001 188.53 832.068 186.547 824.928 182.58C817.901 178.613 812.348 173.003 808.268 165.75C804.301 158.383 802.318 149.883 802.318 140.25C802.318 130.73 804.358 122.343 808.438 115.09C812.631 107.723 818.298 102.113 825.438 98.26C832.578 94.2933 840.568 92.31 849.408 92.31C858.248 92.31 866.238 94.2933 873.378 98.26C880.518 102.113 886.128 107.667 890.208 114.92C894.401 122.173 896.498 130.617 896.498 140.25C896.498 149.883 894.344 158.383 890.038 165.75C885.844 173.003 880.121 178.613 872.868 182.58C865.614 186.547 857.568 188.53 848.728 188.53ZM848.728 174.93C854.281 174.93 859.494 173.627 864.368 171.02C869.241 168.413 873.151 164.503 876.098 159.29C879.158 154.077 880.688 147.73 880.688 140.25C880.688 132.77 879.214 126.423 876.268 121.21C873.321 115.997 869.468 112.143 864.708 109.65C859.948 107.043 854.791 105.74 849.238 105.74C843.571 105.74 838.358 107.043 833.598 109.65C828.951 112.143 825.211 115.997 822.378 121.21C819.544 126.423 818.128 132.77 818.128 140.25C818.128 147.843 819.488 154.247 822.208 159.46C825.041 164.673 828.781 168.583 833.428 171.19C838.074 173.683 843.174 174.93 848.728 174.93ZM932.308 108.97C935.028 103.643 938.881 99.5067 943.868 96.56C948.968 93.6133 955.145 92.14 962.398 92.14V108.12H958.318C940.978 108.12 932.308 117.527 932.308 136.34V187H916.838V93.84H932.308V108.97ZM1032.28 187L995.726 145.86V187H980.256V61.2H995.726V135.15L1031.6 93.84H1053.19L1009.33 140.25L1053.36 187H1032.28ZM1121.06 78.71C1118.11 78.71 1115.62 77.69 1113.58 75.65C1111.54 73.61 1110.52 71.1167 1110.52 68.17C1110.52 65.2233 1111.54 62.73 1113.58 60.69C1115.62 58.65 1118.11 57.63 1121.06 57.63C1123.89 57.63 1126.27 58.65 1128.2 60.69C1130.24 62.73 1131.26 65.2233 1131.26 68.17C1131.26 71.1167 1130.24 73.61 1128.2 75.65C1126.27 77.69 1123.89 78.71 1121.06 78.71ZM1128.54 93.84V187H1113.07V93.84H1128.54ZM1200.29 92.14C1211.63 92.14 1220.81 95.5967 1227.83 102.51C1234.86 109.31 1238.37 119.17 1238.37 132.09V187H1223.07V134.3C1223.07 125.007 1220.75 117.923 1216.1 113.05C1211.46 108.063 1205.11 105.57 1197.06 105.57C1188.9 105.57 1182.39 108.12 1177.51 113.22C1172.75 118.32 1170.37 125.743 1170.37 135.49V187H1154.9V93.84H1170.37V107.1C1173.43 102.34 1177.57 98.6567 1182.78 96.05C1188.11 93.4433 1193.95 92.14 1200.29 92.14Z" fill="black"/>
<path d="M1815 192H171C159.954 192 151 200.954 151 212V1143C151 1154.05 159.954 1163 171 1163H1815C1826.05 1163 1835 1154.05 1835 1143V212C1835 200.954 1826.05 192 1815 192Z" fill="#6FC9FF"/>
<path d="M151.5 1163.5H1834.5V2024.5H151.5V1163.5Z" fill="#2C8DE8" stroke="black"/>
<path d="M803.831 1795.18C774.092 1814.37 751.996 1848.87 749.298 1886.65C745.391 1941.61 780.457 1990.34 817.832 2027.06C855.207 2063.77 898.288 2096.9 920.073 2146.54C943.977 2201.11 935.812 2270.8 900.086 2316.95C884.717 2336.82 863.311 2356.92 866.219 2382.83C868.937 2406.99 893.551 2422.07 915.676 2420.94C937.801 2419.81 957.837 2407.03 977.154 2395.12C1046.41 2352.4 1121.88 2315.8 1201.28 2315.11C1286.42 2314.38 1366.82 2354.73 1443.98 2394.27L1554.9 2451.12C1577.97 2462.94 1601.62 2474.95 1626.97 2477.49C1652.31 2480.04 1678.04 2472.8 1700.55 2459.7C1724.63 2445.7 1746.51 2422.78 1751.44 2393.32C1757.97 2354.16 1733.45 2316.95 1730.14 2277.3C1726.88 2238.08 1744.68 2200.47 1765.39 2168.38C1786.11 2136.28 1810.59 2106.24 1824.01 2069.71C1851.58 1994.64 1824.73 1904.44 1771.71 1848.25C1718.68 1792.07 1644.37 1765.8 1571.05 1758.18C1543.56 1755.33 1515.73 1754.85 1488.42 1759.35C1434.04 1768.35 1384.15 1796.61 1332.52 1817.31C1240.25 1854.29 1137.12 1867.12 1043.6 1834.05C968.32 1807.47 881.699 1744.95 803.831 1795.18Z" fill="#1C1D21"/>
<path d="M2007.24 2085.94C1994.94 2052.73 1966.01 2023.67 1929.67 2012.82C1876.8 1997.06 1821.56 2020.7 1777.56 2049.2C1733.56 2077.71 1691.83 2112.56 1638.58 2123.04C1580.05 2134.51 1513.71 2111.39 1476.35 2066.49C1460.27 2047.17 1445.27 2021.9 1419.32 2019.11C1395.11 2016.51 1375.02 2037.26 1371.33 2059.1C1367.63 2080.95 1375.77 2103.28 1383.22 2124.73C1409.95 2201.62 1429.33 2283.24 1412.77 2360.9C1395.01 2444.16 1338.11 2513.88 1282.72 2580.61L1203.07 2676.53C1186.51 2696.48 1169.64 2716.96 1161.65 2741.14C1153.66 2765.33 1155.16 2792.02 1163.08 2816.84C1171.52 2843.39 1189.18 2869.73 1216.91 2880.95C1253.76 2895.83 1295.46 2879.99 1334.93 2885.36C1373.97 2890.71 1406.87 2916.26 1433.75 2943.46C1460.62 2970.65 1484.67 3001.08 1517.46 3022.12C1584.85 3065.35 1678.85 3058.75 1745.27 3019.2C1811.7 2979.65 1853.51 2912.82 1876.87 2842.9C1885.63 2816.69 1892.14 2789.63 1893.66 2761.99C1896.67 2706.95 1879.88 2652.11 1870.84 2597.21C1854.73 2499.1 1864.58 2395.64 1917.2 2311.54C1959.52 2243.83 2039.43 2172.86 2007.24 2085.94Z" fill="#1C1D21"/>
<path d="M1835 2009H151V2871H1835V2009Z" fill="#1C1D21"/>
<path d="M1562.1 1781.33C1560.14 1797.64 1564.84 1823.19 1575.63 1848.57C1591.33 1885.5 1615.36 1913.6 1636.34 1933.46C1657.31 1953.32 1678.7 1970.11 1699.52 2000.41C1722.4 2033.74 1741.46 2080.94 1746.13 2115.86C1748.15 2130.88 1748.65 2146.8 1757.29 2163.63C1765.36 2179.33 1776.41 2186.37 1781.87 2182.96C1787.33 2179.55 1788.69 2168.66 1790.14 2158.43C1795.3 2121.76 1803.96 2088.4 1824.59 2078.39C1846.7 2067.66 1880.07 2084.75 1912.34 2101.69L1958.74 2126.05C1968.39 2131.12 1978.25 2136.23 1985.67 2134.87C1993.1 2133.51 1997.64 2125.61 1999.56 2114.21C2001.62 2102.03 2000.38 2084.19 1992.71 2064.06C1982.51 2037.3 1964.75 2015.56 1951.82 1989.66C1939.03 1964.04 1932.25 1936.95 1927.92 1913.16C1923.58 1889.38 1920.86 1866.5 1913.27 1840.66C1897.66 1787.54 1863.16 1730.94 1832.16 1700.05C1801.15 1669.17 1773.66 1660.68 1752.11 1664.45C1744.03 1665.87 1736.58 1668.9 1730.79 1675.18C1719.26 1687.69 1714.77 1712.44 1707.53 1732.39C1694.57 1768.02 1671.42 1788.94 1636.83 1778.26C1608.99 1769.69 1567.24 1738.64 1562.1 1781.33Z" fill="#1C1D21"/>
<path d="M151 2846.08C150.971 2828.58 154.365 2811.13 161.108 2794.14C163.376 2788.42 166.012 2782.82 169.014 2777.33C172.693 2770.55 176.95 2763.91 181.767 2757.42C184.198 2754.15 186.767 2750.93 189.474 2747.77C189.431 2729.82 195.355 2712.06 206.874 2695.61C227.705 2666.11 264.834 2642.24 311.502 2628.38C340.719 2619.68 372.65 2615.12 405.021 2615H1515.3C1564.7 2614.93 1613.25 2623.02 1656.01 2638.45C1662.33 2640.74 1668.49 2643.17 1674.48 2645.75C1687.5 2651.36 1699.73 2657.65 1711.04 2664.55C1726.35 2673.89 1739.84 2684.33 1751.23 2695.64C1777.98 2722.14 1792.16 2752.82 1792.11 2784.13C1819.2 2813.78 1835 2849.3 1835 2887.46C1835 2935.62 1809.89 2979.55 1768.65 3012.8C1760.05 3019.75 1750.63 3026.28 1740.47 3032.36C1730.44 3038.36 1719.66 3043.87 1708.24 3048.81C1699.1 3052.77 1689.55 3056.35 1679.64 3059.51C1675.51 3060.83 1671.37 3062.06 1667.15 3063.21C1663.45 3064.24 1659.7 3065.19 1655.91 3066.09C1651.36 3067.17 1646.76 3068.16 1642.1 3069.06C1637.44 3069.96 1632.84 3070.75 1628.3 3071.43C1621.63 3072.45 1614.84 3073.28 1607.94 3073.91C1602.22 3074.44 1596.51 3074.8 1590.79 3075.09C1586.24 3075.29 1581.66 3075.41 1577.03 3075.44H1574.53C1569.44 3075.44 1564.38 3075.32 1559.36 3075.11C1558.83 3075.77 1558.26 3076.43 1557.73 3077.09C1555.73 3079.47 1553.66 3081.84 1551.57 3084.17V3084.23C1551.21 3084.63 1550.85 3085.03 1550.48 3085.42C1548.79 3087.32 1547.04 3089.2 1545.23 3091.07C1544.41 3091.96 1543.59 3092.8 1542.75 3093.65C1542.56 3093.85 1542.38 3094.05 1542.16 3094.25C1541.3 3095.14 1540.43 3096.04 1539.54 3096.93C1535.13 3101.32 1530.54 3105.65 1525.78 3109.9C1525.36 3110.27 1524.98 3110.62 1524.56 3110.98C1523.82 3111.64 1523.13 3112.29 1522.3 3112.94C1520.33 3114.66 1518.3 3116.39 1516.25 3118.1C1514.82 3119.3 1513.39 3120.5 1511.85 3121.66C1508.13 3124.66 1504.32 3127.64 1500.41 3130.58C1496.51 3133.52 1492.39 3136.49 1488.23 3139.38C1487.66 3139.78 1487.09 3140.18 1486.49 3140.58L1480.38 3144.72C1480.08 3144.92 1479.82 3145.1 1479.54 3145.28C1478.81 3145.77 1478.11 3146.26 1477.32 3146.74C1474.05 3148.9 1470.69 3151.03 1467.31 3153.13C1450.08 3163.82 1431.72 3173.77 1412.36 3182.92C1411.6 3183.29 1410.83 3183.65 1410.07 3184.01C1406.44 3185.72 1402.75 3187.4 1399.06 3189.06C1378.77 3198.14 1357.56 3206.39 1335.56 3213.76C1334.05 3214.3 1332.5 3214.81 1330.95 3215.32C1311.22 3221.82 1290.94 3227.64 1270.2 3232.76C1258.89 3235.55 1247.39 3238.15 1235.68 3240.57C1227.93 3242.15 1220.16 3243.66 1212.28 3245.03C1200.1 3247.21 1187.76 3249.18 1175.28 3250.93C1138.49 3256.08 1101.07 3259.26 1063.41 3260.44C1051.98 3260.81 1040.41 3261 1028.71 3261C972.283 3261.05 916.071 3256.61 861.435 3247.8C860.87 3247.27 860.098 3246.84 859.19 3246.54C858.282 3246.25 857.269 3246.1 856.245 3246.12H851.441C849.354 3245.77 847.281 3245.4 845.193 3245.03C833.536 3242.93 822.046 3240.64 810.723 3238.17L807.863 3237.53C779.915 3231.33 752.722 3223.88 726.497 3215.24C702.859 3207.46 680.098 3198.69 658.37 3188.98C655.024 3187.48 651.726 3185.97 648.476 3184.44C644.53 3186.03 640.517 3187.54 636.438 3188.98C620.683 3194.58 603.95 3199.02 586.569 3202.23C550.228 3208.94 511.776 3209.88 474.706 3204.96C427.167 3198.68 384.132 3183.07 349.375 3160.87C335.216 3151.82 322.605 3141.88 311.745 3131.2C310.958 3130.43 310.172 3129.65 309.414 3128.87C300.098 3119.39 292.091 3109.42 285.481 3099.09C285.238 3098.72 284.995 3098.35 284.78 3097.98C278.676 3088.31 273.753 3078.37 270.054 3068.24C269.882 3067.73 269.682 3067.21 269.51 3066.7C266.05 3056.89 263.7 3046.95 262.476 3036.94C262.476 3036.58 262.476 3036.22 262.362 3035.85C261.761 3030.67 261.456 3025.44 261.447 3020.15C261.447 3015.42 261.704 3010.73 262.176 3006.08C262.176 3005.58 262.29 3005.04 262.362 3004.52C262.49 3003.17 262.676 3001.85 262.862 3000.48C251.943 2994.99 241.723 2988.98 232.294 2982.51C228.129 2979.67 224.097 2976.73 220.199 2973.67C208.321 2964.39 197.885 2954.43 189.031 2943.91C164.897 2915.39 151 2881.92 151 2846.08Z" fill="#1C1D21"/>
<path d="M244.416 1902.58C250.761 1902.38 257.117 1903.27 263.343 1905.24C265.439 1905.91 267.497 1906.69 269.518 1907.59C272.01 1908.69 274.46 1909.98 276.86 1911.45C278.071 1912.2 279.263 1912.98 280.434 1913.82C286.94 1913.6 293.437 1915.3 299.514 1918.81C310.417 1925.16 319.434 1936.79 324.923 1951.59C328.362 1960.86 330.333 1971.04 330.696 1981.42L341.666 2337.27C342.179 2353.11 339.725 2368.76 334.554 2382.64C333.789 2384.69 332.968 2386.69 332.092 2388.64C330.187 2392.87 328.028 2396.86 325.639 2400.57C322.403 2405.58 318.753 2410.02 314.763 2413.8C305.422 2422.67 294.44 2427.55 283.089 2427.89C272.607 2436.9 259.887 2442.36 246.051 2442.79C228.595 2443.33 212.422 2435.77 199.96 2422.92C197.356 2420.24 194.893 2417.3 192.592 2414.11C190.315 2410.96 188.214 2407.57 186.309 2403.96C184.782 2401.08 183.392 2398.06 182.147 2394.92C181.628 2393.61 181.141 2392.29 180.682 2390.95C180.274 2389.78 179.891 2388.59 179.527 2387.38C179.09 2385.94 178.686 2384.47 178.314 2382.99C177.943 2381.51 177.61 2380.04 177.318 2378.6C176.883 2376.47 176.517 2374.3 176.218 2372.1C175.971 2370.27 175.782 2368.44 175.622 2366.61C175.504 2365.16 175.415 2363.69 175.356 2362.21L175.332 2361.41C175.281 2359.77 175.277 2358.15 175.305 2356.54C175.06 2356.38 174.812 2356.2 174.568 2356.04C173.688 2355.42 172.808 2354.79 171.943 2354.14H171.921C171.772 2354.03 171.623 2353.92 171.477 2353.81C170.771 2353.29 170.072 2352.75 169.379 2352.19C169.047 2351.93 168.735 2351.68 168.42 2351.42C168.344 2351.36 168.271 2351.31 168.194 2351.24C167.862 2350.98 167.53 2350.71 167.198 2350.43C165.562 2349.07 163.949 2347.64 162.359 2346.16C162.222 2346.04 162.089 2345.92 161.956 2345.79C161.709 2345.56 161.466 2345.34 161.222 2345.08C160.579 2344.47 159.931 2343.84 159.294 2343.2C158.843 2342.76 158.393 2342.31 157.957 2341.83C156.834 2340.67 155.717 2339.48 154.611 2338.27C153.506 2337.05 152.392 2335.76 151.3 2334.46C151.149 2334.28 151.001 2334.1 150.85 2333.91L149.286 2332C149.212 2331.91 149.145 2331.83 149.078 2331.74C148.893 2331.51 148.708 2331.29 148.526 2331.05C147.711 2330.02 146.905 2328.97 146.109 2327.91C142.066 2322.51 138.278 2316.73 134.768 2310.63C134.625 2310.39 134.488 2310.15 134.351 2309.91C133.695 2308.76 133.048 2307.6 132.41 2306.43C128.919 2300.03 125.719 2293.33 122.828 2286.36C122.619 2285.88 122.419 2285.39 122.22 2284.9C119.667 2278.65 117.356 2272.21 115.296 2265.62C114.174 2262.03 113.116 2258.37 112.123 2254.65C111.475 2252.18 110.851 2249.7 110.276 2247.19C109.364 2243.31 108.529 2239.38 107.77 2235.4C105.54 2223.67 104.018 2211.71 103.219 2199.65C102.97 2195.99 102.788 2192.29 102.672 2188.54C102.098 2170.45 103.15 2152.39 105.804 2134.78C105.991 2134.59 106.141 2134.34 106.239 2134.04C106.337 2133.75 106.38 2133.42 106.364 2133.09L106.316 2131.55C106.422 2130.88 106.534 2130.21 106.649 2129.54C107.294 2125.78 108.009 2122.07 108.794 2118.41L108.999 2117.49C110.969 2108.46 113.402 2099.66 116.277 2091.16C118.862 2083.5 121.817 2076.11 125.121 2069.03C125.631 2067.94 126.147 2066.87 126.668 2065.81C126.054 2064.56 125.466 2063.3 124.904 2062C122.72 2057.02 120.943 2051.7 119.607 2046.17C116.817 2034.6 116.097 2022.28 117.513 2010.35C119.322 1995.04 124.554 1981.07 132.257 1969.68C135.399 1965.04 138.88 1960.89 142.644 1957.29C142.914 1957.03 143.188 1956.77 143.465 1956.52C146.811 1953.42 150.343 1950.75 154.022 1948.51C154.156 1948.43 154.286 1948.35 154.419 1948.28C157.864 1946.21 161.419 1944.52 165.055 1943.22C165.238 1943.16 165.423 1943.09 165.609 1943.03C169.129 1941.81 172.71 1940.95 176.327 1940.45C176.456 1940.44 176.589 1940.44 176.72 1940.4C178.592 1940.15 180.486 1939.99 182.404 1939.93C184.118 1939.87 185.82 1939.9 187.509 1940C187.694 1940 187.889 1940.03 188.077 1940.05C188.57 1940.07 189.05 1940.12 189.546 1940.16C191.429 1936.6 193.507 1933.26 195.762 1930.16C196.748 1928.8 197.776 1927.47 198.846 1926.19C202.093 1922.28 205.602 1918.82 209.325 1915.87C219.425 1907.81 231.424 1902.98 244.416 1902.58Z" fill="#1C1D21"/>
<path d="M804.018 1979.34C792.983 1964.21 769.076 1944.94 740.125 1929.28C697.997 1906.51 655.665 1896.08 622.35 1891C589.036 1885.92 557.767 1883.7 516.447 1869.55C471.024 1853.97 418.029 1824.29 386.855 1796.96C373.434 1785.19 360.607 1771.8 340.139 1762.28C321.044 1753.39 306.163 1753.65 304.177 1759.7C302.19 1765.75 309.512 1775.89 316.253 1785.5C340.43 1819.97 359.052 1853.58 349.314 1873.96C338.866 1895.81 297.163 1900.18 256.516 1904.06L198.067 1909.62C185.913 1910.77 173.543 1912.01 168.288 1917.42C163.032 1922.82 165.323 1932.21 172.573 1943.1C180.31 1954.75 195.26 1969.37 217.474 1982.29C247 1999.46 279.038 2008 310.217 2022.87C341.063 2037.59 367.929 2057 390.146 2074.96C412.364 2092.93 432.497 2111.03 459.092 2128.91C513.754 2165.64 587.192 2194.58 637.631 2203.41C688.069 2212.25 718.062 2203.84 733.454 2188.29C739.228 2182.46 743.201 2175.61 743.238 2166.9C743.298 2149.57 727.831 2125.73 718.449 2104.46C701.707 2066.43 705.097 2035.23 742.845 2024.65C773.203 2016.12 832.903 2018.96 804.018 1979.34Z" fill="#2C8DE8"/>
<path d="M1291.18 1610.16C1277.63 1597.22 1250.68 1582.5 1219.41 1572.24C1173.91 1557.31 1130.4 1554.57 1096.71 1555.48C1063.02 1556.39 1031.86 1559.76 988.681 1553.17C941.214 1545.91 883.792 1526.11 848.259 1504.75C832.962 1495.55 817.962 1484.65 796.127 1478.91C775.758 1473.56 761.159 1476.45 760.278 1482.76C759.398 1489.07 768.404 1497.74 776.744 1506.01C806.658 1535.63 830.952 1565.41 824.988 1587.19C818.585 1610.55 778.321 1622.26 739.008 1633.29L682.475 1649.14C670.72 1652.44 658.766 1655.85 654.554 1662.1C650.343 1668.36 654.264 1677.19 663.333 1686.62C673.014 1696.7 690.324 1708.44 714.479 1717.21C746.584 1728.87 779.629 1731.58 812.953 1740.68C845.922 1749.69 875.808 1764.02 900.862 1777.75C925.917 1791.49 948.945 1805.73 978.291 1818.59C1038.61 1845.03 1116.02 1860.48 1167.22 1860.22C1218.43 1859.95 1246.45 1846.36 1258.84 1828.32C1263.49 1821.56 1266.18 1814.1 1264.67 1805.53C1261.65 1788.46 1242.2 1767.75 1229.18 1748.48C1205.96 1714.04 1203.75 1682.73 1239.02 1665.61C1267.38 1651.83 1326.64 1644.02 1291.18 1610.16Z" fill="#2C8DE8"/>
<path d="M1061.95 1618.75C1071.48 1605.69 1092.01 1590.46 1116.81 1579.44C1152.9 1563.41 1189.06 1559.34 1217.48 1559.15C1245.91 1558.97 1272.57 1561.26 1307.9 1553.45C1346.73 1544.84 1392.14 1523.68 1418.93 1501.69C1430.47 1492.22 1441.51 1481.11 1459.03 1474.8C1475.37 1468.93 1488.05 1471.29 1489.69 1477.41C1491.33 1483.54 1485.01 1492.3 1479.18 1500.63C1458.29 1530.51 1442.13 1560.34 1450.26 1581.42C1458.97 1604.01 1494.46 1614.15 1529.06 1623.66L1578.81 1637.32C1589.16 1640.16 1599.68 1643.11 1604.12 1649.08C1608.55 1655.05 1606.52 1663.8 1600.24 1673.29C1593.55 1683.45 1580.69 1695.46 1561.65 1704.79C1536.35 1717.19 1508.98 1720.9 1482.29 1730.85C1455.88 1740.69 1432.83 1755.64 1413.75 1769.84C1394.66 1784.05 1377.36 1798.69 1354.54 1812.19C1307.66 1839.92 1244.84 1857.47 1201.79 1858.86C1158.74 1860.24 1133.26 1847.86 1120.28 1830.65C1115.41 1824.2 1112.09 1817.01 1112.13 1808.6C1112.23 1791.84 1125.61 1771 1133.78 1751.77C1148.37 1717.41 1145.75 1686.78 1113.68 1671.21C1087.89 1658.66 1037 1652.93 1061.95 1618.75Z" fill="#2C8DE8"/>
<path d="M249.536 1387.23C268.301 1391.19 299.293 1389.05 331.333 1380.37C377.95 1367.74 415.894 1345.18 443.523 1324.95C471.152 1304.73 495.26 1283.72 535.136 1264.85C578.983 1244.12 638.367 1229.05 680.357 1228.01C698.433 1227.55 717.24 1228.82 738.792 1221.47C758.897 1214.61 769.432 1203.57 766.538 1197.33C763.645 1191.09 751.124 1188.39 739.399 1185.68C697.35 1175.98 659.913 1162.91 652.36 1139.67C644.27 1114.76 671.182 1080.93 697.69 1048.27L735.813 1001.31C743.741 991.55 751.768 981.567 751.688 973.457C751.608 965.346 743.249 959.577 730.243 956.228C716.349 952.637 695.127 951.934 669.891 957.869C636.354 965.765 607.175 982.324 574.091 993.244C541.354 1004.04 508.131 1008.22 479.288 1010.17C450.445 1012.11 423.004 1012.42 391.075 1017.63C325.452 1028.33 251.87 1058.86 209.226 1088.58C166.582 1118.3 150.989 1146.8 151.016 1170.33C151.024 1179.15 153.064 1187.47 159.257 1194.39C171.605 1208.17 199.779 1215.79 221.745 1225.82C260.978 1243.75 280.837 1270.93 261.209 1306.8C245.44 1335.65 200.412 1376.87 249.536 1387.23Z" fill="#2C8DE8"/>
<path d="M184.812 436.716C201.736 445.737 232.099 452.304 265.288 452.883C313.579 453.721 356.302 442.611 388.467 430.871C420.632 419.131 449.633 405.659 493.185 398.629C541.069 390.914 602.301 392.963 642.923 403.646C660.41 408.242 678.122 414.693 700.869 413.626C722.089 412.63 735.279 404.959 734.236 398.161C733.192 391.363 721.918 385.284 711.409 379.421C673.72 358.403 641.398 335.431 640.608 311.011C639.769 284.829 675.03 259.829 709.578 235.833L759.261 201.335C769.593 194.162 780.081 186.806 782.26 178.994C784.44 171.182 778.016 163.314 766.455 156.479C754.109 149.164 733.92 142.584 708.03 141.264C673.62 139.517 640.986 147.304 606.17 148.587C571.722 149.85 538.647 144.625 510.402 138.466C482.157 132.306 455.712 124.975 423.596 121.089C357.588 113.106 278.415 121.964 229.186 138.647C179.956 155.33 157.05 178.362 150.531 200.966C148.085 209.441 147.728 218.005 151.75 226.376C159.777 243.044 184.719 258.202 203.028 273.944C235.723 302.083 247.234 333.721 218.403 362.706C195.227 386.038 140.51 413.098 184.812 436.716Z" fill="#6FC9FF"/>
<path d="M721.812 427.716C738.736 436.737 769.099 443.304 802.288 443.883C850.579 444.721 893.301 433.611 925.467 421.871C957.632 410.131 986.633 396.659 1030.18 389.629C1078.07 381.914 1139.3 383.963 1179.92 394.646C1197.41 399.242 1215.12 405.693 1237.87 404.626C1259.09 403.63 1272.28 395.959 1271.24 389.161C1270.19 382.363 1258.92 376.284 1248.41 370.421C1210.72 349.403 1178.4 326.431 1177.61 302.011C1176.77 275.829 1212.03 250.829 1246.58 226.833L1296.26 192.335C1306.59 185.162 1317.08 177.806 1319.26 169.994C1321.44 162.182 1315.02 154.314 1303.45 147.479C1291.11 140.164 1270.92 133.584 1245.03 132.264C1210.62 130.517 1177.99 138.304 1143.17 139.587C1108.72 140.85 1075.65 135.625 1047.4 129.466C1019.16 123.306 992.712 115.975 960.595 112.089C894.587 104.106 815.415 112.964 766.185 129.647C716.956 146.33 694.05 169.362 687.531 191.966C685.084 200.441 684.727 209.005 688.75 217.376C696.777 234.044 721.719 249.202 740.028 264.944C772.722 293.083 784.234 324.721 755.403 353.706C732.227 377.038 677.51 404.098 721.812 427.716Z" fill="#6FC9FF"/>
<path d="M962.566 321.786C979.454 326.05 1009.79 329.083 1042.98 329.231C1091.26 329.443 1134.03 323.942 1166.24 318.18C1198.45 312.418 1227.5 305.837 1271.08 302.291C1318.99 298.4 1380.21 299.143 1420.79 304.111C1438.26 306.249 1455.95 309.276 1478.7 308.675C1499.92 308.113 1513.14 304.379 1512.12 301.12C1511.11 297.86 1499.86 294.987 1489.37 292.213C1451.77 282.271 1419.54 271.371 1418.84 259.651C1418.11 247.086 1453.46 234.946 1488.11 223.291L1537.92 206.535C1548.28 203.051 1558.8 199.479 1561.01 195.72C1563.22 191.961 1556.83 188.21 1545.29 184.974C1532.98 181.511 1512.81 178.431 1486.93 177.899C1452.53 177.196 1419.86 181.062 1385.04 181.815C1350.59 182.556 1317.54 180.178 1289.32 177.332C1261.1 174.486 1234.68 171.071 1202.58 169.331C1136.61 165.759 1057.4 170.322 1008.11 178.524C958.816 186.726 935.82 197.872 929.212 208.749C926.732 212.827 926.342 216.94 930.332 220.942C938.293 228.912 963.174 236.091 981.421 243.576C1014 256.956 1025.39 272.098 996.447 286.126C973.18 297.417 918.359 310.622 962.566 321.786Z" fill="#6FC9FF"/>
<path d="M1759.06 405.417C1744.11 414.679 1717.14 421.679 1687.57 422.733C1644.54 424.26 1606.3 413.762 1577.46 402.482C1548.63 391.203 1522.59 378.147 1483.67 371.74C1440.88 364.71 1386.33 367.634 1350.28 378.896C1334.76 383.741 1319.06 390.444 1298.77 389.703C1279.85 389.01 1267.98 381.528 1268.81 374.716C1269.65 367.903 1279.61 361.664 1288.89 355.652C1322.18 334.097 1350.66 310.667 1351.02 286.237C1351.39 260.046 1319.61 235.553 1288.47 212.053L1243.7 178.269C1234.39 171.244 1224.93 164.039 1222.88 156.259C1220.82 148.478 1226.44 140.52 1236.64 133.52C1247.54 126.029 1265.44 119.162 1288.5 117.472C1319.15 115.233 1348.34 122.554 1379.39 123.34C1410.11 124.11 1439.52 118.413 1464.61 111.851C1489.69 105.289 1513.16 97.5797 1541.73 93.2354C1600.45 84.3105 1671.14 92.0366 1715.26 108.014C1759.37 123.992 1780.12 146.694 1786.25 169.203C1788.55 177.642 1788.99 186.2 1785.53 194.628C1778.61 211.409 1756.6 226.921 1740.5 242.923C1711.76 271.526 1701.96 303.325 1728.07 331.895C1749.06 354.894 1798.21 381.168 1759.06 405.417Z" fill="#6FC9FF"/>
<path d="M1804.06 423.417C1789.11 432.679 1762.14 439.679 1732.57 440.733C1689.54 442.26 1651.3 431.762 1622.46 420.482C1593.63 409.203 1567.59 396.147 1528.67 389.74C1485.88 382.71 1431.33 385.634 1395.28 396.896C1379.76 401.741 1364.06 408.444 1343.77 407.703C1324.85 407.01 1312.98 399.528 1313.81 392.716C1314.65 385.903 1324.61 379.664 1333.89 373.652C1367.18 352.097 1395.66 328.667 1396.02 304.237C1396.39 278.046 1364.61 253.553 1333.47 230.053L1288.7 196.269C1279.39 189.244 1269.93 182.039 1267.88 174.259C1265.82 166.478 1271.44 158.52 1281.64 151.52C1292.54 144.029 1310.44 137.162 1333.5 135.472C1364.15 133.233 1393.34 140.554 1424.39 141.34C1455.11 142.11 1484.52 136.413 1509.61 129.851C1534.69 123.289 1558.16 115.58 1586.73 111.235C1645.45 102.31 1716.14 110.037 1760.26 126.014C1804.37 141.992 1825.12 164.694 1831.25 187.203C1833.55 195.642 1833.99 204.2 1830.53 212.628C1823.61 229.409 1801.6 244.921 1785.5 260.923C1756.76 289.526 1746.96 321.325 1773.07 349.895C1794.06 372.894 1843.21 399.168 1804.06 423.417Z" fill="#6FC9FF"/>
<path d="M767.246 868.701C748.376 872.122 720.485 885.803 694.092 905.933C655.693 935.229 629.071 970.441 611.122 999.6C593.173 1028.76 578.78 1057.31 548.977 1089.84C516.202 1125.59 466.9 1161.96 428.409 1178.78C411.841 1186.02 393.947 1191.95 376.765 1206.89C360.738 1220.83 355.15 1235.03 360.184 1239.72C365.219 1244.4 377.833 1242.18 389.713 1240.26C432.313 1233.37 471.915 1231.34 487.681 1250.01C504.578 1270.02 492.425 1311.51 480.208 1351.76L462.633 1409.63C458.977 1421.67 455.313 1433.94 458.449 1441.42C461.584 1448.9 471.503 1451.09 484.811 1449.28C499.033 1447.36 518.95 1440 540.078 1424.98C568.153 1405.01 588.921 1378.66 615.436 1356.05C641.674 1333.7 670.86 1317.28 696.835 1304.6C722.811 1291.91 748.102 1281.26 775.705 1264.39C832.434 1229.71 889.044 1173.65 917.313 1130.03C945.582 1086.41 949.264 1054.14 940.358 1032.36C937.021 1024.2 931.989 1017.26 923.641 1013.19C907.006 1005.09 878.041 1008.67 853.915 1007.68C810.816 1005.89 782.163 988.208 786.801 947.59C790.509 914.913 816.646 859.75 767.246 868.701Z" fill="#2C8DE8"/>
<path d="M417.246 1761.88C426.337 1744.99 433.029 1714.65 433.746 1681.47C434.783 1633.18 423.849 1590.41 412.242 1558.2C400.635 1525.99 387.284 1496.93 380.433 1453.35C372.916 1405.43 375.218 1344.21 386.069 1303.63C390.737 1286.17 397.261 1268.48 396.288 1245.73C395.38 1224.5 387.763 1211.28 380.961 1212.3C374.158 1213.31 368.033 1224.56 362.127 1235.05C340.953 1272.65 317.848 1304.88 293.425 1305.57C267.24 1306.3 242.385 1270.93 218.532 1236.29L184.24 1186.46C177.11 1176.1 169.798 1165.58 161.994 1163.37C154.191 1161.16 146.297 1167.55 139.414 1179.08C132.048 1191.4 125.385 1211.56 123.958 1237.44C122.068 1271.85 129.721 1304.51 130.861 1339.33C131.981 1373.79 126.619 1406.84 120.343 1435.06C114.067 1463.28 106.626 1489.69 102.608 1521.79C94.3525 1587.77 102.883 1666.97 119.363 1716.27C135.842 1765.57 158.779 1788.57 181.356 1795.18C189.821 1797.67 198.384 1798.06 206.771 1794.07C223.473 1786.11 238.733 1761.23 254.551 1742.99C282.825 1710.41 314.51 1699.03 343.375 1727.98C366.612 1751.25 393.445 1806.08 417.246 1761.88Z" fill="#2C8DE8"/>
<path d="M1850.25 1657.88C1859.34 1640.99 1866.03 1610.65 1866.75 1577.47C1867.78 1529.18 1856.85 1486.41 1845.24 1454.2C1833.63 1421.99 1820.28 1392.93 1813.43 1349.35C1805.92 1301.43 1808.22 1240.21 1819.07 1199.63C1823.74 1182.17 1830.26 1164.48 1829.29 1141.73C1828.38 1120.5 1820.76 1107.28 1813.96 1108.3C1807.16 1109.31 1801.03 1120.56 1795.13 1131.05C1773.95 1168.65 1750.85 1200.88 1726.42 1201.57C1700.24 1202.3 1675.38 1166.93 1651.53 1132.29L1617.24 1082.46C1610.11 1072.1 1602.8 1061.58 1594.99 1059.37C1587.19 1057.16 1579.3 1063.55 1572.41 1075.08C1565.05 1087.4 1558.38 1107.56 1556.96 1133.44C1555.07 1167.85 1562.72 1200.51 1563.86 1235.33C1564.98 1269.79 1559.62 1302.84 1553.34 1331.06C1547.07 1359.28 1539.63 1385.69 1535.61 1417.79C1527.35 1483.77 1535.88 1562.97 1552.36 1612.27C1568.84 1661.57 1591.78 1684.57 1614.36 1691.18C1622.82 1693.67 1631.38 1694.06 1639.77 1690.07C1656.47 1682.11 1671.73 1657.23 1687.55 1638.99C1715.82 1606.41 1747.51 1595.03 1776.38 1623.98C1799.61 1647.25 1826.44 1702.08 1850.25 1657.88Z" fill="#2C8DE8"/>
<path d="M411.246 2752.88C420.336 2735.99 427.029 2705.65 427.745 2672.47C428.782 2624.18 417.849 2581.41 406.242 2549.2C394.635 2516.99 381.283 2487.93 374.433 2444.35C366.916 2396.43 369.218 2335.21 380.068 2294.63C384.736 2277.17 391.26 2259.48 390.288 2236.73C389.379 2215.5 381.763 2202.28 374.96 2203.3C368.158 2204.31 362.033 2215.56 356.127 2226.05C334.953 2263.65 311.848 2295.88 287.424 2296.57C261.239 2297.3 236.385 2261.93 212.532 2227.29L178.24 2177.46C171.109 2167.1 163.797 2156.58 155.994 2154.37C148.191 2152.16 140.297 2158.55 133.414 2170.08C126.047 2182.4 119.384 2202.56 117.958 2228.44C116.068 2262.85 123.72 2295.51 124.86 2330.33C125.98 2364.79 120.618 2397.84 114.343 2426.06C108.067 2454.28 100.626 2480.69 96.6074 2512.79C88.352 2578.77 96.883 2657.97 113.362 2707.27C129.842 2756.57 152.779 2779.57 175.356 2786.18C183.821 2788.67 192.383 2789.06 200.771 2785.07C217.472 2777.11 232.733 2752.23 248.55 2733.99C276.824 2701.41 308.509 2690.03 337.375 2718.98C360.611 2742.25 387.444 2797.08 411.246 2752.88Z" fill="#1C1D21"/>
<path d="M261.841 1983.44C265.394 1973.61 267.619 1956.12 267.203 1937.08C266.594 1909.39 260.942 1885.04 255.229 1866.76C249.517 1848.47 243.121 1832.02 239.212 1807.15C234.921 1779.8 234.576 1744.67 238.371 1721.24C240.003 1711.15 242.432 1700.91 241.515 1687.88C240.659 1675.73 237.083 1668.27 234.17 1668.96C231.257 1669.65 228.86 1676.19 226.541 1682.29C218.226 1704.18 208.961 1723.01 198.438 1723.79C187.155 1724.62 175.657 1704.73 164.608 1685.24L148.722 1657.22C145.419 1651.39 142.033 1645.47 138.618 1644.33C135.203 1643.18 131.936 1646.97 129.218 1653.69C126.309 1660.86 123.875 1672.52 123.825 1687.38C123.762 1707.13 127.778 1725.74 129.031 1745.68C130.267 1765.41 128.676 1784.45 126.585 1800.72C124.494 1816.99 121.86 1832.25 120.828 1850.72C118.708 1888.67 124.121 1933.94 132.309 1961.94C140.498 1989.94 150.898 2002.77 160.784 2006.21C164.491 2007.5 168.194 2007.59 171.726 2005.17C178.759 2000.35 184.799 1985.85 191.226 1975.15C202.714 1956.03 216.137 1949.01 229.225 1965.16C239.76 1978.14 252.537 2009.15 261.841 1983.44Z" fill="#2C8DE8"/>
<path d="M253.205 1980.64C251.908 1985.07 248.508 1989.01 244.055 1990.56C237.576 1992.81 230.522 1989.86 224.834 1986.23C219.146 1982.6 213.696 1978.13 206.984 1976.91C199.606 1975.58 191.501 1978.85 187.164 1984.91C185.297 1987.51 183.606 1990.9 180.391 1991.35C177.391 1991.77 174.74 1989.09 174.124 1986.22C173.507 1983.34 174.364 1980.36 175.14 1977.5C177.924 1967.25 179.761 1956.39 177.143 1946.18C174.336 1935.22 166.748 1926.19 159.368 1917.54L148.757 1905.11C146.551 1902.52 144.303 1899.87 143.134 1896.7C141.966 1893.52 141.963 1889.99 142.774 1886.68C143.638 1883.14 145.651 1879.6 149.028 1878.03C153.516 1875.95 158.827 1877.91 163.709 1877.07C168.538 1876.24 172.457 1872.76 175.614 1869.08C178.771 1865.39 181.552 1861.29 185.49 1858.41C193.583 1852.47 205.347 1853.05 213.909 1858.07C222.471 1863.08 228.158 1871.79 231.567 1880.96C232.846 1884.4 233.85 1887.95 234.236 1891.6C235.004 1898.87 233.3 1906.18 232.565 1913.47C231.254 1926.49 233.217 1940.14 240.375 1951.09C246.133 1959.91 256.599 1969.04 253.205 1980.64Z" fill="#2C8DE8"/>
<path d="M1353.84 1121.21C1335.8 1118.01 1303.42 1115.99 1268.02 1116.33C1216.52 1116.83 1170.94 1121.85 1136.63 1126.94C1102.31 1132.03 1071.37 1137.73 1024.92 1141.19C973.841 1144.99 908.537 1145.25 865.221 1141.81C846.574 1140.33 827.689 1138.14 803.427 1138.94C780.795 1139.68 766.721 1142.87 767.828 1145.49C768.936 1148.1 780.955 1150.25 792.158 1152.34C832.338 1159.83 866.792 1168.16 867.614 1177.59C868.488 1187.7 830.86 1197.97 793.994 1207.83L740.977 1222.02C729.952 1224.97 718.76 1227.99 716.429 1231.05C714.098 1234.11 720.944 1237.04 733.268 1239.49C746.429 1242.11 767.956 1244.31 795.568 1244.38C832.265 1244.47 867.077 1240.9 904.211 1239.81C940.952 1238.73 976.223 1240.19 1006.34 1242.09C1036.46 1243.99 1064.66 1246.37 1098.91 1247.33C1169.3 1249.29 1253.75 1244.51 1306.27 1237.22C1358.79 1229.93 1383.24 1220.64 1390.21 1211.78C1392.82 1208.47 1393.21 1205.15 1388.93 1201.98C1380.38 1195.67 1353.79 1190.23 1334.28 1184.46C1299.43 1174.14 1287.18 1162.1 1317.95 1150.4C1342.69 1140.98 1401.07 1129.58 1353.84 1121.21Z" fill="#2C8DE8"/>
<path d="M1634.24 1057.17C1615.96 1056.04 1583.56 1057.66 1548.42 1061.94C1497.3 1068.18 1452.56 1078.21 1419.02 1087.04C1385.48 1095.88 1355.36 1104.94 1309.57 1113.53C1259.24 1122.97 1194.37 1130.5 1150.94 1131.95C1132.25 1132.57 1113.24 1132.52 1089.22 1136.02C1066.81 1139.28 1053.18 1143.99 1054.56 1146.43C1055.95 1148.88 1068.13 1149.66 1079.5 1150.47C1120.25 1153.35 1155.41 1157.71 1157.26 1166.9C1159.24 1176.75 1122.98 1191.05 1087.43 1204.88L1036.31 1224.75C1025.68 1228.88 1014.89 1233.11 1012.91 1236.38C1010.93 1239.65 1018.05 1241.77 1030.57 1242.8C1043.94 1243.91 1065.57 1243.67 1093.02 1240.66C1129.5 1236.66 1163.7 1229.26 1200.48 1224.05C1236.87 1218.89 1272.08 1216.39 1302.22 1214.9C1332.36 1213.41 1360.65 1212.61 1394.79 1209.73C1464.96 1203.81 1548.35 1189.69 1599.74 1176.66C1651.13 1163.62 1674.4 1151.75 1680.36 1142.26C1682.59 1138.7 1682.61 1135.39 1678 1132.75C1668.82 1127.5 1641.79 1125.11 1621.77 1121.6C1586 1115.33 1572.5 1104.85 1601.79 1089.91C1625.34 1077.88 1682.1 1060.15 1634.24 1057.17Z" fill="#2C8DE8"/>
<path d="M1755 527C1814.65 527 1863 482.005 1863 426.5C1863 370.995 1814.65 326 1755 326C1695.35 326 1647 370.995 1647 426.5C1647 482.005 1695.35 527 1755 527Z" fill="#6FC9FF"/>
<path d="M1475.5 1009C1522.72 1009 1561 969.153 1561 920C1561 870.847 1522.72 831 1475.5 831C1428.28 831 1390 870.847 1390 920C1390 969.153 1428.28 1009 1475.5 1009Z" fill="#2C8DE8"/>
<path d="M1531.5 896C1562.15 896 1587 872.719 1587 844C1587 815.281 1562.15 792 1531.5 792C1500.85 792 1476 815.281 1476 844C1476 872.719 1500.85 896 1531.5 896Z" fill="#2C8DE8"/>
<path d="M1390 1031C1444.12 1031 1488 990.482 1488 940.5C1488 890.518 1444.12 850 1390 850C1335.88 850 1292 890.518 1292 940.5C1292 990.482 1335.88 1031 1390 1031Z" fill="#2C8DE8"/>
<path d="M1781 645C1840.65 645 1889 600.005 1889 544.5C1889 488.995 1840.65 444 1781 444C1721.35 444 1673 488.995 1673 544.5C1673 600.005 1721.35 645 1781 645Z" fill="#6FC9FF"/>
<path d="M1755 878C1814.65 878 1863 833.005 1863 777.5C1863 721.995 1814.65 677 1755 677C1695.35 677 1647 721.995 1647 777.5C1647 833.005 1695.35 878 1755 878Z" fill="#6FC9FF"/>
<path d="M1781 798C1840.65 798 1889 729.723 1889 645.5C1889 561.277 1840.65 493 1781 493C1721.35 493 1673 561.277 1673 645.5C1673 729.723 1721.35 798 1781 798Z" fill="#6FC9FF"/>
<path d="M163 572C216.572 572 260 488.949 260 386.5C260 284.051 216.572 201 163 201C109.428 201 66 284.051 66 386.5C66 488.949 109.428 572 163 572Z" fill="#6FC9FF"/>
<path d="M151 675C204.572 675 248 628.885 248 572C248 515.115 204.572 469 151 469C97.4284 469 54 515.115 54 572C54 628.885 97.4284 675 151 675Z" fill="#6FC9FF"/>
<path d="M97 804C150.572 804 194 757.885 194 701C194 644.115 150.572 598 97 598C43.4284 598 0 644.115 0 701C0 757.885 43.4284 804 97 804Z" fill="#6FC9FF"/>
<path d="M151 972C204.572 972 248 914.692 248 844C248 773.308 204.572 716 151 716C97.4284 716 54 773.308 54 844C54 914.692 97.4284 972 151 972Z" fill="#6FC9FF"/>
<path d="M1717.01 1277.29C1797.79 1255.49 1849.46 1186.6 1832.41 1123.41C1815.36 1060.22 1736.05 1026.67 1655.27 1048.47C1574.49 1070.27 1522.82 1139.16 1539.87 1202.35C1556.92 1265.54 1636.23 1299.09 1717.01 1277.29Z" fill="#2C8DE8"/>
<path d="M481.648 264.56V256.592H499.696V326H490.864V264.56H481.648Z" fill="white"/>
<path d="M1367.9 970.992C1376.02 964.464 1382.39 959.12 1387 954.96C1391.61 950.736 1395.48 946.352 1398.62 941.808C1401.82 937.2 1403.42 932.688 1403.42 928.272C1403.42 924.112 1402.39 920.848 1400.34 918.48C1398.36 916.048 1395.13 914.832 1390.65 914.832C1386.3 914.832 1382.9 916.208 1380.47 918.96C1378.1 921.648 1376.82 925.264 1376.63 929.808H1368.18C1368.44 922.64 1370.62 917.104 1374.71 913.2C1378.81 909.296 1384.09 907.344 1390.55 907.344C1397.14 907.344 1402.36 909.168 1406.2 912.816C1410.1 916.464 1412.06 921.488 1412.06 927.888C1412.06 933.2 1410.46 938.384 1407.26 943.44C1404.12 948.432 1400.54 952.848 1396.5 956.688C1392.47 960.464 1387.32 964.88 1381.05 969.936H1414.07V977.232H1367.9V970.992Z" fill="white"/>
<path d="M457.76 2446.06C458.208 2440.18 460.48 2435.57 464.576 2432.24C468.672 2428.91 473.984 2427.25 480.512 2427.25C484.864 2427.25 488.608 2428.05 491.744 2429.65C494.944 2431.18 497.344 2433.3 498.944 2435.98C500.608 2438.67 501.44 2441.71 501.44 2445.1C501.44 2449.07 500.288 2452.5 497.984 2455.38C495.744 2458.26 492.8 2460.11 489.152 2460.94V2461.42C493.312 2462.45 496.608 2464.46 499.04 2467.47C501.472 2470.48 502.688 2474.42 502.688 2479.28C502.688 2482.93 501.856 2486.22 500.192 2489.17C498.528 2492.05 496.032 2494.32 492.704 2495.98C489.376 2497.65 485.376 2498.48 480.704 2498.48C473.92 2498.48 468.352 2496.72 464 2493.2C459.648 2489.62 457.216 2484.56 456.704 2478.03H465.152C465.6 2481.87 467.168 2485.01 469.856 2487.44C472.544 2489.87 476.128 2491.09 480.608 2491.09C485.088 2491.09 488.48 2489.94 490.784 2487.63C493.152 2485.26 494.336 2482.22 494.336 2478.51C494.336 2473.71 492.736 2470.26 489.536 2468.14C486.336 2466.03 481.504 2464.98 475.04 2464.98H472.832V2457.68H475.136C481.024 2457.62 485.472 2456.66 488.48 2454.8C491.488 2452.88 492.992 2449.94 492.992 2445.97C492.992 2442.58 491.872 2439.86 489.632 2437.81C487.456 2435.76 484.32 2434.74 480.224 2434.74C476.256 2434.74 473.056 2435.76 470.624 2437.81C468.192 2439.86 466.752 2442.61 466.304 2446.06H457.76Z" fill="white"/>
</g>
<defs>
<clipPath id="clip0">
<rect width="2058" height="3261" fill="white"/>
</clipPath>
</defs>
</svg>
