<svg width="1921" height="1080" viewBox="0 0 1921 1080" fill="none" xmlns="http://www.w3.org/2000/svg">
<rect x="1540" y="521" width="72" height="30" rx="10" transform="rotate(-90 1540 521)" fill="#69BF5A"/>
<rect x="1536" y="464" width="38" height="38" rx="10" transform="rotate(-90 1536 464)" fill="#69BF5A"/>
<rect x="1530" y="535" width="24" height="20" rx="10" transform="rotate(-90 1530 535)" fill="#69BF5A"/>
<rect x="1560" y="535" width="24" height="20" rx="10" transform="rotate(-90 1560 535)" fill="#69BF5A"/>
<rect x="1530" y="529" width="5" height="5" rx="2.5" transform="rotate(-90 1530 529)" fill="black"/>
<rect x="1536" y="444" width="5" height="5" rx="2.5" transform="rotate(-90 1536 444)" fill="black"/>
<rect x="1536" y="458" width="9" height="5" rx="2.5" transform="rotate(-90 1536 458)" fill="black"/>
<rect x="1560" y="529" width="5" height="5" rx="2.5" transform="rotate(-90 1560 529)" fill="black"/>
<rect x="1745" y="543" width="510" height="79" rx="10" transform="rotate(-90 1745 543)" fill="#040200"/>
<rect x="1831" y="85.9995" width="86" height="86" rx="10" transform="rotate(180 1831 85.9995)" fill="#365C39"/>
<rect x="1831" y="85.9995" width="86" height="86" rx="10" transform="rotate(180 1831 85.9995)" fill="black" fill-opacity="0.12"/>
<rect x="1864" y="330" width="160" height="76" rx="10" transform="rotate(180 1864 330)" fill="#365C39"/>
<rect x="1864" y="330" width="160" height="76" rx="10" transform="rotate(180 1864 330)" fill="black" fill-opacity="0.12"/>
<rect x="1844" y="453" width="120" height="76" rx="10" transform="rotate(180 1844 453)" fill="#365C39"/>
<rect x="1844" y="453" width="120" height="76" rx="10" transform="rotate(180 1844 453)" fill="black" fill-opacity="0.12"/>
<rect x="1920.44" y="401" width="265.444" height="81" rx="10" transform="rotate(180 1920.44 401)" fill="#365C39"/>
<rect x="1886" y="143" width="196" height="66" rx="10" transform="rotate(180 1886 143)" fill="#365C39"/>
<rect x="1920.44" y="272" width="265.444" height="81" rx="10" transform="rotate(180 1920.44 272)" fill="#365C39"/>
<rect x="1690" y="72.9995" width="196" height="15" rx="7.5" fill="#F0F8FF"/>
<rect x="1652" y="523" width="196" height="15" rx="7.5" fill="#F0F8FF"/>
<rect x="1745" width="86" height="12" rx="6" fill="#F0F8FF"/>
<rect x="1655" y="191" width="86" height="15" rx="7.5" fill="#F0F8FF"/>
<rect x="1798" y="318" width="122" height="15" rx="7.5" fill="#F0F8FF"/>
<rect x="1367" y="602.999" width="72" height="30" rx="10" transform="rotate(-90 1367 602.999)" fill="#F0F8FF"/>
<rect x="1352" y="646.999" width="72" height="30" rx="10" transform="rotate(-90 1352 646.999)" fill="#F0F8FF"/>
<rect x="1352" y="697.999" width="72" height="30" rx="10" transform="rotate(-90 1352 697.999)" fill="#F0F8FF"/>
<rect x="1362" y="733.999" width="72" height="30" rx="10" transform="rotate(-90 1362 733.999)" fill="#F0F8FF"/>
<rect x="1362" y="787.999" width="72" height="30" rx="10" transform="rotate(-90 1362 787.999)" fill="#F0F8FF"/>
<rect x="1362" y="845.999" width="72" height="30" rx="10" transform="rotate(-90 1362 845.999)" fill="#F0F8FF"/>
<rect x="1366" y="899.999" width="72" height="30" rx="10" transform="rotate(-90 1366 899.999)" fill="#F0F8FF"/>
<rect x="1370" y="931.999" width="49" height="11" rx="5.5" transform="rotate(-90 1370 931.999)" fill="#F0F8FF"/>
<rect x="1498" y="670.999" width="251" height="92" rx="19" fill="#B88D62"/>
<rect x="1498" y="670.999" width="251" height="92" rx="19" fill="black" fill-opacity="0.3"/>
<rect x="1498" y="670.999" width="251" height="92" rx="19" fill="#D6E3F0" fill-opacity="0.5"/>
<rect x="1461" y="601.999" width="251" height="92" rx="24" fill="#B88D62"/>
<rect x="1461" y="601.999" width="251" height="92" rx="24" fill="black" fill-opacity="0.2"/>
<rect x="1461" y="601.999" width="251" height="92" rx="24" fill="#D6E3F0" fill-opacity="0.5"/>
<rect x="1530" y="594.999" width="251" height="92" fill="#B88D62"/>
<rect x="1530" y="594.999" width="251" height="92" fill="black" fill-opacity="0.1"/>
<rect x="1530" y="594.999" width="251" height="92" fill="#D6E3F0" fill-opacity="0.5"/>
<rect x="1530" y="610.999" width="251" height="92" rx="23" fill="#B88D62"/>
<rect x="1530" y="610.999" width="251" height="92" rx="23" fill="black" fill-opacity="0.1"/>
<rect x="1530" y="610.999" width="251" height="92" rx="23" fill="#D6E3F0" fill-opacity="0.5"/>
<rect x="1382" y="539.999" width="503" height="81" rx="10" fill="#B88D62"/>
<rect x="1382" y="539.999" width="503" height="81" rx="10" fill="#D6E3F0" fill-opacity="0.5"/>
<rect x="1382" y="528.999" width="503" height="26" rx="7" fill="#F0F8FF"/>
<rect x="1382" y="539.999" width="503" height="18" fill="#F0F8FF"/>
<rect x="1406" y="474" width="55" height="55" rx="8" fill="#D32C40"/>
<rect x="1426" y="474" width="15" height="55" fill="#2EB075"/>
<rect x="1426" y="458" width="15" height="32" rx="7.5" fill="#2EB075"/>
<rect x="1414" y="461" width="16" height="13" rx="6.5" fill="#2EB075"/>
<rect x="1437" y="461" width="16" height="13" rx="6.5" fill="#2EB075"/>
<rect x="1415" y="465" width="37" height="9" rx="4.5" fill="#2EB075"/>
</svg>
