<svg width="1738" height="3173" viewBox="0 0 1738 3173" fill="none" xmlns="http://www.w3.org/2000/svg">
<rect x="25" y="1075" width="1684" height="862" fill="#8AAEFC"/>
<rect x="25" y="104" width="1684" height="971" rx="20" fill="#FFDA7C"/>
<path d="M25.0002 2758.08C24.9712 2740.58 28.3657 2723.13 35.1085 2706.14C37.377 2700.42 40.0124 2694.82 43.0148 2689.33C46.6934 2682.55 50.9506 2675.91 55.7681 2669.42C58.1987 2666.15 60.7674 2662.93 63.4744 2659.77C63.4313 2641.82 69.356 2624.06 80.8743 2607.61C101.705 2578.11 138.835 2554.24 185.502 2540.38C214.72 2531.68 246.651 2527.12 279.021 2527L1389.3 2527C1438.7 2526.93 1487.25 2535.02 1530.01 2550.45C1536.33 2552.74 1542.49 2555.17 1548.48 2557.75C1561.5 2563.36 1573.73 2569.65 1585.04 2576.55C1600.35 2585.89 1613.84 2596.33 1625.23 2607.64C1651.99 2634.14 1666.16 2664.82 1666.11 2696.13C1693.2 2725.78 1709 2761.3 1709 2799.46C1709 2847.62 1683.89 2891.55 1642.65 2924.8C1634.05 2931.75 1624.63 2938.28 1614.47 2944.36C1604.44 2950.36 1593.66 2955.87 1582.24 2960.81C1573.1 2964.77 1563.55 2968.35 1553.64 2971.51C1549.51 2972.83 1545.37 2974.06 1541.15 2975.21C1537.45 2976.24 1533.7 2977.19 1529.91 2978.09C1525.36 2979.17 1520.76 2980.16 1516.1 2981.06C1511.44 2981.96 1506.84 2982.75 1502.3 2983.43C1495.63 2984.45 1488.84 2985.28 1481.94 2985.91C1476.22 2986.44 1470.51 2986.8 1464.79 2987.09C1460.24 2987.29 1455.66 2987.41 1451.03 2987.44H1448.53C1443.44 2987.44 1438.38 2987.32 1433.36 2987.11C1432.83 2987.77 1432.26 2988.43 1431.73 2989.09C1429.73 2991.47 1427.66 2993.84 1425.57 2996.17V2996.23C1425.21 2996.63 1424.85 2997.03 1424.48 2997.42C1422.8 2999.32 1421.04 3001.2 1419.24 3003.07C1418.41 3003.96 1417.59 3004.8 1416.75 3005.65C1416.56 3005.85 1416.38 3006.05 1416.16 3006.25C1415.3 3007.14 1414.43 3008.04 1413.55 3008.93C1409.13 3013.32 1404.54 3017.65 1399.78 3021.9C1399.36 3022.27 1398.98 3022.62 1398.56 3022.98C1397.82 3023.64 1397.13 3024.29 1396.3 3024.94C1394.33 3026.66 1392.3 3028.39 1390.25 3030.1C1388.83 3031.3 1387.4 3032.5 1385.85 3033.66C1382.13 3036.66 1378.32 3039.64 1374.41 3042.58C1370.51 3045.52 1366.39 3048.49 1362.23 3051.38C1361.66 3051.78 1361.09 3052.18 1360.49 3052.58L1354.38 3056.72C1354.08 3056.92 1353.83 3057.1 1353.54 3057.28C1352.81 3057.77 1352.11 3058.26 1351.32 3058.74C1348.05 3060.9 1344.69 3063.03 1341.31 3065.13C1324.08 3075.82 1305.72 3085.77 1286.36 3094.92C1285.6 3095.29 1284.83 3095.65 1284.07 3096.01C1280.44 3097.72 1276.75 3099.4 1273.06 3101.06C1252.77 3110.14 1231.56 3118.39 1209.56 3125.76C1208.05 3126.3 1206.51 3126.81 1204.95 3127.32C1185.22 3133.82 1164.94 3139.64 1144.2 3144.76C1132.89 3147.55 1121.39 3150.15 1109.68 3152.57C1101.93 3154.15 1094.16 3155.66 1086.28 3157.03C1074.1 3159.21 1061.76 3161.18 1049.28 3162.93C1012.49 3168.08 975.068 3171.26 937.415 3172.44C925.977 3172.81 914.41 3173 902.715 3173C846.283 3173.05 790.072 3168.61 735.436 3159.8C734.871 3159.27 734.098 3158.84 733.19 3158.54C732.282 3158.25 731.269 3158.1 730.246 3158.12H725.442C723.355 3157.77 721.282 3157.4 719.194 3157.03C707.537 3154.93 696.047 3152.64 684.723 3150.17L681.864 3149.53C653.916 3143.33 626.723 3135.88 600.497 3127.24C576.86 3119.46 554.099 3110.69 532.371 3100.98C529.025 3099.48 525.727 3097.97 522.477 3096.44C518.531 3098.03 514.518 3099.54 510.438 3100.98C494.684 3106.58 477.951 3111.02 460.569 3114.23C424.228 3120.94 385.776 3121.88 348.707 3116.96C301.168 3110.68 258.133 3095.07 223.376 3072.87C209.217 3063.82 196.606 3053.88 185.745 3043.2C184.959 3042.43 184.173 3041.65 183.415 3040.87C174.098 3031.39 166.091 3021.42 159.481 3011.09C159.238 3010.72 158.995 3010.35 158.781 3009.98C152.677 3000.31 147.754 2990.37 144.054 2980.24C143.883 2979.73 143.683 2979.21 143.511 2978.7C140.051 2968.89 137.7 2958.95 136.477 2948.94C136.477 2948.58 136.477 2948.22 136.362 2947.85C135.762 2942.67 135.457 2937.44 135.447 2932.15C135.447 2927.42 135.705 2922.73 136.176 2918.08C136.176 2917.58 136.291 2917.04 136.362 2916.52C136.491 2915.17 136.677 2913.85 136.863 2912.48C125.943 2906.99 115.724 2900.98 106.295 2894.51C102.13 2891.67 98.0978 2888.73 94.1994 2885.67C82.3219 2876.39 71.8855 2866.43 63.0311 2855.91C38.8972 2827.39 25.0002 2793.92 25.0002 2758.08Z" fill="#39CA86"/>
<path d="M677.832 1707.18C648.092 1726.37 625.997 1760.87 623.299 1798.65C619.391 1853.61 654.458 1902.34 691.832 1939.06C729.207 1975.77 772.288 2008.9 794.073 2058.54C817.977 2113.11 809.813 2182.8 774.087 2228.95C758.717 2248.82 737.312 2268.92 740.22 2294.83C742.938 2318.99 767.551 2334.07 789.676 2332.94C811.801 2331.81 831.838 2319.03 851.155 2307.12C920.408 2264.4 995.877 2227.8 1075.28 2227.11C1160.42 2226.38 1240.82 2266.73 1317.98 2306.27L1428.9 2363.12C1451.97 2374.94 1475.62 2386.95 1500.97 2389.49C1526.31 2392.04 1552.04 2384.8 1574.55 2371.7C1598.63 2357.7 1620.51 2334.78 1625.44 2305.32C1631.97 2266.16 1607.45 2228.95 1604.14 2189.3C1600.88 2150.08 1618.68 2112.47 1639.39 2080.38C1660.11 2048.28 1684.59 2018.24 1698.01 1981.71C1725.58 1906.64 1698.73 1816.44 1645.71 1760.25C1592.68 1704.07 1518.37 1677.8 1445.05 1670.18C1417.56 1667.33 1389.73 1666.85 1362.42 1671.35C1308.04 1680.35 1258.15 1708.61 1206.52 1729.31C1114.25 1766.29 1011.12 1779.12 917.6 1746.05C842.321 1719.47 755.699 1656.95 677.832 1707.18Z" fill="#39CA86"/>
<rect x="25" y="1921" width="1684" height="862" fill="#39CA86"/>
<path d="M679.2 1891.94C668.743 1877.1 645.877 1858.37 618.065 1843.3C577.594 1821.37 536.731 1811.69 504.524 1807.18C472.317 1802.66 442.046 1800.95 402.223 1787.56C358.446 1772.83 307.552 1744.22 277.77 1717.6C264.947 1706.14 252.727 1693.06 233.04 1683.93C214.674 1675.42 200.248 1675.91 198.227 1681.94C196.206 1687.97 203.143 1697.92 209.524 1707.34C232.414 1741.15 249.932 1774.2 240.173 1794.57C229.703 1816.41 189.217 1821.4 149.762 1825.89L93.0271 1832.33C81.2297 1833.66 69.2219 1835.08 64.0434 1840.53C58.8649 1845.98 60.937 1855.25 67.7925 1865.94C75.1068 1877.37 89.3659 1891.64 110.691 1904.11C139.037 1920.68 169.952 1928.64 199.936 1942.9C229.599 1957.01 255.331 1975.84 276.581 1993.32C297.831 2010.79 317.058 2028.43 342.552 2045.74C394.95 2081.31 465.668 2108.87 514.413 2116.84C563.157 2124.81 592.358 2115.99 607.521 2100.33C613.208 2094.45 617.166 2087.59 617.34 2078.95C617.67 2061.76 603.056 2038.36 594.298 2017.4C578.671 1979.95 582.448 1948.94 619.199 1937.86C648.756 1928.92 706.57 1930.79 679.2 1891.94Z" fill="#8AAEFC"/>
<path d="M123.536 1299.23C142.301 1303.19 173.293 1301.05 205.333 1292.37C251.95 1279.74 289.895 1257.18 317.523 1236.95C345.152 1216.73 369.26 1195.72 409.136 1176.85C452.983 1156.12 512.367 1141.05 554.357 1140.01C572.433 1139.55 591.24 1140.82 612.793 1133.47C632.898 1126.61 643.432 1115.57 640.538 1109.33C637.645 1103.09 625.125 1100.39 613.399 1097.68C571.351 1087.98 533.913 1074.91 526.36 1051.67C518.27 1026.76 545.182 992.934 571.69 960.273L609.814 913.314C617.741 903.55 625.769 893.567 625.689 885.457C625.609 877.346 617.249 871.577 604.243 868.228C590.349 864.637 569.127 863.934 543.892 869.869C510.355 877.765 481.176 894.324 448.091 905.244C415.354 916.041 382.132 920.225 353.288 922.167C324.445 924.109 297.005 924.425 265.075 929.628C199.452 940.326 125.87 970.862 83.2264 1000.58C40.5824 1030.3 24.989 1058.8 25.0165 1082.33C25.0244 1091.15 27.0645 1099.47 33.2573 1106.39C45.6051 1120.17 73.779 1127.79 95.745 1137.82C134.978 1155.75 154.837 1182.93 135.209 1218.8C119.44 1247.65 74.4123 1288.87 123.536 1299.23Z" fill="#8AAEFC"/>
<path d="M58.812 348.716C75.7358 357.737 106.099 364.304 139.288 364.883C187.579 365.721 230.302 354.611 262.467 342.871C294.632 331.131 323.633 317.659 367.185 310.629C415.069 302.914 476.301 304.963 516.923 315.646C534.41 320.242 552.122 326.693 574.869 325.626C596.089 324.63 609.279 316.959 608.236 310.161C607.192 303.363 595.918 297.284 585.409 291.421C547.72 270.403 515.398 247.431 514.608 223.011C513.769 196.829 549.03 171.829 583.578 147.833L633.261 113.335C643.593 106.162 654.081 98.8064 656.26 90.9941C658.44 83.1817 652.016 75.3145 640.455 68.479C628.109 61.1637 607.92 54.584 582.03 53.2641C547.62 51.5166 514.986 59.3038 480.17 60.5874C445.722 61.8498 412.647 56.6247 384.402 50.4655C356.157 44.3063 329.712 36.9746 297.596 33.0887C231.588 25.1059 152.415 33.964 103.186 50.647C53.9561 67.33 31.0501 90.3619 24.5313 112.966C22.0845 121.441 21.7278 130.005 25.7504 138.376C33.7774 155.044 58.7189 170.202 77.0279 185.944C109.723 214.083 121.234 245.721 92.4032 274.706C69.2274 298.038 14.5103 325.098 58.812 348.716Z" fill="#FFDA7C"/>
<path d="M595.812 339.716C612.736 348.737 643.099 355.304 676.288 355.883C724.579 356.721 767.302 345.611 799.467 333.871C831.632 322.131 860.633 308.659 904.185 301.629C952.069 293.914 1013.3 295.963 1053.92 306.646C1071.41 311.242 1089.12 317.693 1111.87 316.626C1133.09 315.63 1146.28 307.959 1145.24 301.161C1144.19 294.363 1132.92 288.284 1122.41 282.421C1084.72 261.403 1052.4 238.431 1051.61 214.011C1050.77 187.829 1086.03 162.829 1120.58 138.833L1170.26 104.335C1180.59 97.162 1191.08 89.8064 1193.26 81.9941C1195.44 74.1817 1189.02 66.3145 1177.45 59.479C1165.11 52.1637 1144.92 45.584 1119.03 44.2641C1084.62 42.5166 1051.99 50.3038 1017.17 51.5874C982.722 52.8498 949.647 47.6247 921.402 41.4655C893.157 35.3063 866.712 27.9746 834.596 24.0887C768.587 16.1059 689.415 24.964 640.186 41.647C590.956 58.33 568.05 81.3619 561.531 103.966C559.084 112.441 558.728 121.005 562.75 129.376C570.777 146.044 595.719 161.202 614.028 176.944C646.723 205.083 658.234 236.721 629.403 265.706C606.227 289.038 551.51 316.098 595.812 339.716Z" fill="#FFDA7C"/>
<path d="M1633.06 317.417C1618.11 326.679 1591.14 333.679 1561.57 334.733C1518.54 336.26 1480.3 325.762 1451.46 314.482C1422.63 303.203 1396.59 290.147 1357.67 283.74C1314.88 276.71 1260.33 279.634 1224.28 290.896C1208.76 295.741 1193.07 302.444 1172.78 301.703C1153.85 301.01 1141.98 293.528 1142.82 286.716C1143.65 279.903 1153.61 273.664 1162.89 267.652C1196.18 246.097 1224.66 222.667 1225.02 198.237C1225.39 172.046 1193.61 147.553 1162.47 124.053L1117.7 90.2687C1108.39 83.244 1098.93 76.0391 1096.88 68.2587C1094.83 60.4784 1100.44 52.5202 1110.65 45.5203C1121.54 38.0294 1139.44 31.162 1162.5 29.4723C1193.15 27.2334 1222.34 34.5536 1253.39 35.3396C1284.12 36.1097 1313.52 30.4126 1338.61 23.8506C1363.69 17.2885 1387.16 9.57974 1415.73 5.23543C1474.45 -3.68952 1545.14 4.03651 1589.26 20.0143C1633.37 35.9921 1654.12 58.6943 1660.25 81.2025C1662.55 89.6419 1662.99 98.1999 1659.53 106.628C1652.61 123.409 1630.6 138.921 1614.5 154.923C1585.76 183.526 1575.96 215.325 1602.07 243.895C1623.06 266.894 1672.21 293.168 1633.06 317.417Z" fill="#FFDA7C"/>
<path d="M1678.06 335.417C1663.11 344.679 1636.14 351.679 1606.57 352.733C1563.54 354.26 1525.3 343.762 1496.46 332.482C1467.63 321.203 1441.59 308.147 1402.67 301.74C1359.88 294.71 1305.33 297.634 1269.28 308.896C1253.76 313.741 1238.07 320.444 1217.78 319.703C1198.85 319.01 1186.98 311.528 1187.82 304.716C1188.65 297.903 1198.61 291.664 1207.89 285.652C1241.18 264.097 1269.66 240.667 1270.02 216.237C1270.39 190.046 1238.61 165.553 1207.47 142.053L1162.7 108.269C1153.39 101.244 1143.93 94.0391 1141.88 86.2587C1139.83 78.4784 1145.44 70.5202 1155.65 63.5203C1166.54 56.0294 1184.44 49.162 1207.5 47.4723C1238.15 45.2334 1267.34 52.5536 1298.39 53.3396C1329.12 54.1097 1358.52 48.4126 1383.61 41.8506C1408.69 35.2885 1432.16 27.5797 1460.73 23.2354C1519.45 14.3105 1590.14 22.0365 1634.26 38.0143C1678.37 53.9921 1699.12 76.6943 1705.25 99.2025C1707.55 107.642 1707.99 116.2 1704.53 124.628C1697.61 141.409 1675.6 156.921 1659.5 172.923C1630.76 201.526 1620.96 233.325 1647.07 261.895C1668.06 284.894 1717.21 311.168 1678.06 335.417Z" fill="#FFDA7C"/>
<path d="M641.247 780.701C622.376 784.122 594.486 797.803 568.092 817.933C529.693 847.229 503.072 882.441 485.122 911.6C467.173 940.76 452.78 969.314 422.978 1001.84C390.202 1037.59 340.9 1073.96 302.41 1090.78C285.842 1098.02 267.947 1103.95 250.765 1118.89C234.738 1132.83 229.15 1147.03 234.185 1151.72C239.22 1156.4 251.833 1154.18 263.713 1152.26C306.313 1145.37 345.915 1143.34 361.682 1162.01C378.578 1182.02 366.425 1223.51 354.208 1263.76L336.633 1321.63C332.978 1333.67 329.313 1345.94 332.449 1353.42C335.585 1360.9 345.503 1363.09 358.812 1361.28C373.033 1359.36 392.95 1352 414.078 1336.98C442.153 1317.01 462.922 1290.66 489.436 1268.05C515.675 1245.7 544.86 1229.28 570.836 1216.6C596.811 1203.91 622.103 1193.26 649.705 1176.39C706.434 1141.71 763.044 1085.65 791.313 1042.03C819.582 998.412 823.265 966.139 814.358 944.365C811.021 936.199 805.989 929.26 797.642 925.189C781.007 917.092 752.041 920.672 727.915 919.68C684.816 917.886 656.164 900.208 660.801 859.59C664.509 826.913 690.647 771.75 641.247 780.701Z" fill="#8AAEFC"/>
<path d="M1337.99 1028.25C1319.86 1020.69 1287.43 1015.43 1252.02 1015.37C1200.51 1015.3 1155.03 1025.47 1120.82 1036.04C1086.61 1046.61 1055.78 1058.64 1009.39 1065.3C958.377 1072.61 893.05 1071.66 849.636 1062.98C830.947 1059.24 812.003 1053.91 787.749 1055.14C765.124 1056.28 751.118 1063.09 752.287 1068.94C753.455 1074.8 765.529 1079.9 776.785 1084.82C817.155 1102.47 851.816 1121.88 852.857 1142.96C853.964 1165.56 816.558 1187.63 779.904 1208.82L727.192 1239.29C716.23 1245.62 705.104 1252.12 702.842 1258.89C700.581 1265.67 707.497 1272.38 719.883 1278.13C733.111 1284.28 754.697 1289.69 782.323 1290.48C819.038 1291.53 853.782 1284.36 890.907 1282.79C927.639 1281.23 962.959 1285.3 993.135 1290.24C1023.31 1295.18 1051.58 1301.16 1085.86 1304.08C1156.33 1310.09 1240.71 1301.37 1293.08 1286.3C1345.45 1271.23 1369.7 1251.03 1376.47 1231.42C1379.01 1224.07 1379.32 1216.66 1374.96 1209.49C1366.26 1195.2 1339.54 1182.44 1319.88 1169.09C1284.78 1145.23 1272.25 1118.05 1302.76 1092.63C1327.29 1072.17 1385.43 1048.06 1337.99 1028.25Z" fill="#8AAEFC"/>
<path d="M1475.06 982.789C1456.2 977.29 1423.38 975.671 1388.19 979.56C1336.99 985.224 1292.93 1000.4 1260.1 1014.71C1227.28 1029.03 1197.99 1044.41 1152.63 1056.2C1102.75 1069.14 1037.72 1075.47 993.61 1071.68C974.621 1070.05 955.201 1066.86 931.235 1070.78C908.878 1074.44 895.717 1082.76 897.53 1088.45C899.343 1094.14 911.91 1097.87 923.645 1101.5C965.729 1114.55 1002.34 1129.97 1005.72 1150.81C1009.34 1173.15 974.619 1199.24 940.553 1224.38L891.561 1260.53C881.374 1268.05 871.039 1275.74 869.547 1282.73C868.054 1289.71 875.674 1295.61 888.624 1299.94C902.454 1304.58 924.509 1307.56 952.051 1305.27C988.654 1302.22 1022.38 1291.23 1059.1 1285.53C1095.43 1279.89 1130.99 1280 1161.53 1281.55C1192.06 1283.1 1220.82 1285.89 1255.22 1284.98C1325.92 1283.1 1408.8 1265.04 1459.16 1244.23C1509.53 1223.42 1531.38 1200.65 1535.92 1180.4C1537.63 1172.81 1537.11 1165.42 1531.98 1158.78C1521.75 1145.55 1493.77 1135.84 1472.75 1124.77C1435.21 1104.96 1419.72 1079.35 1447.22 1050.69C1469.32 1027.62 1524.41 997.186 1475.06 982.789Z" fill="#8AAEFC"/>
<ellipse cx="1349.5" cy="832" rx="85.5" ry="89" fill="#8AAEFC"/>
<ellipse cx="1405.5" cy="756" rx="55.5" ry="52" fill="#8AAEFC"/>
<ellipse cx="1264" cy="852.5" rx="98" ry="90.5" fill="#8AAEFC"/>
<ellipse cx="1560.14" cy="1074.88" rx="151.5" ry="118.5" transform="rotate(-15.1015 1560.14 1074.88)" fill="#8AAEFC"/>
</svg>
