<svg width="1041" height="1322" viewBox="0 0 1041 1322" fill="none" xmlns="http://www.w3.org/2000/svg">
<path opacity="0.1" d="M157.15 387.904C188.97 428.364 176.61 487.474 156.39 534.804C149.62 550.654 141.96 567.424 144.82 584.414C148.31 605.194 166.82 620.414 186.34 628.414C221.84 643.094 264.34 639.594 296.95 619.304C325.14 601.764 345.33 573.244 374 556.504C422 528.504 483.06 539.074 535.16 558.364C572.02 572.014 612.32 589.774 648.95 575.504C674.72 565.504 692.54 541.034 702.25 515.134C706.94 502.624 710.34 489.134 719.25 479.134C724.57 473.244 731.51 469.054 738.63 465.534C803.63 433.324 885.63 450.534 948.71 414.854C991.32 390.734 1018.6 345.224 1030.71 297.774C1042.82 250.324 1041.38 200.564 1038.31 151.704C1036.13 116.974 1032.22 79.9038 1010.03 53.0938C986.56 24.7438 946.27 14.1938 909.86 19.5838C873.45 24.9738 840.43 44.2738 811.43 66.8938C775.14 95.1638 741.49 130.374 696.93 141.834C666.59 149.634 634.67 145.364 603.37 143.894C551.05 141.424 498.72 146.894 446.69 152.894C396.88 158.654 346.69 164.994 299.26 181.194C265.68 192.664 238.76 213.474 207.05 228.014C186.38 237.494 163.84 240.114 144.28 252.184C120.17 267.054 98.0797 292.924 104.28 323.184C110.1 351.994 140.25 366.434 157.15 387.904Z" fill="#6C63FF"/>
<path d="M266.042 0L266.042 300.346L798.474 300.346V0L266.042 0Z" fill="#1C1D21"/>
<path d="M927.223 185.226H821.223V373.226H927.223V185.226Z" fill="#1C1D21"/>
<path d="M753.549 18.7182C755.892 18.7182 757.792 16.8185 757.792 14.475C757.792 12.1315 755.892 10.2318 753.549 10.2318C751.206 10.2318 749.306 12.1315 749.306 14.475C749.306 16.8185 751.206 18.7182 753.549 18.7182Z" fill="#39CA86"/>
<path d="M753.549 18.7182C755.892 18.7182 757.792 16.8185 757.792 14.475C757.792 12.1315 755.892 10.2318 753.549 10.2318C751.206 10.2318 749.306 12.1315 749.306 14.475C749.306 16.8185 751.206 18.7182 753.549 18.7182Z" fill="#39CA86"/>
<path d="M767.126 18.9079C769.47 18.9079 771.369 17.0082 771.369 14.6647C771.369 12.3212 769.47 10.4215 767.126 10.4215C764.783 10.4215 762.883 12.3212 762.883 14.6647C762.883 17.0082 764.783 18.9079 767.126 18.9079Z" fill="#39CA86"/>
<path d="M780.703 19.0976C783.046 19.0976 784.946 17.1979 784.946 14.8544C784.946 12.5109 783.046 10.6112 780.703 10.6112C778.36 10.6112 776.46 12.5109 776.46 14.8544C776.46 17.1979 778.36 19.0976 780.703 19.0976Z" fill="#39CA86"/>
<path d="M916.223 215.226C920.089 215.226 923.223 212.092 923.223 208.226C923.223 204.36 920.089 201.226 916.223 201.226C912.357 201.226 909.223 204.36 909.223 208.226C909.223 212.092 912.357 215.226 916.223 215.226Z" fill="#39CA86"/>
<path d="M764.985 73.6935C774.65 73.6935 782.485 65.8584 782.485 56.1935C782.485 46.5285 774.65 38.6935 764.985 38.6935C755.32 38.6935 747.485 46.5285 747.485 56.1935C747.485 65.8584 755.32 73.6935 764.985 73.6935Z" fill="#39CA86"/>
<path d="M287.636 52.9578L287.636 257.059C287.636 259.821 289.875 262.059 292.636 262.059H353.575C356.336 262.059 358.575 259.821 358.575 257.059V52.9578C358.575 50.1964 356.336 47.9578 353.575 47.9578H292.636C289.875 47.9578 287.636 50.1964 287.636 52.9578Z" fill="#39CA86"/>
<path d="M296.127 81.5951V229.534C296.127 232.296 298.365 234.534 301.127 234.534H345.123C347.884 234.534 350.123 232.296 350.123 229.534V81.5951C350.123 78.8337 347.884 76.5951 345.123 76.5951H301.127C298.365 76.5951 296.127 78.8337 296.127 81.5951Z" fill="black" fill-opacity="0.2"/>
<path d="M582.147 60.8344H437.981C436.876 60.8344 435.981 61.7298 435.981 62.8344V118.239C435.981 119.344 436.876 120.239 437.981 120.239H582.147C583.251 120.239 584.147 119.344 584.147 118.239V62.8344C584.147 61.7298 583.251 60.8344 582.147 60.8344Z" fill="#39CA86"/>
<path d="M569.958 160.802H512.346C511.242 160.802 510.346 161.698 510.346 162.802V226.837C510.346 227.942 511.242 228.837 512.346 228.837H569.958C571.062 228.837 571.958 227.942 571.958 226.837V162.802C571.958 161.698 571.062 160.802 569.958 160.802Z" fill="#39CA86"/>
<path d="M675.896 62.9885H620.491C619.387 62.9885 618.491 63.8839 618.491 64.9885V182.938C618.491 184.043 619.387 184.938 620.491 184.938H675.896C677.001 184.938 677.896 184.043 677.896 182.938V64.9885C677.896 63.8839 677.001 62.9885 675.896 62.9885Z" fill="#39CA86"/>
<path d="M901.223 217.226H846.223C845.119 217.226 844.223 218.121 844.223 219.226V244.226C844.223 245.33 845.119 246.226 846.223 246.226H901.223C902.328 246.226 903.223 245.33 903.223 244.226V219.226C903.223 218.121 902.328 217.226 901.223 217.226Z" fill="#39CA86"/>
<path d="M901.223 269.226H846.223C845.119 269.226 844.223 270.121 844.223 271.226V296.226C844.223 297.33 845.119 298.226 846.223 298.226H901.223C902.328 298.226 903.223 297.33 903.223 296.226V271.226C903.223 270.121 902.328 269.226 901.223 269.226Z" fill="#39CA86"/>
<path d="M901.223 322.226H846.223C845.119 322.226 844.223 323.121 844.223 324.226V349.226C844.223 350.33 845.119 351.226 846.223 351.226H901.223C902.328 351.226 903.223 350.33 903.223 349.226V324.226C903.223 323.121 902.328 322.226 901.223 322.226Z" fill="#39CA86"/>
<path d="M572.024 134.031H445.519C444.415 134.031 443.519 134.927 443.519 136.031V137.123C443.519 138.228 444.415 139.123 445.519 139.123H572.024C573.128 139.123 574.024 138.228 574.024 137.123V136.031C574.024 134.927 573.128 134.031 572.024 134.031Z" fill="#39CA86"/>
<path d="M561.21 236.726H521.081C519.976 236.726 519.081 237.622 519.081 238.726V239.818C519.081 240.923 519.976 241.818 521.081 241.818H561.21C562.315 241.818 563.21 240.923 563.21 239.818V238.726C563.21 237.622 562.315 236.726 561.21 236.726Z" fill="#39CA86"/>
<path d="M667.262 195.908H627.132C626.028 195.908 625.132 196.803 625.132 197.908V198.999C625.132 200.104 626.028 200.999 627.132 200.999H667.262C668.366 200.999 669.262 200.104 669.262 198.999V197.908C669.262 196.803 668.366 195.908 667.262 195.908Z" fill="#39CA86"/>
<path d="M895.223 251.226H853.223C852.671 251.226 852.223 251.673 852.223 252.226C852.223 252.778 852.671 253.226 853.223 253.226H895.223C895.775 253.226 896.223 252.778 896.223 252.226C896.223 251.673 895.775 251.226 895.223 251.226Z" fill="#39CA86"/>
<path d="M895.223 303.226H853.223C852.671 303.226 852.223 303.673 852.223 304.226C852.223 304.778 852.671 305.226 853.223 305.226H895.223C895.775 305.226 896.223 304.778 896.223 304.226C896.223 303.673 895.775 303.226 895.223 303.226Z" fill="#39CA86"/>
<path d="M895.223 356.226H853.223C852.671 356.226 852.223 356.673 852.223 357.226C852.223 357.778 852.671 358.226 853.223 358.226H895.223C895.775 358.226 896.223 357.778 896.223 357.226C896.223 356.673 895.775 356.226 895.223 356.226Z" fill="#39CA86"/>
<rect x="281.247" y="10.512" width="189.122" height="9" rx="4.5" fill="#39CA86"/>
<rect x="829.223" y="191.226" width="37" height="5" rx="2" fill="#39CA86"/>
<rect x="883.223" y="191.226" width="10" height="5" rx="2" fill="#39CA86"/>
<rect x="898.223" y="191.226" width="10" height="5" rx="2" fill="#39CA86"/>
<rect x="913.223" y="191.226" width="10" height="5" rx="2" fill="#39CA86"/>
<rect x="724.167" y="258.446" width="52.6118" height="22.0675" rx="5" fill="#39CA86"/>
<rect x="919.223" y="343.226" width="63" height="3" rx="1" transform="rotate(-90 919.223 343.226)" fill="#39CA86"/>
<rect x="919.223" y="343.226" width="63" height="3" rx="1" transform="rotate(-90 919.223 343.226)" fill="white" fill-opacity="0.5"/>
<path d="M350.223 907.5C350.223 907.5 534.324 871.539 545.653 987.413C556.983 1103.29 394.124 1136.25 521.579 1159.23" stroke="#27262D" stroke-width="2" stroke-miterlimit="10"/>
<path opacity="0.1" d="M157.15 387.904C188.97 428.364 176.61 487.474 156.39 534.804C149.62 550.654 141.96 567.424 144.82 584.414C148.31 605.194 166.82 620.414 186.34 628.414C221.84 643.094 264.34 639.594 296.95 619.304C325.14 601.764 345.33 573.244 374 556.504C422 528.504 483.06 539.074 535.16 558.364C572.02 572.014 612.32 589.774 648.95 575.504C674.72 565.504 692.54 541.034 702.25 515.134C706.94 502.624 710.34 489.134 719.25 479.134C724.57 473.244 731.51 469.054 738.63 465.534C803.63 433.324 885.63 450.534 948.71 414.854C991.32 390.734 1018.6 345.224 1030.71 297.774C1042.82 250.324 1041.38 200.564 1038.31 151.704C1036.13 116.974 1032.22 79.9038 1010.03 53.0938C986.56 24.7438 946.27 14.1938 909.86 19.5838C873.45 24.9738 840.43 44.2738 811.43 66.8938C775.14 95.1638 741.49 130.374 696.93 141.834C666.59 149.634 634.67 145.364 603.37 143.894C551.05 141.424 498.72 146.894 446.69 152.894C396.88 158.654 346.69 164.994 299.26 181.194C265.68 192.664 238.76 213.474 207.05 228.014C186.38 237.494 163.84 240.114 144.28 252.184C120.17 267.054 98.0797 292.924 104.28 323.184C110.1 351.994 140.25 366.434 157.15 387.904Z" fill="#6C63FF"/>
<path d="M266.042 0L266.042 300.346L798.474 300.346V0L266.042 0Z" fill="#1C1D21"/>
<path d="M927.223 185.226H821.223V373.226H927.223V185.226Z" fill="#1C1D21"/>
<path d="M753.549 18.7182C755.892 18.7182 757.792 16.8185 757.792 14.475C757.792 12.1315 755.892 10.2318 753.549 10.2318C751.206 10.2318 749.306 12.1315 749.306 14.475C749.306 16.8185 751.206 18.7182 753.549 18.7182Z" fill="#39CA86"/>
<path d="M753.549 18.7182C755.892 18.7182 757.792 16.8185 757.792 14.475C757.792 12.1315 755.892 10.2318 753.549 10.2318C751.206 10.2318 749.306 12.1315 749.306 14.475C749.306 16.8185 751.206 18.7182 753.549 18.7182Z" fill="#39CA86"/>
<path d="M767.126 18.9079C769.47 18.9079 771.369 17.0082 771.369 14.6647C771.369 12.3212 769.47 10.4215 767.126 10.4215C764.783 10.4215 762.883 12.3212 762.883 14.6647C762.883 17.0082 764.783 18.9079 767.126 18.9079Z" fill="#39CA86"/>
<path d="M780.703 19.0976C783.046 19.0976 784.946 17.1979 784.946 14.8544C784.946 12.5109 783.046 10.6112 780.703 10.6112C778.36 10.6112 776.46 12.5109 776.46 14.8544C776.46 17.1979 778.36 19.0976 780.703 19.0976Z" fill="#39CA86"/>
<path d="M916.223 215.226C920.089 215.226 923.223 212.092 923.223 208.226C923.223 204.36 920.089 201.226 916.223 201.226C912.357 201.226 909.223 204.36 909.223 208.226C909.223 212.092 912.357 215.226 916.223 215.226Z" fill="#39CA86"/>
<path d="M764.985 73.6935C774.65 73.6935 782.485 65.8584 782.485 56.1935C782.485 46.5285 774.65 38.6935 764.985 38.6935C755.32 38.6935 747.485 46.5285 747.485 56.1935C747.485 65.8584 755.32 73.6935 764.985 73.6935Z" fill="#39CA86"/>
<path d="M287.636 52.9578L287.636 257.059C287.636 259.821 289.875 262.059 292.636 262.059H353.575C356.336 262.059 358.575 259.821 358.575 257.059V52.9578C358.575 50.1964 356.336 47.9578 353.575 47.9578H292.636C289.875 47.9578 287.636 50.1964 287.636 52.9578Z" fill="#39CA86"/>
<path d="M296.127 81.5951V229.534C296.127 232.296 298.365 234.534 301.127 234.534H345.123C347.884 234.534 350.123 232.296 350.123 229.534V81.5951C350.123 78.8337 347.884 76.5951 345.123 76.5951H301.127C298.365 76.5951 296.127 78.8337 296.127 81.5951Z" fill="black" fill-opacity="0.2"/>
<path d="M582.147 60.8344H437.981C436.876 60.8344 435.981 61.7298 435.981 62.8344V118.239C435.981 119.344 436.876 120.239 437.981 120.239H582.147C583.251 120.239 584.147 119.344 584.147 118.239V62.8344C584.147 61.7298 583.251 60.8344 582.147 60.8344Z" fill="#39CA86"/>
<path d="M569.958 160.802H512.346C511.242 160.802 510.346 161.698 510.346 162.802V226.837C510.346 227.942 511.242 228.837 512.346 228.837H569.958C571.062 228.837 571.958 227.942 571.958 226.837V162.802C571.958 161.698 571.062 160.802 569.958 160.802Z" fill="#39CA86"/>
<path d="M675.896 62.9885H620.491C619.387 62.9885 618.491 63.8839 618.491 64.9885V182.938C618.491 184.043 619.387 184.938 620.491 184.938H675.896C677.001 184.938 677.896 184.043 677.896 182.938V64.9885C677.896 63.8839 677.001 62.9885 675.896 62.9885Z" fill="#39CA86"/>
<path d="M901.223 217.226H846.223C845.119 217.226 844.223 218.121 844.223 219.226V244.226C844.223 245.33 845.119 246.226 846.223 246.226H901.223C902.328 246.226 903.223 245.33 903.223 244.226V219.226C903.223 218.121 902.328 217.226 901.223 217.226Z" fill="#39CA86"/>
<path d="M901.223 269.226H846.223C845.119 269.226 844.223 270.121 844.223 271.226V296.226C844.223 297.33 845.119 298.226 846.223 298.226H901.223C902.328 298.226 903.223 297.33 903.223 296.226V271.226C903.223 270.121 902.328 269.226 901.223 269.226Z" fill="#39CA86"/>
<path d="M901.223 322.226H846.223C845.119 322.226 844.223 323.121 844.223 324.226V349.226C844.223 350.33 845.119 351.226 846.223 351.226H901.223C902.328 351.226 903.223 350.33 903.223 349.226V324.226C903.223 323.121 902.328 322.226 901.223 322.226Z" fill="#39CA86"/>
<path d="M572.024 134.031H445.519C444.415 134.031 443.519 134.927 443.519 136.031V137.123C443.519 138.228 444.415 139.123 445.519 139.123H572.024C573.128 139.123 574.024 138.228 574.024 137.123V136.031C574.024 134.927 573.128 134.031 572.024 134.031Z" fill="#39CA86"/>
<path d="M561.21 236.726H521.081C519.976 236.726 519.081 237.622 519.081 238.726V239.818C519.081 240.923 519.976 241.818 521.081 241.818H561.21C562.315 241.818 563.21 240.923 563.21 239.818V238.726C563.21 237.622 562.315 236.726 561.21 236.726Z" fill="#39CA86"/>
<path d="M667.262 195.908H627.132C626.028 195.908 625.132 196.803 625.132 197.908V198.999C625.132 200.104 626.028 200.999 627.132 200.999H667.262C668.366 200.999 669.262 200.104 669.262 198.999V197.908C669.262 196.803 668.366 195.908 667.262 195.908Z" fill="#39CA86"/>
<path d="M895.223 251.226H853.223C852.671 251.226 852.223 251.673 852.223 252.226C852.223 252.778 852.671 253.226 853.223 253.226H895.223C895.775 253.226 896.223 252.778 896.223 252.226C896.223 251.673 895.775 251.226 895.223 251.226Z" fill="#39CA86"/>
<path d="M895.223 303.226H853.223C852.671 303.226 852.223 303.673 852.223 304.226C852.223 304.778 852.671 305.226 853.223 305.226H895.223C895.775 305.226 896.223 304.778 896.223 304.226C896.223 303.673 895.775 303.226 895.223 303.226Z" fill="#39CA86"/>
<path d="M895.223 356.226H853.223C852.671 356.226 852.223 356.673 852.223 357.226C852.223 357.778 852.671 358.226 853.223 358.226H895.223C895.775 358.226 896.223 357.778 896.223 357.226C896.223 356.673 895.775 356.226 895.223 356.226Z" fill="#39CA86"/>
<rect x="281.247" y="10.512" width="189.122" height="9" rx="4.5" fill="#39CA86"/>
<rect x="829.223" y="191.226" width="37" height="5" rx="2" fill="#39CA86"/>
<rect x="883.223" y="191.226" width="10" height="5" rx="2" fill="#39CA86"/>
<rect x="898.223" y="191.226" width="10" height="5" rx="2" fill="#39CA86"/>
<rect x="913.223" y="191.226" width="10" height="5" rx="2" fill="#39CA86"/>
<rect x="724.167" y="258.446" width="52.6118" height="22.0675" rx="5" fill="#39CA86"/>
<rect x="919.223" y="343.226" width="63" height="3" rx="1" transform="rotate(-90 919.223 343.226)" fill="#39CA86"/>
<rect x="919.223" y="343.226" width="63" height="3" rx="1" transform="rotate(-90 919.223 343.226)" fill="white" fill-opacity="0.5"/>
<path opacity="0.1" d="M356.223 1072.23C473.86 1072.23 569.223 976.862 569.223 859.226C569.223 741.589 473.86 646.226 356.223 646.226C238.586 646.226 143.223 741.589 143.223 859.226C143.223 976.862 238.586 1072.23 356.223 1072.23Z" fill="#6C63FF"/>
<path d="M129.041 756.425C127.36 705.254 178.383 662.127 243.118 660L129.041 756.425Z" fill="#FFDA7C"/>
<path d="M103.223 790.394C103.223 690.256 165.933 609.226 243.431 609.226L103.223 790.394Z" fill="#27262D"/>
<path d="M137.223 779.341C88.0298 737.612 77.6721 669.129 114.065 626.226L137.223 779.341Z" fill="#39CA86"/>
<path d="M138.158 840.248C61.7933 775.471 40.5657 675.232 90.6971 616.133L138.158 840.248Z" fill="#27262D"/>
<path d="M152.223 776.418L152.223 1038.42H320.223V776.418H152.223Z" fill="#2C2B32"/>
<path d="M365.223 747.226H103.223V851.226H365.223V747.226Z" fill="#1C1D21"/>
<path d="M365.223 863.226H103.223V967.226H365.223V863.226Z" fill="#1C1D21"/>
<path d="M365.223 979.226H103.223V1083.23H365.223V979.226Z" fill="#1C1D21"/>
<path d="M314.223 768.226C317.537 768.226 320.223 765.539 320.223 762.226C320.223 758.912 317.537 756.226 314.223 756.226C310.909 756.226 308.223 758.912 308.223 762.226C308.223 765.539 310.909 768.226 314.223 768.226Z" fill="#FFDA7C" fill-opacity="0.5"/>
<path d="M335.223 768.226C338.537 768.226 341.223 765.539 341.223 762.226C341.223 758.912 338.537 756.226 335.223 756.226C331.909 756.226 329.223 758.912 329.223 762.226C329.223 765.539 331.909 768.226 335.223 768.226Z" fill="#FFDA7C" fill-opacity="0.75"/>
<path d="M356.223 768.226C359.537 768.226 362.223 765.539 362.223 762.226C362.223 758.912 359.537 756.226 356.223 756.226C352.909 756.226 350.223 758.912 350.223 762.226C350.223 765.539 352.909 768.226 356.223 768.226Z" fill="#FFDA7C"/>
<path d="M314.223 882.226C317.537 882.226 320.223 879.539 320.223 876.226C320.223 872.912 317.537 870.226 314.223 870.226C310.909 870.226 308.223 872.912 308.223 876.226C308.223 879.539 310.909 882.226 314.223 882.226Z" fill="#FFDA7C" fill-opacity="0.5"/>
<path d="M335.223 882.226C338.537 882.226 341.223 879.539 341.223 876.226C341.223 872.912 338.537 870.226 335.223 870.226C331.909 870.226 329.223 872.912 329.223 876.226C329.223 879.539 331.909 882.226 335.223 882.226Z" fill="#FFDA7C" fill-opacity="0.75"/>
<path d="M356.223 882.226C359.537 882.226 362.223 879.539 362.223 876.226C362.223 872.912 359.537 870.226 356.223 870.226C352.909 870.226 350.223 872.912 350.223 876.226C350.223 879.539 352.909 882.226 356.223 882.226Z" fill="#FFDA7C"/>
<path d="M314.223 996.226C317.537 996.226 320.223 993.54 320.223 990.226C320.223 986.912 317.537 984.226 314.223 984.226C310.909 984.226 308.223 986.912 308.223 990.226C308.223 993.54 310.909 996.226 314.223 996.226Z" fill="#FFDA7C" fill-opacity="0.5"/>
<path d="M335.223 996.226C338.537 996.226 341.223 993.54 341.223 990.226C341.223 986.912 338.537 984.226 335.223 984.226C331.909 984.226 329.223 986.912 329.223 990.226C329.223 993.54 331.909 996.226 335.223 996.226Z" fill="#FFDA7C" fill-opacity="0.75"/>
<path d="M356.223 996.226C359.537 996.226 362.223 993.54 362.223 990.226C362.223 986.912 359.537 984.226 356.223 984.226C352.909 984.226 350.223 986.912 350.223 990.226C350.223 993.54 352.909 996.226 356.223 996.226Z" fill="#FFDA7C"/>
<path d="M996.975 646.226H600.223V848.226H996.975V646.226Z" fill="#1C1D21"/>
<path d="M712.38 714.244H672.2V717.592H712.38V714.244Z" fill="#FFDA7C"/>
<path d="M765.953 714.244H725.773V717.592H765.953V714.244Z" fill="#FFDA7C"/>
<path d="M843.801 745.216H803.622V748.564H843.801V745.216Z" fill="#FFDA7C"/>
<path d="M898.212 745.216H858.032V748.564H898.212V745.216Z" fill="#FFDA7C"/>
<path d="M898.212 714.244H780.183V717.592H898.212V714.244Z" fill="#FFDA7C"/>
<path d="M790.228 745.216H672.2V748.564H790.228V745.216Z" fill="#FFDA7C"/>
<path d="M790.228 776.188H672.2V779.536H790.228V776.188Z" fill="#FFDA7C"/>
<path d="M898.212 776.188H816.178V779.536H898.212V776.188Z" fill="#FFDA7C"/>
<path d="M660.907 728.379L646.771 714.244L660.907 700.108L663.735 702.936L652.427 714.244L663.735 725.551L660.907 728.379Z" fill="#FFDA7C"/>
<path d="M936.291 793.672L933.463 790.844L944.771 779.535L933.463 768.228L936.291 765.4L950.427 779.535L936.291 793.672Z" fill="#FFDA7C"/>
<path d="M921.41 764.726L913.038 792.349L916.867 793.509L925.238 765.886L921.41 764.726Z" fill="#FFDA7C"/>
<path d="M874.126 1042.23H497.223V1321.23H874.126V1042.23Z" fill="#1C1D21"/>
<path d="M681.484 1080.35H588.502C588.354 1080.35 588.207 1080.33 588.069 1080.27C587.932 1080.22 587.808 1080.14 587.703 1080.04C587.597 1079.94 587.514 1079.83 587.457 1079.7C587.4 1079.57 587.371 1079.43 587.371 1079.29C587.371 1079.15 587.4 1079.01 587.457 1078.88C587.514 1078.75 587.597 1078.63 587.703 1078.54C587.808 1078.44 587.932 1078.36 588.069 1078.3C588.207 1078.25 588.354 1078.22 588.502 1078.22H681.484C681.782 1078.23 682.069 1078.34 682.28 1078.54C682.491 1078.74 682.61 1079.01 682.61 1079.29C682.61 1079.57 682.491 1079.84 682.28 1080.04C682.069 1080.24 681.782 1080.35 681.484 1080.35Z" fill="#F2F2F2"/>
<path d="M783.267 1092.06H637.024C636.725 1092.06 636.438 1091.95 636.226 1091.75C636.014 1091.55 635.896 1091.28 635.896 1091C635.896 1090.72 636.014 1090.45 636.226 1090.25C636.438 1090.05 636.725 1089.94 637.024 1089.94H783.267C783.415 1089.94 783.562 1089.96 783.699 1090.02C783.836 1090.07 783.96 1090.15 784.065 1090.25C784.17 1090.35 784.253 1090.46 784.309 1090.59C784.366 1090.72 784.395 1090.86 784.395 1091C784.395 1091.14 784.366 1091.28 784.309 1091.41C784.253 1091.54 784.17 1091.65 784.065 1091.75C783.96 1091.85 783.836 1091.93 783.699 1091.98C783.562 1092.04 783.415 1092.06 783.267 1092.06Z" fill="#F2F2F2"/>
<path d="M681.935 1103.78H588.953C588.654 1103.78 588.367 1103.66 588.155 1103.46C587.944 1103.26 587.825 1102.99 587.825 1102.71C587.825 1102.43 587.944 1102.16 588.155 1101.96C588.367 1101.76 588.654 1101.65 588.953 1101.65H681.935C682.234 1101.65 682.521 1101.76 682.733 1101.96C682.945 1102.16 683.063 1102.43 683.063 1102.71C683.063 1102.99 682.945 1103.26 682.733 1103.46C682.521 1103.66 682.234 1103.78 681.935 1103.78Z" fill="#F2F2F2"/>
<path d="M783.267 1103.99H690.285C689.986 1103.99 689.699 1103.88 689.487 1103.68C689.276 1103.48 689.157 1103.21 689.157 1102.92C689.157 1102.64 689.276 1102.37 689.487 1102.17C689.699 1101.97 689.986 1101.86 690.285 1101.86H783.267C783.566 1101.86 783.853 1101.97 784.065 1102.17C784.276 1102.37 784.395 1102.64 784.395 1102.92C784.395 1103.21 784.276 1103.48 784.065 1103.68C783.853 1103.88 783.566 1103.99 783.267 1103.99Z" fill="#F2F2F2"/>
<path d="M682.161 1115.49H589.179C588.88 1115.49 588.593 1115.38 588.381 1115.18C588.169 1114.98 588.051 1114.71 588.051 1114.42C588.051 1114.14 588.169 1113.87 588.381 1113.67C588.593 1113.47 588.88 1113.36 589.179 1113.36H682.161C682.46 1113.36 682.747 1113.47 682.959 1113.67C683.17 1113.87 683.289 1114.14 683.289 1114.42C683.289 1114.71 683.17 1114.98 682.959 1115.18C682.747 1115.38 682.46 1115.49 682.161 1115.49Z" fill="#F2F2F2"/>
<path d="M682.386 1127.2H589.405C589.105 1127.2 588.818 1127.09 588.607 1126.89C588.395 1126.69 588.276 1126.42 588.276 1126.13C588.276 1125.85 588.395 1125.58 588.607 1125.38C588.818 1125.18 589.105 1125.07 589.405 1125.07H682.386C682.686 1125.07 682.973 1125.18 683.184 1125.38C683.396 1125.58 683.515 1125.85 683.515 1126.13C683.515 1126.42 683.396 1126.69 683.184 1126.89C682.973 1127.09 682.686 1127.2 682.386 1127.2Z" fill="#F2F2F2"/>
<path d="M724.589 1080.57H697.958C697.659 1080.57 697.372 1080.45 697.161 1080.25C696.949 1080.06 696.83 1079.78 696.83 1079.5C696.83 1079.22 696.949 1078.95 697.161 1078.75C697.372 1078.55 697.659 1078.44 697.958 1078.44H724.589C724.888 1078.44 725.175 1078.55 725.387 1078.75C725.599 1078.95 725.718 1079.22 725.718 1079.5C725.718 1079.78 725.599 1080.06 725.387 1080.25C725.175 1080.45 724.888 1080.57 724.589 1080.57Z" fill="#F2F2F2"/>
<path d="M724.589 1115.49H697.958C697.659 1115.49 697.372 1115.38 697.161 1115.18C696.949 1114.98 696.83 1114.71 696.83 1114.42C696.83 1114.14 696.949 1113.87 697.161 1113.67C697.372 1113.47 697.659 1113.36 697.958 1113.36H724.589C724.888 1113.36 725.175 1113.47 725.387 1113.67C725.599 1113.87 725.718 1114.14 725.718 1114.42C725.718 1114.71 725.599 1114.98 725.387 1115.18C725.175 1115.38 724.888 1115.49 724.589 1115.49Z" fill="#F2F2F2"/>
<path d="M724.589 1126.99H697.958C697.81 1126.99 697.663 1126.96 697.526 1126.91C697.389 1126.85 697.264 1126.77 697.159 1126.67C697.054 1126.58 696.971 1126.46 696.914 1126.33C696.857 1126.2 696.828 1126.06 696.828 1125.92C696.828 1125.78 696.857 1125.64 696.914 1125.51C696.971 1125.38 697.054 1125.27 697.159 1125.17C697.264 1125.07 697.389 1124.99 697.526 1124.94C697.663 1124.88 697.81 1124.86 697.958 1124.86H724.589C724.738 1124.86 724.885 1124.88 725.022 1124.94C725.159 1124.99 725.284 1125.07 725.389 1125.17C725.494 1125.27 725.577 1125.38 725.634 1125.51C725.691 1125.64 725.72 1125.78 725.72 1125.92C725.72 1126.06 725.691 1126.2 725.634 1126.33C725.577 1126.46 725.494 1126.58 725.389 1126.67C725.284 1126.77 725.159 1126.85 725.022 1126.91C724.885 1126.96 724.738 1126.99 724.589 1126.99Z" fill="#F2F2F2"/>
<path d="M769.274 1126.99H742.644C742.345 1126.99 742.059 1126.87 741.847 1126.67C741.636 1126.47 741.518 1126.2 741.518 1125.92C741.518 1125.64 741.636 1125.37 741.847 1125.17C742.059 1124.97 742.345 1124.86 742.644 1124.86H769.274C769.423 1124.86 769.57 1124.88 769.707 1124.94C769.844 1124.99 769.969 1125.07 770.074 1125.17C770.179 1125.27 770.262 1125.38 770.319 1125.51C770.376 1125.64 770.405 1125.78 770.405 1125.92C770.405 1126.06 770.376 1126.2 770.319 1126.33C770.262 1126.46 770.179 1126.58 770.074 1126.67C769.969 1126.77 769.844 1126.85 769.707 1126.91C769.57 1126.96 769.423 1126.99 769.274 1126.99Z" fill="#F2F2F2"/>
<path d="M614.907 1092.06H588.276C587.977 1092.06 587.69 1091.95 587.478 1091.75C587.267 1091.55 587.148 1091.28 587.148 1091C587.148 1090.72 587.267 1090.45 587.478 1090.25C587.69 1090.05 587.977 1089.94 588.276 1089.94H614.907C615.206 1089.94 615.493 1090.05 615.705 1090.25C615.916 1090.45 616.035 1090.72 616.035 1091C616.035 1091.28 615.916 1091.55 615.705 1091.75C615.493 1091.95 615.206 1092.06 614.907 1092.06Z" fill="#F2F2F2"/>
<path d="M681.596 1252.83H588.615C588.316 1252.83 588.029 1252.72 587.817 1252.52C587.605 1252.32 587.486 1252.05 587.486 1251.76C587.486 1251.48 587.605 1251.21 587.817 1251.01C588.029 1250.81 588.316 1250.7 588.615 1250.7H681.596C681.896 1250.7 682.183 1250.81 682.394 1251.01C682.606 1251.21 682.725 1251.48 682.725 1251.76C682.725 1252.05 682.606 1252.32 682.394 1252.52C682.183 1252.72 681.896 1252.83 681.596 1252.83Z" fill="#F2F2F2"/>
<path d="M681.145 1276.25H588.163C587.864 1276.25 587.577 1276.14 587.366 1275.94C587.154 1275.74 587.035 1275.47 587.035 1275.19C587.035 1274.9 587.154 1274.63 587.366 1274.43C587.577 1274.23 587.864 1274.12 588.163 1274.12H681.145C681.444 1274.12 681.731 1274.23 681.943 1274.43C682.155 1274.63 682.273 1274.9 682.273 1275.19C682.273 1275.47 682.155 1275.74 681.943 1275.94C681.731 1276.14 681.444 1276.25 681.145 1276.25Z" fill="#F2F2F2"/>
<path d="M681.371 1287.96H588.389C588.241 1287.96 588.094 1287.94 587.957 1287.88C587.819 1287.83 587.695 1287.75 587.59 1287.65C587.485 1287.55 587.401 1287.43 587.344 1287.31C587.288 1287.18 587.258 1287.04 587.258 1286.9C587.258 1286.76 587.288 1286.62 587.344 1286.49C587.401 1286.36 587.485 1286.24 587.59 1286.14C587.695 1286.04 587.819 1285.97 587.957 1285.91C588.094 1285.86 588.241 1285.83 588.389 1285.83H681.371C681.519 1285.83 681.666 1285.86 681.803 1285.91C681.94 1285.97 682.065 1286.04 682.17 1286.14C682.275 1286.24 682.359 1286.36 682.415 1286.49C682.472 1286.62 682.502 1286.76 682.502 1286.9C682.502 1287.04 682.472 1287.18 682.415 1287.31C682.359 1287.43 682.275 1287.55 682.17 1287.65C682.065 1287.75 681.94 1287.83 681.803 1287.88C681.666 1287.94 681.519 1287.96 681.371 1287.96Z" fill="#F2F2F2"/>
<path d="M721.091 1276.46H694.46C694.161 1276.46 693.874 1276.35 693.662 1276.15C693.451 1275.95 693.332 1275.68 693.332 1275.4C693.332 1275.12 693.451 1274.85 693.662 1274.65C693.874 1274.45 694.161 1274.33 694.46 1274.33H721.091C721.39 1274.33 721.677 1274.45 721.889 1274.65C722.101 1274.85 722.219 1275.12 722.219 1275.4C722.219 1275.68 722.101 1275.95 721.889 1276.15C721.677 1276.35 721.39 1276.46 721.091 1276.46Z" fill="#F2F2F2"/>
<path d="M721.091 1287.96H694.46C694.161 1287.96 693.874 1287.85 693.662 1287.65C693.451 1287.45 693.332 1287.18 693.332 1286.9C693.332 1286.62 693.451 1286.34 693.662 1286.14C693.874 1285.94 694.161 1285.83 694.46 1285.83H721.091C721.39 1285.83 721.677 1285.94 721.889 1286.14C722.101 1286.34 722.219 1286.62 722.219 1286.9C722.219 1287.18 722.101 1287.45 721.889 1287.65C721.677 1287.85 721.39 1287.96 721.091 1287.96Z" fill="#F2F2F2"/>
<path d="M765.776 1276.46H739.146C738.846 1276.46 738.559 1276.35 738.348 1276.15C738.136 1275.95 738.017 1275.68 738.017 1275.4C738.017 1275.12 738.136 1274.85 738.348 1274.65C738.559 1274.45 738.846 1274.33 739.146 1274.33H765.776C766.076 1274.33 766.363 1274.45 766.574 1274.65C766.786 1274.85 766.905 1275.12 766.905 1275.4C766.905 1275.68 766.786 1275.95 766.574 1276.15C766.363 1276.35 766.076 1276.46 765.776 1276.46Z" fill="#F2F2F2"/>
<path d="M783.38 1264.54H637.137C636.837 1264.54 636.55 1264.43 636.339 1264.23C636.127 1264.03 636.008 1263.76 636.008 1263.47C636.008 1263.19 636.127 1262.92 636.339 1262.72C636.55 1262.52 636.837 1262.41 637.137 1262.41H783.38C783.679 1262.41 783.966 1262.52 784.178 1262.72C784.389 1262.92 784.508 1263.19 784.508 1263.47C784.508 1263.76 784.389 1264.03 784.178 1264.23C783.966 1264.43 783.679 1264.54 783.38 1264.54Z" fill="#F2F2F2"/>
<path d="M615.02 1264.54H588.389C588.09 1264.54 587.803 1264.43 587.591 1264.23C587.38 1264.03 587.261 1263.76 587.261 1263.47C587.261 1263.19 587.38 1262.92 587.591 1262.72C587.803 1262.52 588.09 1262.41 588.389 1262.41H615.02C615.319 1262.41 615.606 1262.52 615.818 1262.72C616.029 1262.92 616.148 1263.19 616.148 1263.47C616.148 1263.76 616.029 1264.03 615.818 1264.23C615.606 1264.43 615.319 1264.54 615.02 1264.54Z" fill="#F2F2F2"/>
<path d="M783.38 1299.89H637.137C636.988 1299.89 636.841 1299.86 636.704 1299.81C636.567 1299.75 636.442 1299.67 636.337 1299.58C636.232 1299.48 636.149 1299.36 636.092 1299.23C636.035 1299.1 636.006 1298.96 636.006 1298.82C636.006 1298.68 636.035 1298.54 636.092 1298.41C636.149 1298.28 636.232 1298.17 636.337 1298.07C636.442 1297.97 636.567 1297.89 636.704 1297.84C636.841 1297.78 636.988 1297.76 637.137 1297.76H783.38C783.679 1297.76 783.966 1297.87 784.178 1298.07C784.389 1298.27 784.508 1298.54 784.508 1298.82C784.508 1299.1 784.389 1299.37 784.178 1299.57C783.966 1299.77 783.679 1299.89 783.38 1299.89Z" fill="#F2F2F2"/>
<path d="M615.02 1299.89H588.389C588.241 1299.89 588.094 1299.86 587.957 1299.81C587.819 1299.75 587.695 1299.67 587.59 1299.58C587.485 1299.48 587.401 1299.36 587.344 1299.23C587.288 1299.1 587.258 1298.96 587.258 1298.82C587.258 1298.68 587.288 1298.54 587.344 1298.41C587.401 1298.28 587.485 1298.17 587.59 1298.07C587.695 1297.97 587.819 1297.89 587.957 1297.84C588.094 1297.78 588.241 1297.76 588.389 1297.76H615.02C615.168 1297.76 615.315 1297.78 615.452 1297.84C615.59 1297.89 615.714 1297.97 615.819 1298.07C615.924 1298.17 616.008 1298.28 616.064 1298.41C616.121 1298.54 616.151 1298.68 616.151 1298.82C616.151 1298.96 616.121 1299.1 616.064 1299.23C616.008 1299.36 615.924 1299.48 615.819 1299.58C615.714 1299.67 615.59 1299.75 615.452 1299.81C615.315 1299.86 615.168 1299.89 615.02 1299.89Z" fill="#F2F2F2"/>
<path d="M507.344 1053.57C509.835 1053.57 511.855 1051.67 511.855 1049.32C511.855 1046.97 509.835 1045.06 507.344 1045.06C504.853 1045.06 502.833 1046.97 502.833 1049.32C502.833 1051.67 504.853 1053.57 507.344 1053.57Z" fill="#39CA86"/>
<path d="M519.373 1053.57C521.864 1053.57 523.884 1051.67 523.884 1049.32C523.884 1046.97 521.864 1045.06 519.373 1045.06C516.882 1045.06 514.862 1046.97 514.862 1049.32C514.862 1051.67 516.882 1053.57 519.373 1053.57Z" fill="#39CA86"/>
<path d="M531.402 1053.57C533.893 1053.57 535.913 1051.67 535.913 1049.32C535.913 1046.97 533.893 1045.06 531.402 1045.06C528.91 1045.06 526.891 1046.97 526.891 1049.32C526.891 1051.67 528.91 1053.57 531.402 1053.57Z" fill="#39CA86"/>
<path opacity="0.1" d="M874.223 1056.41H497.32V1057.83H874.223V1056.41Z" fill="black"/>
<path d="M601.023 1185.2H596.883V1202.23H593.607V1185.2H591.051V1182.5H593.607V1181.09C593.607 1178.89 594.171 1177.28 595.299 1176.27C596.451 1175.24 598.287 1174.72 600.807 1174.72V1177.46C599.367 1177.46 598.347 1177.75 597.747 1178.32C597.171 1178.87 596.883 1179.8 596.883 1181.09V1182.5H601.023V1185.2ZM622.339 1182.5V1202.23H619.063V1199.31C618.439 1200.32 617.563 1201.11 616.435 1201.69C615.331 1202.24 614.107 1202.51 612.763 1202.51C611.227 1202.51 609.847 1202.2 608.623 1201.58C607.399 1200.93 606.427 1199.97 605.707 1198.7C605.011 1197.43 604.663 1195.88 604.663 1194.05V1182.5H607.903V1193.62C607.903 1195.57 608.395 1197.07 609.379 1198.12C610.363 1199.15 611.707 1199.67 613.411 1199.67C615.163 1199.67 616.543 1199.13 617.551 1198.05C618.559 1196.97 619.063 1195.4 619.063 1193.33V1182.5H622.339ZM637.482 1182.14C639.882 1182.14 641.826 1182.87 643.314 1184.33C644.802 1185.77 645.546 1187.86 645.546 1190.6V1202.23H642.306V1191.07C642.306 1189.1 641.814 1187.6 640.83 1186.57C639.846 1185.51 638.502 1184.98 636.798 1184.98C635.07 1184.98 633.69 1185.52 632.658 1186.6C631.65 1187.68 631.146 1189.25 631.146 1191.32V1202.23H627.87V1182.5H631.146V1185.31C631.794 1184.3 632.67 1183.52 633.774 1182.97C634.902 1182.41 636.138 1182.14 637.482 1182.14ZM649.674 1192.33C649.674 1190.29 650.082 1188.51 650.898 1187C651.714 1185.46 652.842 1184.27 654.282 1183.43C655.746 1182.59 657.414 1182.17 659.286 1182.17C661.71 1182.17 663.702 1182.76 665.262 1183.94C666.846 1185.11 667.89 1186.75 668.394 1188.83H664.866C664.53 1187.63 663.87 1186.69 662.886 1185.99C661.926 1185.29 660.726 1184.95 659.286 1184.95C657.414 1184.95 655.902 1185.59 654.75 1186.89C653.598 1188.16 653.022 1189.97 653.022 1192.33C653.022 1194.7 653.598 1196.54 654.75 1197.83C655.902 1199.13 657.414 1199.78 659.286 1199.78C660.726 1199.78 661.926 1199.44 662.886 1198.77C663.846 1198.1 664.506 1197.14 664.866 1195.89H668.394C667.866 1197.91 666.81 1199.53 665.226 1200.75C663.642 1201.95 661.662 1202.55 659.286 1202.55C657.414 1202.55 655.746 1202.13 654.282 1201.29C652.842 1200.45 651.714 1199.26 650.898 1197.73C650.082 1196.19 649.674 1194.39 649.674 1192.33ZM676.761 1185.2V1196.83C676.761 1197.79 676.965 1198.47 677.373 1198.88C677.781 1199.26 678.489 1199.45 679.497 1199.45H681.909V1202.23H678.957C677.133 1202.23 675.765 1201.81 674.853 1200.97C673.941 1200.13 673.485 1198.75 673.485 1196.83V1185.2H670.929V1182.5H673.485V1177.53H676.761V1182.5H681.909V1185.2H676.761ZM687.57 1179.29C686.946 1179.29 686.418 1179.08 685.986 1178.65C685.554 1178.21 685.338 1177.69 685.338 1177.06C685.338 1176.44 685.554 1175.91 685.986 1175.48C686.418 1175.05 686.946 1174.83 687.57 1174.83C688.17 1174.83 688.674 1175.05 689.082 1175.48C689.514 1175.91 689.73 1176.44 689.73 1177.06C689.73 1177.69 689.514 1178.21 689.082 1178.65C688.674 1179.08 688.17 1179.29 687.57 1179.29ZM689.154 1182.5V1202.23H685.878V1182.5H689.154ZM703.341 1202.55C701.493 1202.55 699.813 1202.13 698.301 1201.29C696.813 1200.45 695.637 1199.26 694.773 1197.73C693.933 1196.17 693.513 1194.37 693.513 1192.33C693.513 1190.31 693.945 1188.53 694.809 1187C695.697 1185.44 696.897 1184.25 698.409 1183.43C699.921 1182.59 701.613 1182.17 703.485 1182.17C705.357 1182.17 707.049 1182.59 708.561 1183.43C710.073 1184.25 711.261 1185.43 712.125 1186.96C713.013 1188.5 713.457 1190.29 713.457 1192.33C713.457 1194.37 713.001 1196.17 712.089 1197.73C711.201 1199.26 709.989 1200.45 708.453 1201.29C706.917 1202.13 705.213 1202.55 703.341 1202.55ZM703.341 1199.67C704.517 1199.67 705.621 1199.39 706.653 1198.84C707.685 1198.29 708.513 1197.46 709.137 1196.36C709.785 1195.25 710.109 1193.91 710.109 1192.33C710.109 1190.74 709.797 1189.4 709.173 1188.29C708.549 1187.19 707.733 1186.37 706.725 1185.85C705.717 1185.29 704.625 1185.02 703.449 1185.02C702.249 1185.02 701.145 1185.29 700.137 1185.85C699.153 1186.37 698.361 1187.19 697.761 1188.29C697.161 1189.4 696.861 1190.74 696.861 1192.33C696.861 1193.93 697.149 1195.29 697.725 1196.39C698.325 1197.5 699.117 1198.33 700.101 1198.88C701.085 1199.41 702.165 1199.67 703.341 1199.67ZM727.377 1182.14C729.777 1182.14 731.721 1182.87 733.209 1184.33C734.697 1185.77 735.441 1187.86 735.441 1190.6V1202.23H732.201V1191.07C732.201 1189.1 731.709 1187.6 730.725 1186.57C729.741 1185.51 728.397 1184.98 726.693 1184.98C724.965 1184.98 723.585 1185.52 722.553 1186.6C721.545 1187.68 721.041 1189.25 721.041 1191.32V1202.23H717.765V1182.5H721.041V1185.31C721.689 1184.3 722.565 1183.52 723.669 1182.97C724.797 1182.41 726.033 1182.14 727.377 1182.14ZM749.216 1208.92C746.912 1206.67 745.112 1203.8 743.816 1200.32C742.544 1196.84 741.908 1193.08 741.908 1189.05C741.908 1184.92 742.58 1181.07 743.924 1177.49C745.292 1173.89 747.236 1170.93 749.756 1168.6H753.176V1168.93C750.488 1171.45 748.46 1174.48 747.092 1178.03C745.748 1181.56 745.076 1185.23 745.076 1189.05C745.076 1192.77 745.712 1196.32 746.984 1199.71C748.28 1203.09 750.164 1206.05 752.636 1208.6V1208.92H749.216ZM756.096 1208.92V1208.6C758.568 1206.05 760.44 1203.09 761.712 1199.71C763.008 1196.32 763.656 1192.77 763.656 1189.05C763.656 1185.23 762.972 1181.56 761.604 1178.03C760.26 1174.48 758.244 1171.45 755.556 1168.93V1168.6H758.976C761.496 1170.93 763.428 1173.89 764.772 1177.49C766.14 1181.07 766.824 1184.92 766.824 1189.05C766.824 1193.08 766.176 1196.84 764.88 1200.32C763.608 1203.8 761.82 1206.67 759.516 1208.92H756.096Z" fill="#39CA86"/>
</svg>
