<svg width="1920" height="1080" viewBox="0 0 1920 1080" fill="none" xmlns="http://www.w3.org/2000/svg">
<path d="M307.906 107.6C307.906 97.712 310.114 88.88 314.53 81.104C319.042 73.232 325.138 67.136 332.818 62.816C340.594 58.4 349.282 56.192 358.882 56.192C370.114 56.192 379.954 59.072 388.402 64.832C396.85 70.592 402.754 78.56 406.114 88.736H382.93C380.626 83.936 377.362 80.336 373.138 77.936C369.01 75.536 364.21 74.336 358.738 74.336C352.882 74.336 347.65 75.728 343.042 78.512C338.53 81.2 334.978 85.04 332.386 90.032C329.89 95.024 328.642 100.88 328.642 107.6C328.642 114.224 329.89 120.08 332.386 125.168C334.978 130.16 338.53 134.048 343.042 136.832C347.65 139.52 352.882 140.864 358.738 140.864C364.21 140.864 369.01 139.664 373.138 137.264C377.362 134.768 380.626 131.12 382.93 126.32H406.114C402.754 136.592 396.85 144.608 388.402 150.368C380.05 156.032 370.21 158.864 358.882 158.864C349.282 158.864 340.594 156.704 332.818 152.384C325.138 147.968 319.042 141.872 314.53 134.096C310.114 126.32 307.906 117.488 307.906 107.6ZM470.883 158L450.247 121.552H441.403V158H422.643V64.468H457.751C464.987 64.468 471.151 65.7633 476.243 68.354C481.335 70.8553 485.132 74.2947 487.633 78.672C490.224 82.96 491.519 87.784 491.519 93.144C491.519 99.308 489.733 104.891 486.159 109.894C482.586 114.807 477.271 118.202 470.213 120.078L492.591 158H470.883ZM441.403 107.482H457.081C462.173 107.482 465.97 106.276 468.471 103.864C470.973 101.363 472.223 97.9233 472.223 93.546C472.223 89.258 470.973 85.9527 468.471 83.63C465.97 81.218 462.173 80.012 457.081 80.012H441.403V107.482ZM527.247 79.61V103.06H558.737V117.934H527.247V142.724H562.757V158H508.487V64.334H562.757V79.61H527.247ZM598.566 79.61V103.06H630.056V117.934H598.566V142.724H634.076V158H579.806V64.334H634.076V79.61H598.566ZM719.33 93.412C719.33 98.4147 718.124 103.105 715.712 107.482C713.389 111.859 709.682 115.388 704.59 118.068C699.587 120.748 693.245 122.088 685.562 122.088H669.884V158H651.124V64.468H685.562C692.798 64.468 698.962 65.7187 704.054 68.22C709.146 70.7213 712.943 74.1607 715.444 78.538C718.035 82.9153 719.33 87.8733 719.33 93.412ZM684.758 106.946C689.939 106.946 693.781 105.785 696.282 103.462C698.783 101.05 700.034 97.7 700.034 93.412C700.034 84.3 694.942 79.744 684.758 79.744H669.884V106.946H684.758ZM751.409 79.61V103.06H782.899V117.934H751.409V142.724H786.919V158H732.649V64.334H786.919V79.61H751.409ZM852.208 158L831.572 121.552H822.728V158H803.968V64.468H839.076C846.312 64.468 852.476 65.7633 857.568 68.354C862.66 70.8553 866.456 74.2947 868.958 78.672C871.548 82.96 872.844 87.784 872.844 93.144C872.844 99.308 871.057 104.891 867.484 109.894C863.91 114.807 858.595 118.202 851.538 120.078L873.916 158H852.208ZM822.728 107.482H838.406C843.498 107.482 847.294 106.276 849.796 103.864C852.297 101.363 853.548 97.9233 853.548 93.546C853.548 89.258 852.297 85.9527 849.796 83.63C847.294 81.218 843.498 80.012 838.406 80.012H822.728V107.482ZM981.838 106.448C987.502 107.504 992.158 110.336 995.806 114.944C999.454 119.552 1001.28 124.832 1001.28 130.784C1001.28 136.16 999.934 140.912 997.246 145.04C994.654 149.072 990.862 152.24 985.87 154.544C980.878 156.848 974.974 158 968.158 158H924.814V57.488H966.286C973.102 57.488 978.958 58.592 983.854 60.8C988.846 63.008 992.59 66.08 995.086 70.016C997.678 73.952 998.974 78.416 998.974 83.408C998.974 89.264 997.39 94.16 994.222 98.096C991.15 102.032 987.022 104.816 981.838 106.448ZM944.974 98.96H963.406C968.206 98.96 971.902 97.904 974.494 95.792C977.086 93.584 978.382 90.464 978.382 86.432C978.382 82.4 977.086 79.28 974.494 77.072C971.902 74.864 968.206 73.76 963.406 73.76H944.974V98.96ZM965.278 141.584C970.174 141.584 973.966 140.432 976.654 138.128C979.438 135.824 980.83 132.56 980.83 128.336C980.83 124.016 979.39 120.656 976.51 118.256C973.63 115.76 969.742 114.512 964.846 114.512H944.974V141.584H965.278ZM1035.15 64.468V122.356C1035.15 128.699 1036.8 133.567 1040.11 136.962C1043.41 140.267 1048.06 141.92 1054.04 141.92C1060.12 141.92 1064.81 140.267 1068.11 136.962C1071.42 133.567 1073.07 128.699 1073.07 122.356V64.468H1091.96V122.222C1091.96 130.173 1090.22 136.917 1086.74 142.456C1083.34 147.905 1078.74 152.015 1072.94 154.784C1067.22 157.553 1060.83 158.938 1053.77 158.938C1046.81 158.938 1040.46 157.553 1034.75 154.784C1029.12 152.015 1024.65 147.905 1021.35 142.456C1018.04 136.917 1016.39 130.173 1016.39 122.222V64.468H1035.15ZM1142.78 64.468C1152.61 64.468 1161.23 66.3887 1168.65 70.23C1176.15 74.0713 1181.91 79.5653 1185.93 86.712C1190.04 93.7693 1192.1 101.988 1192.1 111.368C1192.1 120.748 1190.04 128.967 1185.93 136.024C1181.91 142.992 1176.15 148.397 1168.65 152.238C1161.23 156.079 1152.61 158 1142.78 158H1110.09V64.468H1142.78ZM1142.11 142.054C1151.94 142.054 1159.53 139.374 1164.89 134.014C1170.25 128.654 1172.93 121.105 1172.93 111.368C1172.93 101.631 1170.25 94.0373 1164.89 88.588C1159.53 83.0493 1151.94 80.28 1142.11 80.28H1128.85V142.054H1142.11ZM1238.84 64.468C1248.66 64.468 1257.28 66.3887 1264.7 70.23C1272.2 74.0713 1277.96 79.5653 1281.98 86.712C1286.09 93.7693 1288.15 101.988 1288.15 111.368C1288.15 120.748 1286.09 128.967 1281.98 136.024C1277.96 142.992 1272.2 148.397 1264.7 152.238C1257.28 156.079 1248.66 158 1238.84 158H1206.14V64.468H1238.84ZM1238.17 142.054C1247.99 142.054 1255.59 139.374 1260.95 134.014C1266.31 128.654 1268.99 121.105 1268.99 111.368C1268.99 101.631 1266.31 94.0373 1260.95 88.588C1255.59 83.0493 1247.99 80.28 1238.17 80.28H1224.9V142.054H1238.17ZM1376.56 64.468L1344.94 125.438V158H1326.18V125.438L1294.42 64.468H1315.59L1335.69 107.214L1355.66 64.468H1376.56Z" fill="white"/>
<path d="M612.751 201.328C617.444 201.328 621.561 202.245 625.103 204.08C628.687 205.915 631.439 208.539 633.359 211.952C635.321 215.323 636.303 219.248 636.303 223.728C636.303 228.208 635.321 232.133 633.359 235.504C631.439 238.832 628.687 241.413 625.103 243.248C621.561 245.083 617.444 246 612.751 246H597.135V201.328H612.751ZM612.431 238.384C617.124 238.384 620.751 237.104 623.311 234.544C625.871 231.984 627.151 228.379 627.151 223.728C627.151 219.077 625.871 215.451 623.311 212.848C620.751 210.203 617.124 208.88 612.431 208.88H606.095V238.384H612.431ZM675.97 227.504C675.97 228.784 675.884 229.936 675.714 230.96H649.794C650.007 233.52 650.903 235.525 652.482 236.976C654.06 238.427 656.002 239.152 658.306 239.152C661.634 239.152 664.002 237.723 665.41 234.864H675.074C674.05 238.277 672.087 241.093 669.186 243.312C666.284 245.488 662.722 246.576 658.498 246.576C655.084 246.576 652.012 245.829 649.282 244.336C646.594 242.8 644.482 240.645 642.946 237.872C641.452 235.099 640.706 231.899 640.706 228.272C640.706 224.603 641.452 221.381 642.946 218.608C644.439 215.835 646.53 213.701 649.218 212.208C651.906 210.715 654.999 209.968 658.498 209.968C661.868 209.968 664.876 210.693 667.522 212.144C670.21 213.595 672.279 215.664 673.73 218.352C675.223 220.997 675.97 224.048 675.97 227.504ZM666.69 224.944C666.647 222.64 665.815 220.805 664.194 219.44C662.572 218.032 660.588 217.328 658.242 217.328C656.023 217.328 654.146 218.011 652.61 219.376C651.116 220.699 650.199 222.555 649.858 224.944H666.69ZM697.294 237.744L706.254 210.544H715.79L702.67 246H691.79L678.734 210.544H688.334L697.294 237.744ZM753.782 227.504C753.782 228.784 753.697 229.936 753.526 230.96H727.606C727.82 233.52 728.716 235.525 730.294 236.976C731.873 238.427 733.814 239.152 736.118 239.152C739.446 239.152 741.814 237.723 743.222 234.864H752.886C751.862 238.277 749.9 241.093 746.998 243.312C744.097 245.488 740.534 246.576 736.31 246.576C732.897 246.576 729.825 245.829 727.094 244.336C724.406 242.8 722.294 240.645 720.758 237.872C719.265 235.099 718.518 231.899 718.518 228.272C718.518 224.603 719.265 221.381 720.758 218.608C722.252 215.835 724.342 213.701 727.03 212.208C729.718 210.715 732.812 209.968 736.31 209.968C739.681 209.968 742.689 210.693 745.334 212.144C748.022 213.595 750.092 215.664 751.542 218.352C753.036 220.997 753.782 224.048 753.782 227.504ZM744.502 224.944C744.46 222.64 743.628 220.805 742.006 219.44C740.385 218.032 738.401 217.328 736.054 217.328C733.836 217.328 731.958 218.011 730.422 219.376C728.929 220.699 728.012 222.555 727.67 224.944H744.502ZM769.282 198.64V246H760.322V198.64H769.282ZM793.879 246.576C790.465 246.576 787.393 245.829 784.663 244.336C781.932 242.8 779.777 240.645 778.199 237.872C776.663 235.099 775.895 231.899 775.895 228.272C775.895 224.645 776.684 221.445 778.263 218.672C779.884 215.899 782.081 213.765 784.855 212.272C787.628 210.736 790.721 209.968 794.135 209.968C797.548 209.968 800.641 210.736 803.415 212.272C806.188 213.765 808.364 215.899 809.943 218.672C811.564 221.445 812.375 224.645 812.375 228.272C812.375 231.899 811.543 235.099 809.879 237.872C808.257 240.645 806.039 242.8 803.223 244.336C800.449 245.829 797.335 246.576 793.879 246.576ZM793.879 238.768C795.5 238.768 797.015 238.384 798.423 237.616C799.873 236.805 801.025 235.611 801.879 234.032C802.732 232.453 803.159 230.533 803.159 228.272C803.159 224.901 802.263 222.32 800.471 220.528C798.721 218.693 796.567 217.776 794.007 217.776C791.447 217.776 789.292 218.693 787.543 220.528C785.836 222.32 784.983 224.901 784.983 228.272C784.983 231.643 785.815 234.245 787.479 236.08C789.185 237.872 791.319 238.768 793.879 238.768ZM827.907 215.664C829.059 214.043 830.638 212.699 832.643 211.632C834.691 210.523 837.017 209.968 839.619 209.968C842.649 209.968 845.379 210.715 847.811 212.208C850.286 213.701 852.227 215.835 853.635 218.608C855.086 221.339 855.811 224.517 855.811 228.144C855.811 231.771 855.086 234.992 853.635 237.808C852.227 240.581 850.286 242.736 847.811 244.272C845.379 245.808 842.649 246.576 839.619 246.576C837.017 246.576 834.713 246.043 832.707 244.976C830.745 243.909 829.145 242.565 827.907 240.944V262.896H818.947V210.544H827.907V215.664ZM846.659 228.144C846.659 226.011 846.211 224.176 845.315 222.64C844.462 221.061 843.31 219.867 841.859 219.056C840.451 218.245 838.915 217.84 837.251 217.84C835.63 217.84 834.094 218.267 832.643 219.12C831.235 219.931 830.083 221.125 829.187 222.704C828.334 224.283 827.907 226.139 827.907 228.272C827.907 230.405 828.334 232.261 829.187 233.84C830.083 235.419 831.235 236.635 832.643 237.488C834.094 238.299 835.63 238.704 837.251 238.704C838.915 238.704 840.451 238.277 841.859 237.424C843.31 236.571 844.462 235.355 845.315 233.776C846.211 232.197 846.659 230.32 846.659 228.144ZM895.282 227.504C895.282 228.784 895.197 229.936 895.026 230.96H869.106C869.32 233.52 870.216 235.525 871.794 236.976C873.373 238.427 875.314 239.152 877.618 239.152C880.946 239.152 883.314 237.723 884.722 234.864H894.386C893.362 238.277 891.4 241.093 888.498 243.312C885.597 245.488 882.034 246.576 877.81 246.576C874.397 246.576 871.325 245.829 868.594 244.336C865.906 242.8 863.794 240.645 862.258 237.872C860.765 235.099 860.018 231.899 860.018 228.272C860.018 224.603 860.765 221.381 862.258 218.608C863.752 215.835 865.842 213.701 868.53 212.208C871.218 210.715 874.312 209.968 877.81 209.968C881.181 209.968 884.189 210.693 886.834 212.144C889.522 213.595 891.592 215.664 893.042 218.352C894.536 220.997 895.282 224.048 895.282 227.504ZM886.002 224.944C885.96 222.64 885.128 220.805 883.506 219.44C881.885 218.032 879.901 217.328 877.554 217.328C875.336 217.328 873.458 218.011 871.922 219.376C870.429 220.699 869.512 222.555 869.17 224.944H886.002ZM910.782 216.048C911.934 214.171 913.428 212.699 915.262 211.632C917.14 210.565 919.273 210.032 921.662 210.032V219.44H919.294C916.478 219.44 914.345 220.101 912.894 221.424C911.486 222.747 910.782 225.051 910.782 228.336V246H901.822V210.544H910.782V216.048Z" fill="white"/>
<path d="M1042.23 255.248C1044.28 255.077 1045.81 254.523 1046.84 253.584C1047.9 252.645 1048.44 251.387 1048.44 249.808C1048.44 248.016 1048.24 245.435 1047.86 242.064C1047.43 238.053 1047.22 235.131 1047.22 233.296C1047.22 229.968 1048.2 227.387 1050.16 225.552C1052.17 223.675 1054.81 222.736 1058.1 222.736H1062.52V230.288H1059.83C1057.18 230.288 1055.86 231.547 1055.86 234.064C1055.86 235.259 1056.03 237.648 1056.37 241.232C1056.41 241.659 1056.52 242.875 1056.69 244.88C1056.86 246.843 1056.95 248.592 1056.95 250.128C1056.95 252.389 1056.39 254.267 1055.28 255.76C1054.17 257.253 1052.49 258.213 1050.23 258.64V258.768C1052.49 259.237 1054.17 260.219 1055.28 261.712C1056.39 263.163 1056.95 265.04 1056.95 267.344C1056.95 268.795 1056.86 270.523 1056.69 272.528C1056.52 274.491 1056.41 275.728 1056.37 276.24C1056.03 279.824 1055.86 282.192 1055.86 283.344C1055.86 284.667 1056.18 285.627 1056.82 286.224C1057.46 286.821 1058.46 287.12 1059.83 287.12H1062.52V294.736H1058.1C1054.81 294.736 1052.17 293.797 1050.16 291.92C1048.2 290.085 1047.22 287.504 1047.22 284.176C1047.22 282.299 1047.43 279.355 1047.86 275.344C1048.24 271.973 1048.44 269.413 1048.44 267.664C1048.44 266.085 1047.9 264.827 1046.84 263.888C1045.81 262.949 1044.28 262.395 1042.23 262.224V255.248ZM1412.78 262.224C1410.74 262.395 1409.18 262.949 1408.11 263.888C1407.09 264.827 1406.58 266.085 1406.58 267.664C1406.58 269.413 1406.77 271.973 1407.15 275.344C1407.58 279.355 1407.79 282.299 1407.79 284.176C1407.79 287.504 1406.79 290.085 1404.78 291.92C1402.82 293.797 1400.2 294.736 1396.91 294.736H1392.5V287.12H1395.18C1396.55 287.12 1397.55 286.821 1398.19 286.224C1398.83 285.627 1399.15 284.667 1399.15 283.344C1399.15 282.192 1398.98 279.824 1398.64 276.24C1398.6 275.728 1398.49 274.491 1398.32 272.528C1398.15 270.523 1398.06 268.795 1398.06 267.344C1398.06 265.04 1398.62 263.163 1399.73 261.712C1400.84 260.219 1402.52 259.237 1404.78 258.768V258.64C1402.52 258.213 1400.84 257.253 1399.73 255.76C1398.62 254.267 1398.06 252.389 1398.06 250.128C1398.06 248.592 1398.15 246.843 1398.32 244.88C1398.49 242.875 1398.6 241.659 1398.64 241.232C1398.98 237.648 1399.15 235.259 1399.15 234.064C1399.15 231.547 1397.83 230.288 1395.18 230.288H1392.5V222.736H1396.91C1400.2 222.736 1402.82 223.675 1404.78 225.552C1406.79 227.387 1407.79 229.968 1407.79 233.296C1407.79 235.131 1407.58 238.053 1407.15 242.064C1406.77 245.435 1406.58 248.016 1406.58 249.808C1406.58 251.387 1407.09 252.645 1408.11 253.584C1409.18 254.523 1410.74 255.077 1412.78 255.248V262.224Z" fill="#8AAEFC"/>
<path d="M1102.97 237.328C1107.66 237.328 1111.78 238.245 1115.32 240.08C1118.91 241.915 1121.66 244.539 1123.58 247.952C1125.54 251.323 1126.52 255.248 1126.52 259.728C1126.52 264.208 1125.54 268.133 1123.58 271.504C1121.66 274.832 1118.91 277.413 1115.32 279.248C1111.78 281.083 1107.66 282 1102.97 282H1087.35V237.328H1102.97ZM1102.65 274.384C1107.34 274.384 1110.97 273.104 1113.53 270.544C1116.09 267.984 1117.37 264.379 1117.37 259.728C1117.37 255.077 1116.09 251.451 1113.53 248.848C1110.97 246.203 1107.34 244.88 1102.65 244.88H1096.31V274.384H1102.65ZM1166.19 263.504C1166.19 264.784 1166.1 265.936 1165.93 266.96H1140.01C1140.23 269.52 1141.12 271.525 1142.7 272.976C1144.28 274.427 1146.22 275.152 1148.52 275.152C1151.85 275.152 1154.22 273.723 1155.63 270.864H1165.29C1164.27 274.277 1162.31 277.093 1159.4 279.312C1156.5 281.488 1152.94 282.576 1148.72 282.576C1145.3 282.576 1142.23 281.829 1139.5 280.336C1136.81 278.8 1134.7 276.645 1133.16 273.872C1131.67 271.099 1130.92 267.899 1130.92 264.272C1130.92 260.603 1131.67 257.381 1133.16 254.608C1134.66 251.835 1136.75 249.701 1139.44 248.208C1142.12 246.715 1145.22 245.968 1148.72 245.968C1152.09 245.968 1155.1 246.693 1157.74 248.144C1160.43 249.595 1162.5 251.664 1163.95 254.352C1165.44 256.997 1166.19 260.048 1166.19 263.504ZM1156.91 260.944C1156.87 258.64 1156.03 256.805 1154.41 255.44C1152.79 254.032 1150.81 253.328 1148.46 253.328C1146.24 253.328 1144.36 254.011 1142.83 255.376C1141.34 256.699 1140.42 258.555 1140.08 260.944H1156.91ZM1186.3 282.576C1183.4 282.576 1180.79 282.064 1178.49 281.04C1176.18 279.973 1174.35 278.544 1172.98 276.752C1171.66 274.96 1170.94 272.976 1170.81 270.8H1179.83C1180 272.165 1180.66 273.296 1181.82 274.192C1183.01 275.088 1184.48 275.536 1186.23 275.536C1187.94 275.536 1189.26 275.195 1190.2 274.512C1191.18 273.829 1191.67 272.955 1191.67 271.888C1191.67 270.736 1191.08 269.883 1189.88 269.328C1188.73 268.731 1186.87 268.091 1184.31 267.408C1181.67 266.768 1179.49 266.107 1177.78 265.424C1176.12 264.741 1174.67 263.696 1173.43 262.288C1172.24 260.88 1171.64 258.981 1171.64 256.592C1171.64 254.629 1172.2 252.837 1173.3 251.216C1174.46 249.595 1176.08 248.315 1178.17 247.376C1180.3 246.437 1182.8 245.968 1185.66 245.968C1189.88 245.968 1193.25 247.035 1195.77 249.168C1198.29 251.259 1199.67 254.096 1199.93 257.68H1191.35C1191.22 256.272 1190.63 255.163 1189.56 254.352C1188.54 253.499 1187.15 253.072 1185.4 253.072C1183.78 253.072 1182.52 253.371 1181.62 253.968C1180.77 254.565 1180.34 255.397 1180.34 256.464C1180.34 257.659 1180.94 258.576 1182.14 259.216C1183.33 259.813 1185.19 260.432 1187.7 261.072C1190.26 261.712 1192.38 262.373 1194.04 263.056C1195.7 263.739 1197.13 264.805 1198.33 266.256C1199.57 267.664 1200.21 269.541 1200.25 271.888C1200.25 273.936 1199.67 275.771 1198.52 277.392C1197.41 279.013 1195.79 280.293 1193.66 281.232C1191.57 282.128 1189.11 282.576 1186.3 282.576ZM1212.15 242.32C1210.57 242.32 1209.25 241.829 1208.18 240.848C1207.16 239.824 1206.64 238.565 1206.64 237.072C1206.64 235.579 1207.16 234.341 1208.18 233.36C1209.25 232.336 1210.57 231.824 1212.15 231.824C1213.73 231.824 1215.03 232.336 1216.05 233.36C1217.12 234.341 1217.65 235.579 1217.65 237.072C1217.65 238.565 1217.12 239.824 1216.05 240.848C1215.03 241.829 1213.73 242.32 1212.15 242.32ZM1216.56 246.544V282H1207.6V246.544H1216.56ZM1239.3 245.968C1241.95 245.968 1244.27 246.501 1246.28 247.568C1248.29 248.592 1249.86 249.936 1251.02 251.6V246.544H1260.04V282.256C1260.04 285.541 1259.38 288.464 1258.06 291.024C1256.73 293.627 1254.75 295.675 1252.1 297.168C1249.46 298.704 1246.26 299.472 1242.5 299.472C1237.47 299.472 1233.33 298.299 1230.09 295.952C1226.89 293.605 1225.07 290.405 1224.65 286.352H1233.54C1234.01 287.973 1235.02 289.253 1236.55 290.192C1238.13 291.173 1240.03 291.664 1242.25 291.664C1244.85 291.664 1246.96 290.875 1248.58 289.296C1250.21 287.76 1251.02 285.413 1251.02 282.256V276.752C1249.86 278.416 1248.26 279.803 1246.22 280.912C1244.21 282.021 1241.91 282.576 1239.3 282.576C1236.32 282.576 1233.59 281.808 1231.11 280.272C1228.64 278.736 1226.67 276.581 1225.22 273.808C1223.82 270.992 1223.11 267.771 1223.11 264.144C1223.11 260.56 1223.82 257.381 1225.22 254.608C1226.67 251.835 1228.62 249.701 1231.05 248.208C1233.52 246.715 1236.27 245.968 1239.3 245.968ZM1251.02 264.272C1251.02 262.096 1250.59 260.24 1249.74 258.704C1248.88 257.125 1247.73 255.931 1246.28 255.12C1244.83 254.267 1243.27 253.84 1241.61 253.84C1239.94 253.84 1238.41 254.245 1237 255.056C1235.59 255.867 1234.44 257.061 1233.54 258.64C1232.69 260.176 1232.26 262.011 1232.26 264.144C1232.26 266.277 1232.69 268.155 1233.54 269.776C1234.44 271.355 1235.59 272.571 1237 273.424C1238.45 274.277 1239.99 274.704 1241.61 274.704C1243.27 274.704 1244.83 274.299 1246.28 273.488C1247.73 272.635 1248.88 271.44 1249.74 269.904C1250.59 268.325 1251.02 266.448 1251.02 264.272ZM1288.44 246.032C1292.66 246.032 1296.08 247.376 1298.68 250.064C1301.28 252.709 1302.58 256.421 1302.58 261.2V282H1293.62V262.416C1293.62 259.6 1292.92 257.445 1291.51 255.952C1290.1 254.416 1288.18 253.648 1285.75 253.648C1283.28 253.648 1281.31 254.416 1279.86 255.952C1278.46 257.445 1277.75 259.6 1277.75 262.416V282H1268.79V246.544H1277.75V250.96C1278.95 249.424 1280.46 248.229 1282.3 247.376C1284.17 246.48 1286.22 246.032 1288.44 246.032ZM1344.06 263.504C1344.06 264.784 1343.98 265.936 1343.81 266.96H1317.89C1318.1 269.52 1319 271.525 1320.58 272.976C1322.15 274.427 1324.1 275.152 1326.4 275.152C1329.73 275.152 1332.1 273.723 1333.5 270.864H1343.17C1342.14 274.277 1340.18 277.093 1337.28 279.312C1334.38 281.488 1330.82 282.576 1326.59 282.576C1323.18 282.576 1320.11 281.829 1317.38 280.336C1314.69 278.8 1312.58 276.645 1311.04 273.872C1309.55 271.099 1308.8 267.899 1308.8 264.272C1308.8 260.603 1309.55 257.381 1311.04 254.608C1312.53 251.835 1314.62 249.701 1317.31 248.208C1320 246.715 1323.09 245.968 1326.59 245.968C1329.96 245.968 1332.97 246.693 1335.62 248.144C1338.3 249.595 1340.37 251.664 1341.82 254.352C1343.32 256.997 1344.06 260.048 1344.06 263.504ZM1334.78 260.944C1334.74 258.64 1333.91 256.805 1332.29 255.44C1330.67 254.032 1328.68 253.328 1326.34 253.328C1324.12 253.328 1322.24 254.011 1320.7 255.376C1319.21 256.699 1318.29 258.555 1317.95 260.944H1334.78ZM1359.56 252.048C1360.72 250.171 1362.21 248.699 1364.04 247.632C1365.92 246.565 1368.05 246.032 1370.44 246.032V255.44H1368.08C1365.26 255.44 1363.13 256.101 1361.68 257.424C1360.27 258.747 1359.56 261.051 1359.56 264.336V282H1350.6V246.544H1359.56V252.048Z" fill="white"/>
<path d="M693.055 371.152C693.055 373.541 692.479 375.781 691.326 377.872C690.217 379.963 688.447 381.648 686.015 382.928C683.625 384.208 680.596 384.848 676.927 384.848H669.439V402H660.479V357.328H676.927C680.383 357.328 683.327 357.925 685.759 359.12C688.191 360.315 690.004 361.957 691.199 364.048C692.436 366.139 693.055 368.507 693.055 371.152ZM676.543 377.616C679.017 377.616 680.852 377.061 682.047 375.952C683.241 374.8 683.839 373.2 683.839 371.152C683.839 366.8 681.407 364.624 676.543 364.624H669.439V377.616H676.543ZM708.376 372.048C709.528 370.171 711.021 368.699 712.856 367.632C714.733 366.565 716.867 366.032 719.256 366.032V375.44H716.888C714.072 375.44 711.939 376.101 710.488 377.424C709.08 378.747 708.376 381.051 708.376 384.336V402H699.416V366.544H708.376V372.048ZM741.035 402.576C737.622 402.576 734.55 401.829 731.819 400.336C729.088 398.8 726.934 396.645 725.355 393.872C723.819 391.099 723.051 387.899 723.051 384.272C723.051 380.645 723.84 377.445 725.419 374.672C727.04 371.899 729.238 369.765 732.011 368.272C734.784 366.736 737.878 365.968 741.291 365.968C744.704 365.968 747.798 366.736 750.571 368.272C753.344 369.765 755.52 371.899 757.099 374.672C758.72 377.445 759.531 380.645 759.531 384.272C759.531 387.899 758.699 391.099 757.035 393.872C755.414 396.645 753.195 398.8 750.379 400.336C747.606 401.829 744.491 402.576 741.035 402.576ZM741.035 394.768C742.656 394.768 744.171 394.384 745.579 393.616C747.03 392.805 748.182 391.611 749.035 390.032C749.888 388.453 750.315 386.533 750.315 384.272C750.315 380.901 749.419 378.32 747.627 376.528C745.878 374.693 743.723 373.776 741.163 373.776C738.603 373.776 736.448 374.693 734.699 376.528C732.992 378.32 732.139 380.901 732.139 384.272C732.139 387.643 732.971 390.245 734.635 392.08C736.342 393.872 738.475 394.768 741.035 394.768ZM779.992 365.968C782.637 365.968 784.962 366.501 786.968 367.568C788.973 368.592 790.552 369.936 791.704 371.6V366.544H800.728V402.256C800.728 405.541 800.066 408.464 798.744 411.024C797.421 413.627 795.437 415.675 792.792 417.168C790.146 418.704 786.946 419.472 783.192 419.472C778.157 419.472 774.018 418.299 770.776 415.952C767.576 413.605 765.762 410.405 765.336 406.352H774.232C774.701 407.973 775.704 409.253 777.24 410.192C778.818 411.173 780.717 411.664 782.936 411.664C785.538 411.664 787.65 410.875 789.272 409.296C790.893 407.76 791.704 405.413 791.704 402.256V396.752C790.552 398.416 788.952 399.803 786.904 400.912C784.898 402.021 782.594 402.576 779.992 402.576C777.005 402.576 774.274 401.808 771.8 400.272C769.325 398.736 767.362 396.581 765.911 393.808C764.503 390.992 763.799 387.771 763.799 384.144C763.799 380.56 764.503 377.381 765.911 374.608C767.362 371.835 769.304 369.701 771.736 368.208C774.21 366.715 776.962 365.968 779.992 365.968ZM791.704 384.272C791.704 382.096 791.277 380.24 790.424 378.704C789.57 377.125 788.418 375.931 786.968 375.12C785.517 374.267 783.96 373.84 782.296 373.84C780.632 373.84 779.096 374.245 777.688 375.056C776.28 375.867 775.128 377.061 774.232 378.64C773.378 380.176 772.952 382.011 772.952 384.144C772.952 386.277 773.378 388.155 774.232 389.776C775.128 391.355 776.28 392.571 777.688 393.424C779.138 394.277 780.674 394.704 782.296 394.704C783.96 394.704 785.517 394.299 786.968 393.488C788.418 392.635 789.57 391.44 790.424 389.904C791.277 388.325 791.704 386.448 791.704 384.272ZM818.439 372.048C819.591 370.171 821.084 368.699 822.919 367.632C824.796 366.565 826.929 366.032 829.319 366.032V375.44H826.951C824.135 375.44 822.001 376.101 820.551 377.424C819.143 378.747 818.439 381.051 818.439 384.336V402H809.479V366.544H818.439V372.048ZM833.049 384.144C833.049 380.56 833.753 377.381 835.161 374.608C836.612 371.835 838.554 369.701 840.986 368.208C843.46 366.715 846.212 365.968 849.242 365.968C851.887 365.968 854.191 366.501 856.154 367.568C858.159 368.635 859.759 369.979 860.954 371.6V366.544H869.978V402H860.954V396.816C859.802 398.48 858.202 399.867 856.154 400.976C854.148 402.043 851.823 402.576 849.178 402.576C846.191 402.576 843.46 401.808 840.986 400.272C838.554 398.736 836.612 396.581 835.161 393.808C833.753 390.992 833.049 387.771 833.049 384.144ZM860.954 384.272C860.954 382.096 860.527 380.24 859.674 378.704C858.82 377.125 857.668 375.931 856.218 375.12C854.767 374.267 853.21 373.84 851.546 373.84C849.882 373.84 848.346 374.245 846.938 375.056C845.53 375.867 844.378 377.061 843.482 378.64C842.628 380.176 842.202 382.011 842.202 384.144C842.202 386.277 842.628 388.155 843.482 389.776C844.378 391.355 845.53 392.571 846.938 393.424C848.388 394.277 849.924 394.704 851.546 394.704C853.21 394.704 854.767 394.299 856.218 393.488C857.668 392.635 858.82 391.44 859.674 389.904C860.527 388.325 860.954 386.448 860.954 384.272ZM922.761 366.032C927.113 366.032 930.611 367.376 933.257 370.064C935.945 372.709 937.289 376.421 937.289 381.2V402H928.329V382.416C928.329 379.643 927.625 377.531 926.217 376.08C924.809 374.587 922.889 373.84 920.457 373.84C918.025 373.84 916.083 374.587 914.633 376.08C913.225 377.531 912.521 379.643 912.521 382.416V402H903.561V382.416C903.561 379.643 902.857 377.531 901.449 376.08C900.041 374.587 898.121 373.84 895.689 373.84C893.214 373.84 891.251 374.587 889.801 376.08C888.393 377.531 887.689 379.643 887.689 382.416V402H878.729V366.544H887.689V370.832C888.841 369.339 890.313 368.165 892.105 367.312C893.939 366.459 895.945 366.032 898.121 366.032C900.894 366.032 903.369 366.629 905.545 367.824C907.721 368.976 909.406 370.64 910.601 372.816C911.753 370.768 913.417 369.125 915.593 367.888C917.811 366.651 920.201 366.032 922.761 366.032ZM989.823 366.032C994.175 366.032 997.674 367.376 1000.32 370.064C1003.01 372.709 1004.35 376.421 1004.35 381.2V402H995.391V382.416C995.391 379.643 994.687 377.531 993.279 376.08C991.871 374.587 989.951 373.84 987.519 373.84C985.087 373.84 983.146 374.587 981.695 376.08C980.287 377.531 979.583 379.643 979.583 382.416V402H970.623V382.416C970.623 379.643 969.919 377.531 968.511 376.08C967.103 374.587 965.183 373.84 962.751 373.84C960.276 373.84 958.314 374.587 956.863 376.08C955.455 377.531 954.751 379.643 954.751 382.416V402H945.791V366.544H954.751V370.832C955.903 369.339 957.375 368.165 959.167 367.312C961.002 366.459 963.007 366.032 965.183 366.032C967.956 366.032 970.431 366.629 972.607 367.824C974.783 368.976 976.468 370.64 977.663 372.816C978.815 370.768 980.479 369.125 982.655 367.888C984.874 366.651 987.263 366.032 989.823 366.032ZM1045.81 383.504C1045.81 384.784 1045.73 385.936 1045.56 386.96H1019.64C1019.85 389.52 1020.75 391.525 1022.33 392.976C1023.9 394.427 1025.85 395.152 1028.15 395.152C1031.48 395.152 1033.85 393.723 1035.25 390.864H1044.92C1043.89 394.277 1041.93 397.093 1039.03 399.312C1036.13 401.488 1032.57 402.576 1028.34 402.576C1024.93 402.576 1021.86 401.829 1019.13 400.336C1016.44 398.8 1014.33 396.645 1012.79 393.872C1011.3 391.099 1010.55 387.899 1010.55 384.272C1010.55 380.603 1011.3 377.381 1012.79 374.608C1014.28 371.835 1016.37 369.701 1019.06 368.208C1021.75 366.715 1024.84 365.968 1028.34 365.968C1031.71 365.968 1034.72 366.693 1037.37 368.144C1040.05 369.595 1042.12 371.664 1043.57 374.352C1045.07 376.997 1045.81 380.048 1045.81 383.504ZM1036.53 380.944C1036.49 378.64 1035.66 376.805 1034.04 375.44C1032.42 374.032 1030.43 373.328 1028.09 373.328C1025.87 373.328 1023.99 374.011 1022.45 375.376C1020.96 376.699 1020.04 378.555 1019.7 380.944H1036.53ZM1061.31 372.048C1062.47 370.171 1063.96 368.699 1065.79 367.632C1067.67 366.565 1069.8 366.032 1072.19 366.032V375.44H1069.83C1067.01 375.44 1064.88 376.101 1063.43 377.424C1062.02 378.747 1061.31 381.051 1061.31 384.336V402H1052.35V366.544H1061.31V372.048Z" fill="white"/>
<path d="M1093.72 414.608C1089.58 410.597 1086.36 405.477 1084.05 399.248C1081.79 393.019 1080.66 386.341 1080.66 379.216C1080.66 371.92 1081.86 365.072 1084.24 358.672C1086.63 352.229 1090.11 346.96 1094.68 342.864H1103.7V343.696C1099.01 348.176 1095.42 353.552 1092.95 359.824C1090.52 366.096 1089.3 372.56 1089.3 379.216C1089.3 385.701 1090.45 391.973 1092.76 398.032C1095.1 404.048 1098.43 409.275 1102.74 413.712V414.608H1093.72ZM1106.99 414.608V413.712C1111.3 409.275 1114.6 404.048 1116.91 398.032C1119.25 391.973 1120.43 385.701 1120.43 379.216C1120.43 372.56 1119.19 366.096 1116.72 359.824C1114.28 353.552 1110.72 348.176 1106.03 343.696V342.864H1115.05C1119.62 346.96 1123.09 352.229 1125.48 358.672C1127.87 365.072 1129.07 371.92 1129.07 379.216C1129.07 386.341 1127.92 393.019 1125.61 399.248C1123.35 405.477 1120.15 410.597 1116.01 414.608H1106.99Z" fill="#FFDA7C"/>
<path d="M569.657 195.528L556.713 223.286C556.319 224.13 557.863 225.683 560.162 226.755L560.901 227.1C563.2 228.172 565.382 228.357 565.776 227.513L578.72 199.754C579.113 198.91 577.569 197.357 575.27 196.286L574.531 195.941C572.232 194.869 570.05 194.684 569.657 195.528Z" fill="#F5080D"/>
<path d="M578.887 247.784L565.943 220.025C565.549 219.181 563.367 219.366 561.068 220.438L560.329 220.783C558.03 221.855 556.486 223.408 556.88 224.251L569.824 252.01C570.217 252.854 572.399 252.669 574.698 251.597L575.438 251.252C577.736 250.181 579.28 248.628 578.887 247.784Z" fill="#F5080D"/>
<path d="M945.943 195.528L958.887 223.286C959.281 224.13 957.737 225.683 955.438 226.755L954.698 227.1C952.4 228.172 950.218 228.357 949.824 227.513L936.88 199.754C936.486 198.91 938.03 197.357 940.329 196.286L941.069 195.941C943.367 194.869 945.55 194.684 945.943 195.528Z" fill="#F5080D"/>
<path d="M936.712 247.784L949.657 220.025C950.05 219.181 952.233 219.366 954.531 220.438L955.271 220.783C957.569 221.855 959.114 223.408 958.72 224.251L945.776 252.01C945.382 252.854 943.2 252.669 940.901 251.597L940.162 251.252C937.863 250.181 936.319 248.628 936.712 247.784Z" fill="#F5080D"/>
</svg>
